<svg xmlns="http://www.w3.org/2000/svg" viewBox="0 0 620 1000" width="620" height="1000">
  <title>Equipment rack, front elevation</title>
  <defs>
    <linearGradient id="patronos" gradientUnits="userSpaceOnUse"
        x1="125.0" y1="125.0" x2="730.0" y2="730.0">
      <stop offset="0%" stop-color="#ff9700"/>
      <stop offset="33%" stop-color="#ff6253"/>
      <stop offset="67%" stop-color="#fc4696"/>
      <stop offset="100%" stop-color="#c964e2"/>
    </linearGradient>
  </defs>
  <path d="M 158.98,89.60 L 461.02,89.60 L 461.02,850.40 L 158.98,850.40 L 158.98,89.60 L 161.02,90.40 L 161.02,849.60 L 458.98,849.60 L 458.98,90.40 L 161.02,90.40 Z M 171.53,101.82 L 448.47,101.82 L 448.47,838.18 L 171.53,838.18 L 171.53,101.82 L 172.47,102.18 L 172.47,837.82 L 447.53,837.82 L 447.53,102.18 L 172.47,102.18 Z M 181.94,115.50 L 438.06,115.50 L 438.06,146.83 L 181.94,146.83 L 181.94,115.50 L 182.06,116.50 L 182.06,145.84 L 437.94,145.84 L 437.94,116.50 L 182.06,116.50 Z M 191.88,120.67 L 248.62,120.67 L 248.62,141.66 L 191.88,141.66 L 191.88,120.67 L 192.12,121.33 L 192.12,141.00 L 248.38,141.00 L 248.38,121.33 L 192.12,121.33 Z M 257.38,120.67 L 314.12,120.67 L 314.12,141.66 L 257.38,141.66 L 257.38,120.67 L 257.62,121.33 L 257.62,141.00 L 313.88,141.00 L 313.88,121.33 L 257.62,121.33 Z M 322.88,120.67 L 379.62,120.67 L 379.62,141.66 L 322.88,141.66 L 322.88,120.67 L 323.12,121.33 L 323.12,141.00 L 379.38,141.00 L 379.38,121.33 L 323.12,121.33 Z M 388.38,120.67 L 445.12,120.67 L 445.12,141.66 L 388.38,141.66 L 388.38,120.67 L 388.62,121.33 L 388.62,141.00 L 444.88,141.00 L 444.88,121.33 L 388.62,121.33 Z M 433.30,131.17 L 432.84,133.32 L 431.55,135.10 L 429.64,136.21 L 427.45,136.44 L 425.35,135.75 L 423.71,134.28 L 422.82,132.27 L 422.82,130.07 L 423.71,128.05 L 425.35,126.58 L 427.45,125.90 L 429.64,126.13 L 431.55,127.23 L 432.84,129.01 L 433.30,131.17 L 432.50,131.17 L 432.11,129.34 L 431.01,127.82 L 429.39,126.89 L 427.53,126.69 L 425.75,127.27 L 424.36,128.52 L 423.60,130.23 L 423.60,132.10 L 424.36,133.81 L 425.75,135.06 L 427.53,135.64 L 429.39,135.44 L 431.01,134.51 L 432.11,133.00 L 432.50,131.17 Z M 181.94,154.84 L 438.06,154.84 L 438.06,186.16 L 181.94,186.16 L 181.94,154.84 L 182.06,155.83 L 182.06,185.17 L 437.94,185.17 L 437.94,155.83 L 182.06,155.83 Z M 191.88,160.00 L 248.62,160.00 L 248.62,181.00 L 191.88,181.00 L 191.88,160.00 L 192.12,160.66 L 192.12,180.34 L 248.38,180.34 L 248.38,160.66 L 192.12,160.66 Z M 257.38,160.00 L 314.12,160.00 L 314.12,181.00 L 257.38,181.00 L 257.38,160.00 L 257.62,160.66 L 257.62,180.34 L 313.88,180.34 L 313.88,160.66 L 257.62,160.66 Z M 322.88,160.00 L 379.62,160.00 L 379.62,181.00 L 322.88,181.00 L 322.88,160.00 L 323.12,160.66 L 323.12,180.34 L 379.38,180.34 L 379.38,160.66 L 323.12,160.66 Z M 388.38,160.00 L 445.12,160.00 L 445.12,181.00 L 388.38,181.00 L 388.38,160.00 L 388.62,160.66 L 388.62,180.34 L 444.88,180.34 L 444.88,160.66 L 388.62,160.66 Z M 433.30,170.50 L 432.84,172.65 L 431.55,174.44 L 429.64,175.54 L 427.45,175.77 L 425.35,175.09 L 423.71,173.61 L 422.82,171.60 L 422.82,169.40 L 423.71,167.39 L 425.35,165.91 L 427.45,165.23 L 429.64,165.46 L 431.55,166.56 L 432.84,168.35 L 433.30,170.50 L 432.50,170.50 L 432.11,168.67 L 431.01,167.16 L 429.39,166.22 L 427.53,166.03 L 425.75,166.60 L 424.36,167.86 L 423.60,169.56 L 423.60,171.44 L 424.36,173.14 L 425.75,174.40 L 427.53,174.97 L 429.39,174.78 L 431.01,173.84 L 432.11,172.33 L 432.50,170.50 Z M 181.94,194.17 L 438.06,194.17 L 438.06,225.50 L 181.94,225.50 L 181.94,194.17 L 182.06,195.16 L 182.06,224.50 L 437.94,224.50 L 437.94,195.16 L 182.06,195.16 Z M 198.02,200.67 L 197.56,202.54 L 196.29,203.98 L 194.48,204.66 L 192.57,204.43 L 190.99,203.33 L 190.09,201.63 L 190.09,199.70 L 190.99,198.00 L 192.57,196.90 L 194.48,196.67 L 196.29,197.36 L 197.56,198.80 L 198.02,200.67 L 197.32,200.67 L 196.94,199.12 L 195.89,197.93 L 194.40,197.37 L 192.82,197.56 L 191.51,198.46 L 190.77,199.87 L 190.77,201.46 L 191.51,202.87 L 192.82,203.77 L 194.40,203.97 L 195.89,203.40 L 196.94,202.21 L 197.32,200.67 Z M 226.77,200.67 L 226.31,202.54 L 225.04,203.98 L 223.23,204.66 L 221.32,204.43 L 219.74,203.33 L 218.84,201.63 L 218.84,199.70 L 219.74,198.00 L 221.32,196.90 L 223.23,196.67 L 225.04,197.36 L 226.31,198.80 L 226.77,200.67 L 226.07,200.67 L 225.69,199.12 L 224.64,197.93 L 223.15,197.37 L 221.57,197.56 L 220.26,198.46 L 219.52,199.87 L 219.52,201.46 L 220.26,202.87 L 221.57,203.77 L 223.15,203.97 L 224.64,203.40 L 225.69,202.21 L 226.07,200.67 Z M 255.52,200.67 L 255.06,202.54 L 253.79,203.98 L 251.98,204.66 L 250.07,204.43 L 248.49,203.33 L 247.59,201.63 L 247.59,199.70 L 248.49,198.00 L 250.07,196.90 L 251.98,196.67 L 253.79,197.36 L 255.06,198.80 L 255.52,200.67 L 254.82,200.67 L 254.44,199.12 L 253.39,197.93 L 251.90,197.37 L 250.32,197.56 L 249.01,198.46 L 248.27,199.87 L 248.27,201.46 L 249.01,202.87 L 250.32,203.77 L 251.90,203.97 L 253.39,203.40 L 254.44,202.21 L 254.82,200.67 Z M 284.27,200.67 L 283.81,202.54 L 282.54,203.98 L 280.73,204.66 L 278.82,204.43 L 277.24,203.33 L 276.34,201.63 L 276.34,199.70 L 277.24,198.00 L 278.82,196.90 L 280.73,196.67 L 282.54,197.36 L 283.81,198.80 L 284.27,200.67 L 283.57,200.67 L 283.19,199.12 L 282.14,197.93 L 280.65,197.37 L 279.07,197.56 L 277.76,198.46 L 277.02,199.87 L 277.02,201.46 L 277.76,202.87 L 279.07,203.77 L 280.65,203.97 L 282.14,203.40 L 283.19,202.21 L 283.57,200.67 Z M 313.02,200.67 L 312.56,202.54 L 311.29,203.98 L 309.48,204.66 L 307.57,204.43 L 305.99,203.33 L 305.09,201.63 L 305.09,199.70 L 305.99,198.00 L 307.57,196.90 L 309.48,196.67 L 311.29,197.36 L 312.56,198.80 L 313.02,200.67 L 312.32,200.67 L 311.94,199.12 L 310.89,197.93 L 309.40,197.37 L 307.82,197.56 L 306.51,198.46 L 305.77,199.87 L 305.77,201.46 L 306.51,202.87 L 307.82,203.77 L 309.40,203.97 L 310.89,203.40 L 311.94,202.21 L 312.32,200.67 Z M 341.77,200.67 L 341.31,202.54 L 340.04,203.98 L 338.23,204.66 L 336.32,204.43 L 334.74,203.33 L 333.84,201.63 L 333.84,199.70 L 334.74,198.00 L 336.32,196.90 L 338.23,196.67 L 340.04,197.36 L 341.31,198.80 L 341.77,200.67 L 341.07,200.67 L 340.69,199.12 L 339.64,197.93 L 338.15,197.37 L 336.57,197.56 L 335.26,198.46 L 334.52,199.87 L 334.52,201.46 L 335.26,202.87 L 336.57,203.77 L 338.15,203.97 L 339.64,203.40 L 340.69,202.21 L 341.07,200.67 Z M 370.52,200.67 L 370.06,202.54 L 368.79,203.98 L 366.98,204.66 L 365.07,204.43 L 363.49,203.33 L 362.59,201.63 L 362.59,199.70 L 363.49,198.00 L 365.07,196.90 L 366.98,196.67 L 368.79,197.36 L 370.06,198.80 L 370.52,200.67 L 369.82,200.67 L 369.44,199.12 L 368.39,197.93 L 366.90,197.37 L 365.32,197.56 L 364.01,198.46 L 363.27,199.87 L 363.27,201.46 L 364.01,202.87 L 365.32,203.77 L 366.90,203.97 L 368.39,203.40 L 369.44,202.21 L 369.82,200.67 Z M 399.27,200.67 L 398.81,202.54 L 397.54,203.98 L 395.73,204.66 L 393.82,204.43 L 392.24,203.33 L 391.34,201.63 L 391.34,199.70 L 392.24,198.00 L 393.82,196.90 L 395.73,196.67 L 397.54,197.36 L 398.81,198.80 L 399.27,200.67 L 398.57,200.67 L 398.19,199.12 L 397.14,197.93 L 395.65,197.37 L 394.07,197.56 L 392.76,198.46 L 392.02,199.87 L 392.02,201.46 L 392.76,202.87 L 394.07,203.77 L 395.65,203.97 L 397.14,203.40 L 398.19,202.21 L 398.57,200.67 Z M 428.02,200.67 L 427.56,202.54 L 426.29,203.98 L 424.48,204.66 L 422.57,204.43 L 420.99,203.33 L 420.09,201.63 L 420.09,199.70 L 420.99,198.00 L 422.57,196.90 L 424.48,196.67 L 426.29,197.36 L 427.56,198.80 L 428.02,200.67 L 427.32,200.67 L 426.94,199.12 L 425.89,197.93 L 424.40,197.37 L 422.82,197.56 L 421.51,198.46 L 420.77,199.87 L 420.77,201.46 L 421.51,202.87 L 422.82,203.77 L 424.40,203.97 L 425.89,203.40 L 426.94,202.21 L 427.32,200.67 Z M 198.02,211.83 L 197.56,213.70 L 196.29,215.14 L 194.48,215.83 L 192.57,215.60 L 190.99,214.50 L 190.09,212.80 L 190.09,210.87 L 190.99,209.17 L 192.57,208.07 L 194.48,207.84 L 196.29,208.52 L 197.56,209.96 L 198.02,211.83 L 197.32,211.83 L 196.94,210.29 L 195.89,209.10 L 194.40,208.53 L 192.82,208.73 L 191.51,209.63 L 190.77,211.04 L 190.77,212.63 L 191.51,214.04 L 192.82,214.94 L 194.40,215.13 L 195.89,214.57 L 196.94,213.38 L 197.32,211.83 Z M 226.77,211.83 L 226.31,213.70 L 225.04,215.14 L 223.23,215.83 L 221.32,215.60 L 219.74,214.50 L 218.84,212.80 L 218.84,210.87 L 219.74,209.17 L 221.32,208.07 L 223.23,207.84 L 225.04,208.52 L 226.31,209.96 L 226.77,211.83 L 226.07,211.83 L 225.69,210.29 L 224.64,209.10 L 223.15,208.53 L 221.57,208.73 L 220.26,209.63 L 219.52,211.04 L 219.52,212.63 L 220.26,214.04 L 221.57,214.94 L 223.15,215.13 L 224.64,214.57 L 225.69,213.38 L 226.07,211.83 Z M 255.52,211.83 L 255.06,213.70 L 253.79,215.14 L 251.98,215.83 L 250.07,215.60 L 248.49,214.50 L 247.59,212.80 L 247.59,210.87 L 248.49,209.17 L 250.07,208.07 L 251.98,207.84 L 253.79,208.52 L 255.06,209.96 L 255.52,211.83 L 254.82,211.83 L 254.44,210.29 L 253.39,209.10 L 251.90,208.53 L 250.32,208.73 L 249.01,209.63 L 248.27,211.04 L 248.27,212.63 L 249.01,214.04 L 250.32,214.94 L 251.90,215.13 L 253.39,214.57 L 254.44,213.38 L 254.82,211.83 Z M 284.27,211.83 L 283.81,213.70 L 282.54,215.14 L 280.73,215.83 L 278.82,215.60 L 277.24,214.50 L 276.34,212.80 L 276.34,210.87 L 277.24,209.17 L 278.82,208.07 L 280.73,207.84 L 282.54,208.52 L 283.81,209.96 L 284.27,211.83 L 283.57,211.83 L 283.19,210.29 L 282.14,209.10 L 280.65,208.53 L 279.07,208.73 L 277.76,209.63 L 277.02,211.04 L 277.02,212.63 L 277.76,214.04 L 279.07,214.94 L 280.65,215.13 L 282.14,214.57 L 283.19,213.38 L 283.57,211.83 Z M 313.02,211.83 L 312.56,213.70 L 311.29,215.14 L 309.48,215.83 L 307.57,215.60 L 305.99,214.50 L 305.09,212.80 L 305.09,210.87 L 305.99,209.17 L 307.57,208.07 L 309.48,207.84 L 311.29,208.52 L 312.56,209.96 L 313.02,211.83 L 312.32,211.83 L 311.94,210.29 L 310.89,209.10 L 309.40,208.53 L 307.82,208.73 L 306.51,209.63 L 305.77,211.04 L 305.77,212.63 L 306.51,214.04 L 307.82,214.94 L 309.40,215.13 L 310.89,214.57 L 311.94,213.38 L 312.32,211.83 Z M 341.77,211.83 L 341.31,213.70 L 340.04,215.14 L 338.23,215.83 L 336.32,215.60 L 334.74,214.50 L 333.84,212.80 L 333.84,210.87 L 334.74,209.17 L 336.32,208.07 L 338.23,207.84 L 340.04,208.52 L 341.31,209.96 L 341.77,211.83 L 341.07,211.83 L 340.69,210.29 L 339.64,209.10 L 338.15,208.53 L 336.57,208.73 L 335.26,209.63 L 334.52,211.04 L 334.52,212.63 L 335.26,214.04 L 336.57,214.94 L 338.15,215.13 L 339.64,214.57 L 340.69,213.38 L 341.07,211.83 Z M 370.52,211.83 L 370.06,213.70 L 368.79,215.14 L 366.98,215.83 L 365.07,215.60 L 363.49,214.50 L 362.59,212.80 L 362.59,210.87 L 363.49,209.17 L 365.07,208.07 L 366.98,207.84 L 368.79,208.52 L 370.06,209.96 L 370.52,211.83 L 369.82,211.83 L 369.44,210.29 L 368.39,209.10 L 366.90,208.53 L 365.32,208.73 L 364.01,209.63 L 363.27,211.04 L 363.27,212.63 L 364.01,214.04 L 365.32,214.94 L 366.90,215.13 L 368.39,214.57 L 369.44,213.38 L 369.82,211.83 Z M 399.27,211.83 L 398.81,213.70 L 397.54,215.14 L 395.73,215.83 L 393.82,215.60 L 392.24,214.50 L 391.34,212.80 L 391.34,210.87 L 392.24,209.17 L 393.82,208.07 L 395.73,207.84 L 397.54,208.52 L 398.81,209.96 L 399.27,211.83 L 398.57,211.83 L 398.19,210.29 L 397.14,209.10 L 395.65,208.53 L 394.07,208.73 L 392.76,209.63 L 392.02,211.04 L 392.02,212.63 L 392.76,214.04 L 394.07,214.94 L 395.65,215.13 L 397.14,214.57 L 398.19,213.38 L 398.57,211.83 Z M 428.02,211.83 L 427.56,213.70 L 426.29,215.14 L 424.48,215.83 L 422.57,215.60 L 420.99,214.50 L 420.09,212.80 L 420.09,210.87 L 420.99,209.17 L 422.57,208.07 L 424.48,207.84 L 426.29,208.52 L 427.56,209.96 L 428.02,211.83 L 427.32,211.83 L 426.94,210.29 L 425.89,209.10 L 424.40,208.53 L 422.82,208.73 L 421.51,209.63 L 420.77,211.04 L 420.77,212.63 L 421.51,214.04 L 422.82,214.94 L 424.40,215.13 L 425.89,214.57 L 426.94,213.38 L 427.32,211.83 Z M 198.02,223.00 L 197.56,224.87 L 196.29,226.31 L 194.48,226.99 L 192.57,226.76 L 190.99,225.67 L 190.09,223.96 L 190.09,222.04 L 190.99,220.33 L 192.57,219.24 L 194.48,219.01 L 196.29,219.69 L 197.56,221.13 L 198.02,223.00 L 197.32,223.00 L 196.94,221.46 L 195.89,220.26 L 194.40,219.70 L 192.82,219.89 L 191.51,220.80 L 190.77,222.20 L 190.77,223.80 L 191.51,225.20 L 192.82,226.11 L 194.40,226.30 L 195.89,225.74 L 196.94,224.54 L 197.32,223.00 Z M 226.77,223.00 L 226.31,224.87 L 225.04,226.31 L 223.23,226.99 L 221.32,226.76 L 219.74,225.67 L 218.84,223.96 L 218.84,222.04 L 219.74,220.33 L 221.32,219.24 L 223.23,219.01 L 225.04,219.69 L 226.31,221.13 L 226.77,223.00 L 226.07,223.00 L 225.69,221.46 L 224.64,220.26 L 223.15,219.70 L 221.57,219.89 L 220.26,220.80 L 219.52,222.20 L 219.52,223.80 L 220.26,225.20 L 221.57,226.11 L 223.15,226.30 L 224.64,225.74 L 225.69,224.54 L 226.07,223.00 Z M 255.52,223.00 L 255.06,224.87 L 253.79,226.31 L 251.98,226.99 L 250.07,226.76 L 248.49,225.67 L 247.59,223.96 L 247.59,222.04 L 248.49,220.33 L 250.07,219.24 L 251.98,219.01 L 253.79,219.69 L 255.06,221.13 L 255.52,223.00 L 254.82,223.00 L 254.44,221.46 L 253.39,220.26 L 251.90,219.70 L 250.32,219.89 L 249.01,220.80 L 248.27,222.20 L 248.27,223.80 L 249.01,225.20 L 250.32,226.11 L 251.90,226.30 L 253.39,225.74 L 254.44,224.54 L 254.82,223.00 Z M 284.27,223.00 L 283.81,224.87 L 282.54,226.31 L 280.73,226.99 L 278.82,226.76 L 277.24,225.67 L 276.34,223.96 L 276.34,222.04 L 277.24,220.33 L 278.82,219.24 L 280.73,219.01 L 282.54,219.69 L 283.81,221.13 L 284.27,223.00 L 283.57,223.00 L 283.19,221.46 L 282.14,220.26 L 280.65,219.70 L 279.07,219.89 L 277.76,220.80 L 277.02,222.20 L 277.02,223.80 L 277.76,225.20 L 279.07,226.11 L 280.65,226.30 L 282.14,225.74 L 283.19,224.54 L 283.57,223.00 Z M 313.02,223.00 L 312.56,224.87 L 311.29,226.31 L 309.48,226.99 L 307.57,226.76 L 305.99,225.67 L 305.09,223.96 L 305.09,222.04 L 305.99,220.33 L 307.57,219.24 L 309.48,219.01 L 311.29,219.69 L 312.56,221.13 L 313.02,223.00 L 312.32,223.00 L 311.94,221.46 L 310.89,220.26 L 309.40,219.70 L 307.82,219.89 L 306.51,220.80 L 305.77,222.20 L 305.77,223.80 L 306.51,225.20 L 307.82,226.11 L 309.40,226.30 L 310.89,225.74 L 311.94,224.54 L 312.32,223.00 Z M 341.77,223.00 L 341.31,224.87 L 340.04,226.31 L 338.23,226.99 L 336.32,226.76 L 334.74,225.67 L 333.84,223.96 L 333.84,222.04 L 334.74,220.33 L 336.32,219.24 L 338.23,219.01 L 340.04,219.69 L 341.31,221.13 L 341.77,223.00 L 341.07,223.00 L 340.69,221.46 L 339.64,220.26 L 338.15,219.70 L 336.57,219.89 L 335.26,220.80 L 334.52,222.20 L 334.52,223.80 L 335.26,225.20 L 336.57,226.11 L 338.15,226.30 L 339.64,225.74 L 340.69,224.54 L 341.07,223.00 Z M 370.52,223.00 L 370.06,224.87 L 368.79,226.31 L 366.98,226.99 L 365.07,226.76 L 363.49,225.67 L 362.59,223.96 L 362.59,222.04 L 363.49,220.33 L 365.07,219.24 L 366.98,219.01 L 368.79,219.69 L 370.06,221.13 L 370.52,223.00 L 369.82,223.00 L 369.44,221.46 L 368.39,220.26 L 366.90,219.70 L 365.32,219.89 L 364.01,220.80 L 363.27,222.20 L 363.27,223.80 L 364.01,225.20 L 365.32,226.11 L 366.90,226.30 L 368.39,225.74 L 369.44,224.54 L 369.82,223.00 Z M 399.27,223.00 L 398.81,224.87 L 397.54,226.31 L 395.73,226.99 L 393.82,226.76 L 392.24,225.67 L 391.34,223.96 L 391.34,222.04 L 392.24,220.33 L 393.82,219.24 L 395.73,219.01 L 397.54,219.69 L 398.81,221.13 L 399.27,223.00 L 398.57,223.00 L 398.19,221.46 L 397.14,220.26 L 395.65,219.70 L 394.07,219.89 L 392.76,220.80 L 392.02,222.20 L 392.02,223.80 L 392.76,225.20 L 394.07,226.11 L 395.65,226.30 L 397.14,225.74 L 398.19,224.54 L 398.57,223.00 Z M 428.02,223.00 L 427.56,224.87 L 426.29,226.31 L 424.48,226.99 L 422.57,226.76 L 420.99,225.67 L 420.09,223.96 L 420.09,222.04 L 420.99,220.33 L 422.57,219.24 L 424.48,219.01 L 426.29,219.69 L 427.56,221.13 L 428.02,223.00 L 427.32,223.00 L 426.94,221.46 L 425.89,220.26 L 424.40,219.70 L 422.82,219.89 L 421.51,220.80 L 420.77,222.20 L 420.77,223.80 L 421.51,225.20 L 422.82,226.11 L 424.40,226.30 L 425.89,225.74 L 426.94,224.54 L 427.32,223.00 Z M 181.94,233.50 L 438.06,233.50 L 438.06,264.83 L 181.94,264.83 L 181.94,233.50 L 182.06,234.50 L 182.06,263.84 L 437.94,263.84 L 437.94,234.50 L 182.06,234.50 Z M 191.88,238.67 L 248.62,238.67 L 248.62,259.66 L 191.88,259.66 L 191.88,238.67 L 192.12,239.33 L 192.12,259.00 L 248.38,259.00 L 248.38,239.33 L 192.12,239.33 Z M 257.38,238.67 L 314.12,238.67 L 314.12,259.66 L 257.38,259.66 L 257.38,238.67 L 257.62,239.33 L 257.62,259.00 L 313.88,259.00 L 313.88,239.33 L 257.62,239.33 Z M 322.88,238.67 L 379.62,238.67 L 379.62,259.66 L 322.88,259.66 L 322.88,238.67 L 323.12,239.33 L 323.12,259.00 L 379.38,259.00 L 379.38,239.33 L 323.12,239.33 Z M 388.38,238.67 L 445.12,238.67 L 445.12,259.66 L 388.38,259.66 L 388.38,238.67 L 388.62,239.33 L 388.62,259.00 L 444.88,259.00 L 444.88,239.33 L 388.62,239.33 Z M 433.30,249.17 L 432.84,251.32 L 431.55,253.10 L 429.64,254.21 L 427.45,254.44 L 425.35,253.75 L 423.71,252.28 L 422.82,250.27 L 422.82,248.07 L 423.71,246.05 L 425.35,244.58 L 427.45,243.90 L 429.64,244.13 L 431.55,245.23 L 432.84,247.01 L 433.30,249.17 L 432.50,249.17 L 432.11,247.34 L 431.01,245.82 L 429.39,244.89 L 427.53,244.69 L 425.75,245.27 L 424.36,246.52 L 423.60,248.23 L 423.60,250.10 L 424.36,251.81 L 425.75,253.06 L 427.53,253.64 L 429.39,253.44 L 431.01,252.51 L 432.11,251.00 L 432.50,249.17 Z M 181.94,272.84 L 438.06,272.84 L 438.06,304.16 L 181.94,304.16 L 181.94,272.84 L 182.06,273.83 L 182.06,303.17 L 437.94,303.17 L 437.94,273.83 L 182.06,273.83 Z M 191.88,278.00 L 248.62,278.00 L 248.62,299.00 L 191.88,299.00 L 191.88,278.00 L 192.12,278.66 L 192.12,298.34 L 248.38,298.34 L 248.38,278.66 L 192.12,278.66 Z M 257.38,278.00 L 314.12,278.00 L 314.12,299.00 L 257.38,299.00 L 257.38,278.00 L 257.62,278.66 L 257.62,298.34 L 313.88,298.34 L 313.88,278.66 L 257.62,278.66 Z M 322.88,278.00 L 379.62,278.00 L 379.62,299.00 L 322.88,299.00 L 322.88,278.00 L 323.12,278.66 L 323.12,298.34 L 379.38,298.34 L 379.38,278.66 L 323.12,278.66 Z M 388.38,278.00 L 445.12,278.00 L 445.12,299.00 L 388.38,299.00 L 388.38,278.00 L 388.62,278.66 L 388.62,298.34 L 444.88,298.34 L 444.88,278.66 L 388.62,278.66 Z M 433.30,288.50 L 432.84,290.65 L 431.55,292.44 L 429.64,293.54 L 427.45,293.77 L 425.35,293.09 L 423.71,291.61 L 422.82,289.60 L 422.82,287.40 L 423.71,285.39 L 425.35,283.91 L 427.45,283.23 L 429.64,283.46 L 431.55,284.56 L 432.84,286.35 L 433.30,288.50 L 432.50,288.50 L 432.11,286.67 L 431.01,285.16 L 429.39,284.22 L 427.53,284.03 L 425.75,284.60 L 424.36,285.86 L 423.60,287.56 L 423.60,289.44 L 424.36,291.14 L 425.75,292.40 L 427.53,292.97 L 429.39,292.78 L 431.01,291.84 L 432.11,290.33 L 432.50,288.50 Z M 181.94,312.17 L 438.06,312.17 L 438.06,343.50 L 181.94,343.50 L 181.94,312.17 L 182.06,313.16 L 182.06,342.50 L 437.94,342.50 L 437.94,313.16 L 182.06,313.16 Z M 191.88,317.34 L 248.62,317.34 L 248.62,338.33 L 191.88,338.33 L 191.88,317.34 L 192.12,318.00 L 192.12,337.67 L 248.38,337.67 L 248.38,318.00 L 192.12,318.00 Z M 257.38,317.34 L 314.12,317.34 L 314.12,338.33 L 257.38,338.33 L 257.38,317.34 L 257.62,318.00 L 257.62,337.67 L 313.88,337.67 L 313.88,318.00 L 257.62,318.00 Z M 322.88,317.34 L 379.62,317.34 L 379.62,338.33 L 322.88,338.33 L 322.88,317.34 L 323.12,318.00 L 323.12,337.67 L 379.38,337.67 L 379.38,318.00 L 323.12,318.00 Z M 388.38,317.34 L 445.12,317.34 L 445.12,338.33 L 388.38,338.33 L 388.38,317.34 L 388.62,318.00 L 388.62,337.67 L 444.88,337.67 L 444.88,318.00 L 388.62,318.00 Z M 433.30,327.83 L 432.84,329.99 L 431.55,331.77 L 429.64,332.87 L 427.45,333.10 L 425.35,332.42 L 423.71,330.95 L 422.82,328.93 L 422.82,326.73 L 423.71,324.72 L 425.35,323.25 L 427.45,322.56 L 429.64,322.79 L 431.55,323.90 L 432.84,325.68 L 433.30,327.83 L 432.50,327.83 L 432.11,326.00 L 431.01,324.49 L 429.39,323.56 L 427.53,323.36 L 425.75,323.94 L 424.36,325.19 L 423.60,326.90 L 423.60,328.77 L 424.36,330.48 L 425.75,331.73 L 427.53,332.31 L 429.39,332.11 L 431.01,331.18 L 432.11,329.66 L 432.50,327.83 Z M 181.94,351.50 L 438.06,351.50 L 438.06,382.83 L 181.94,382.83 L 181.94,351.50 L 182.06,352.50 L 182.06,381.84 L 437.94,381.84 L 437.94,352.50 L 182.06,352.50 Z M 198.02,358.00 L 197.56,359.87 L 196.29,361.31 L 194.48,361.99 L 192.57,361.76 L 190.99,360.67 L 190.09,358.96 L 190.09,357.04 L 190.99,355.33 L 192.57,354.24 L 194.48,354.01 L 196.29,354.69 L 197.56,356.13 L 198.02,358.00 L 197.32,358.00 L 196.94,356.46 L 195.89,355.26 L 194.40,354.70 L 192.82,354.89 L 191.51,355.80 L 190.77,357.20 L 190.77,358.80 L 191.51,360.20 L 192.82,361.11 L 194.40,361.30 L 195.89,360.74 L 196.94,359.54 L 197.32,358.00 Z M 226.77,358.00 L 226.31,359.87 L 225.04,361.31 L 223.23,361.99 L 221.32,361.76 L 219.74,360.67 L 218.84,358.96 L 218.84,357.04 L 219.74,355.33 L 221.32,354.24 L 223.23,354.01 L 225.04,354.69 L 226.31,356.13 L 226.77,358.00 L 226.07,358.00 L 225.69,356.46 L 224.64,355.26 L 223.15,354.70 L 221.57,354.89 L 220.26,355.80 L 219.52,357.20 L 219.52,358.80 L 220.26,360.20 L 221.57,361.11 L 223.15,361.30 L 224.64,360.74 L 225.69,359.54 L 226.07,358.00 Z M 255.52,358.00 L 255.06,359.87 L 253.79,361.31 L 251.98,361.99 L 250.07,361.76 L 248.49,360.67 L 247.59,358.96 L 247.59,357.04 L 248.49,355.33 L 250.07,354.24 L 251.98,354.01 L 253.79,354.69 L 255.06,356.13 L 255.52,358.00 L 254.82,358.00 L 254.44,356.46 L 253.39,355.26 L 251.90,354.70 L 250.32,354.89 L 249.01,355.80 L 248.27,357.20 L 248.27,358.80 L 249.01,360.20 L 250.32,361.11 L 251.90,361.30 L 253.39,360.74 L 254.44,359.54 L 254.82,358.00 Z M 284.27,358.00 L 283.81,359.87 L 282.54,361.31 L 280.73,361.99 L 278.82,361.76 L 277.24,360.67 L 276.34,358.96 L 276.34,357.04 L 277.24,355.33 L 278.82,354.24 L 280.73,354.01 L 282.54,354.69 L 283.81,356.13 L 284.27,358.00 L 283.57,358.00 L 283.19,356.46 L 282.14,355.26 L 280.65,354.70 L 279.07,354.89 L 277.76,355.80 L 277.02,357.20 L 277.02,358.80 L 277.76,360.20 L 279.07,361.11 L 280.65,361.30 L 282.14,360.74 L 283.19,359.54 L 283.57,358.00 Z M 313.02,358.00 L 312.56,359.87 L 311.29,361.31 L 309.48,361.99 L 307.57,361.76 L 305.99,360.67 L 305.09,358.96 L 305.09,357.04 L 305.99,355.33 L 307.57,354.24 L 309.48,354.01 L 311.29,354.69 L 312.56,356.13 L 313.02,358.00 L 312.32,358.00 L 311.94,356.46 L 310.89,355.26 L 309.40,354.70 L 307.82,354.89 L 306.51,355.80 L 305.77,357.20 L 305.77,358.80 L 306.51,360.20 L 307.82,361.11 L 309.40,361.30 L 310.89,360.74 L 311.94,359.54 L 312.32,358.00 Z M 341.77,358.00 L 341.31,359.87 L 340.04,361.31 L 338.23,361.99 L 336.32,361.76 L 334.74,360.67 L 333.84,358.96 L 333.84,357.04 L 334.74,355.33 L 336.32,354.24 L 338.23,354.01 L 340.04,354.69 L 341.31,356.13 L 341.77,358.00 L 341.07,358.00 L 340.69,356.46 L 339.64,355.26 L 338.15,354.70 L 336.57,354.89 L 335.26,355.80 L 334.52,357.20 L 334.52,358.80 L 335.26,360.20 L 336.57,361.11 L 338.15,361.30 L 339.64,360.74 L 340.69,359.54 L 341.07,358.00 Z M 370.52,358.00 L 370.06,359.87 L 368.79,361.31 L 366.98,361.99 L 365.07,361.76 L 363.49,360.67 L 362.59,358.96 L 362.59,357.04 L 363.49,355.33 L 365.07,354.24 L 366.98,354.01 L 368.79,354.69 L 370.06,356.13 L 370.52,358.00 L 369.82,358.00 L 369.44,356.46 L 368.39,355.26 L 366.90,354.70 L 365.32,354.89 L 364.01,355.80 L 363.27,357.20 L 363.27,358.80 L 364.01,360.20 L 365.32,361.11 L 366.90,361.30 L 368.39,360.74 L 369.44,359.54 L 369.82,358.00 Z M 399.27,358.00 L 398.81,359.87 L 397.54,361.31 L 395.73,361.99 L 393.82,361.76 L 392.24,360.67 L 391.34,358.96 L 391.34,357.04 L 392.24,355.33 L 393.82,354.24 L 395.73,354.01 L 397.54,354.69 L 398.81,356.13 L 399.27,358.00 L 398.57,358.00 L 398.19,356.46 L 397.14,355.26 L 395.65,354.70 L 394.07,354.89 L 392.76,355.80 L 392.02,357.20 L 392.02,358.80 L 392.76,360.20 L 394.07,361.11 L 395.65,361.30 L 397.14,360.74 L 398.19,359.54 L 398.57,358.00 Z M 428.02,358.00 L 427.56,359.87 L 426.29,361.31 L 424.48,361.99 L 422.57,361.76 L 420.99,360.67 L 420.09,358.96 L 420.09,357.04 L 420.99,355.33 L 422.57,354.24 L 424.48,354.01 L 426.29,354.69 L 427.56,356.13 L 428.02,358.00 L 427.32,358.00 L 426.94,356.46 L 425.89,355.26 L 424.40,354.70 L 422.82,354.89 L 421.51,355.80 L 420.77,357.20 L 420.77,358.80 L 421.51,360.20 L 422.82,361.11 L 424.40,361.30 L 425.89,360.74 L 426.94,359.54 L 427.32,358.00 Z M 198.02,369.17 L 197.56,371.04 L 196.29,372.48 L 194.48,373.16 L 192.57,372.93 L 190.99,371.83 L 190.09,370.13 L 190.09,368.20 L 190.99,366.50 L 192.57,365.40 L 194.48,365.17 L 196.29,365.86 L 197.56,367.30 L 198.02,369.17 L 197.32,369.17 L 196.94,367.62 L 195.89,366.43 L 194.40,365.87 L 192.82,366.06 L 191.51,366.96 L 190.77,368.37 L 190.77,369.96 L 191.51,371.37 L 192.82,372.27 L 194.40,372.47 L 195.89,371.90 L 196.94,370.71 L 197.32,369.17 Z M 226.77,369.17 L 226.31,371.04 L 225.04,372.48 L 223.23,373.16 L 221.32,372.93 L 219.74,371.83 L 218.84,370.13 L 218.84,368.20 L 219.74,366.50 L 221.32,365.40 L 223.23,365.17 L 225.04,365.86 L 226.31,367.30 L 226.77,369.17 L 226.07,369.17 L 225.69,367.62 L 224.64,366.43 L 223.15,365.87 L 221.57,366.06 L 220.26,366.96 L 219.52,368.37 L 219.52,369.96 L 220.26,371.37 L 221.57,372.27 L 223.15,372.47 L 224.64,371.90 L 225.69,370.71 L 226.07,369.17 Z M 255.52,369.17 L 255.06,371.04 L 253.79,372.48 L 251.98,373.16 L 250.07,372.93 L 248.49,371.83 L 247.59,370.13 L 247.59,368.20 L 248.49,366.50 L 250.07,365.40 L 251.98,365.17 L 253.79,365.86 L 255.06,367.30 L 255.52,369.17 L 254.82,369.17 L 254.44,367.62 L 253.39,366.43 L 251.90,365.87 L 250.32,366.06 L 249.01,366.96 L 248.27,368.37 L 248.27,369.96 L 249.01,371.37 L 250.32,372.27 L 251.90,372.47 L 253.39,371.90 L 254.44,370.71 L 254.82,369.17 Z M 284.27,369.17 L 283.81,371.04 L 282.54,372.48 L 280.73,373.16 L 278.82,372.93 L 277.24,371.83 L 276.34,370.13 L 276.34,368.20 L 277.24,366.50 L 278.82,365.40 L 280.73,365.17 L 282.54,365.86 L 283.81,367.30 L 284.27,369.17 L 283.57,369.17 L 283.19,367.62 L 282.14,366.43 L 280.65,365.87 L 279.07,366.06 L 277.76,366.96 L 277.02,368.37 L 277.02,369.96 L 277.76,371.37 L 279.07,372.27 L 280.65,372.47 L 282.14,371.90 L 283.19,370.71 L 283.57,369.17 Z M 313.02,369.17 L 312.56,371.04 L 311.29,372.48 L 309.48,373.16 L 307.57,372.93 L 305.99,371.83 L 305.09,370.13 L 305.09,368.20 L 305.99,366.50 L 307.57,365.40 L 309.48,365.17 L 311.29,365.86 L 312.56,367.30 L 313.02,369.17 L 312.32,369.17 L 311.94,367.62 L 310.89,366.43 L 309.40,365.87 L 307.82,366.06 L 306.51,366.96 L 305.77,368.37 L 305.77,369.96 L 306.51,371.37 L 307.82,372.27 L 309.40,372.47 L 310.89,371.90 L 311.94,370.71 L 312.32,369.17 Z M 341.77,369.17 L 341.31,371.04 L 340.04,372.48 L 338.23,373.16 L 336.32,372.93 L 334.74,371.83 L 333.84,370.13 L 333.84,368.20 L 334.74,366.50 L 336.32,365.40 L 338.23,365.17 L 340.04,365.86 L 341.31,367.30 L 341.77,369.17 L 341.07,369.17 L 340.69,367.62 L 339.64,366.43 L 338.15,365.87 L 336.57,366.06 L 335.26,366.96 L 334.52,368.37 L 334.52,369.96 L 335.26,371.37 L 336.57,372.27 L 338.15,372.47 L 339.64,371.90 L 340.69,370.71 L 341.07,369.17 Z M 370.52,369.17 L 370.06,371.04 L 368.79,372.48 L 366.98,373.16 L 365.07,372.93 L 363.49,371.83 L 362.59,370.13 L 362.59,368.20 L 363.49,366.50 L 365.07,365.40 L 366.98,365.17 L 368.79,365.86 L 370.06,367.30 L 370.52,369.17 L 369.82,369.17 L 369.44,367.62 L 368.39,366.43 L 366.90,365.87 L 365.32,366.06 L 364.01,366.96 L 363.27,368.37 L 363.27,369.96 L 364.01,371.37 L 365.32,372.27 L 366.90,372.47 L 368.39,371.90 L 369.44,370.71 L 369.82,369.17 Z M 399.27,369.17 L 398.81,371.04 L 397.54,372.48 L 395.73,373.16 L 393.82,372.93 L 392.24,371.83 L 391.34,370.13 L 391.34,368.20 L 392.24,366.50 L 393.82,365.40 L 395.73,365.17 L 397.54,365.86 L 398.81,367.30 L 399.27,369.17 L 398.57,369.17 L 398.19,367.62 L 397.14,366.43 L 395.65,365.87 L 394.07,366.06 L 392.76,366.96 L 392.02,368.37 L 392.02,369.96 L 392.76,371.37 L 394.07,372.27 L 395.65,372.47 L 397.14,371.90 L 398.19,370.71 L 398.57,369.17 Z M 428.02,369.17 L 427.56,371.04 L 426.29,372.48 L 424.48,373.16 L 422.57,372.93 L 420.99,371.83 L 420.09,370.13 L 420.09,368.20 L 420.99,366.50 L 422.57,365.40 L 424.48,365.17 L 426.29,365.86 L 427.56,367.30 L 428.02,369.17 L 427.32,369.17 L 426.94,367.62 L 425.89,366.43 L 424.40,365.87 L 422.82,366.06 L 421.51,366.96 L 420.77,368.37 L 420.77,369.96 L 421.51,371.37 L 422.82,372.27 L 424.40,372.47 L 425.89,371.90 L 426.94,370.71 L 427.32,369.17 Z M 198.02,380.33 L 197.56,382.20 L 196.29,383.64 L 194.48,384.33 L 192.57,384.10 L 190.99,383.00 L 190.09,381.30 L 190.09,379.37 L 190.99,377.67 L 192.57,376.57 L 194.48,376.34 L 196.29,377.02 L 197.56,378.46 L 198.02,380.33 L 197.32,380.33 L 196.94,378.79 L 195.89,377.60 L 194.40,377.03 L 192.82,377.23 L 191.51,378.13 L 190.77,379.54 L 190.77,381.13 L 191.51,382.54 L 192.82,383.44 L 194.40,383.63 L 195.89,383.07 L 196.94,381.88 L 197.32,380.33 Z M 226.77,380.33 L 226.31,382.20 L 225.04,383.64 L 223.23,384.33 L 221.32,384.10 L 219.74,383.00 L 218.84,381.30 L 218.84,379.37 L 219.74,377.67 L 221.32,376.57 L 223.23,376.34 L 225.04,377.02 L 226.31,378.46 L 226.77,380.33 L 226.07,380.33 L 225.69,378.79 L 224.64,377.60 L 223.15,377.03 L 221.57,377.23 L 220.26,378.13 L 219.52,379.54 L 219.52,381.13 L 220.26,382.54 L 221.57,383.44 L 223.15,383.63 L 224.64,383.07 L 225.69,381.88 L 226.07,380.33 Z M 255.52,380.33 L 255.06,382.20 L 253.79,383.64 L 251.98,384.33 L 250.07,384.10 L 248.49,383.00 L 247.59,381.30 L 247.59,379.37 L 248.49,377.67 L 250.07,376.57 L 251.98,376.34 L 253.79,377.02 L 255.06,378.46 L 255.52,380.33 L 254.82,380.33 L 254.44,378.79 L 253.39,377.60 L 251.90,377.03 L 250.32,377.23 L 249.01,378.13 L 248.27,379.54 L 248.27,381.13 L 249.01,382.54 L 250.32,383.44 L 251.90,383.63 L 253.39,383.07 L 254.44,381.88 L 254.82,380.33 Z M 284.27,380.33 L 283.81,382.20 L 282.54,383.64 L 280.73,384.33 L 278.82,384.10 L 277.24,383.00 L 276.34,381.30 L 276.34,379.37 L 277.24,377.67 L 278.82,376.57 L 280.73,376.34 L 282.54,377.02 L 283.81,378.46 L 284.27,380.33 L 283.57,380.33 L 283.19,378.79 L 282.14,377.60 L 280.65,377.03 L 279.07,377.23 L 277.76,378.13 L 277.02,379.54 L 277.02,381.13 L 277.76,382.54 L 279.07,383.44 L 280.65,383.63 L 282.14,383.07 L 283.19,381.88 L 283.57,380.33 Z M 313.02,380.33 L 312.56,382.20 L 311.29,383.64 L 309.48,384.33 L 307.57,384.10 L 305.99,383.00 L 305.09,381.30 L 305.09,379.37 L 305.99,377.67 L 307.57,376.57 L 309.48,376.34 L 311.29,377.02 L 312.56,378.46 L 313.02,380.33 L 312.32,380.33 L 311.94,378.79 L 310.89,377.60 L 309.40,377.03 L 307.82,377.23 L 306.51,378.13 L 305.77,379.54 L 305.77,381.13 L 306.51,382.54 L 307.82,383.44 L 309.40,383.63 L 310.89,383.07 L 311.94,381.88 L 312.32,380.33 Z M 341.77,380.33 L 341.31,382.20 L 340.04,383.64 L 338.23,384.33 L 336.32,384.10 L 334.74,383.00 L 333.84,381.30 L 333.84,379.37 L 334.74,377.67 L 336.32,376.57 L 338.23,376.34 L 340.04,377.02 L 341.31,378.46 L 341.77,380.33 L 341.07,380.33 L 340.69,378.79 L 339.64,377.60 L 338.15,377.03 L 336.57,377.23 L 335.26,378.13 L 334.52,379.54 L 334.52,381.13 L 335.26,382.54 L 336.57,383.44 L 338.15,383.63 L 339.64,383.07 L 340.69,381.88 L 341.07,380.33 Z M 370.52,380.33 L 370.06,382.20 L 368.79,383.64 L 366.98,384.33 L 365.07,384.10 L 363.49,383.00 L 362.59,381.30 L 362.59,379.37 L 363.49,377.67 L 365.07,376.57 L 366.98,376.34 L 368.79,377.02 L 370.06,378.46 L 370.52,380.33 L 369.82,380.33 L 369.44,378.79 L 368.39,377.60 L 366.90,377.03 L 365.32,377.23 L 364.01,378.13 L 363.27,379.54 L 363.27,381.13 L 364.01,382.54 L 365.32,383.44 L 366.90,383.63 L 368.39,383.07 L 369.44,381.88 L 369.82,380.33 Z M 399.27,380.33 L 398.81,382.20 L 397.54,383.64 L 395.73,384.33 L 393.82,384.10 L 392.24,383.00 L 391.34,381.30 L 391.34,379.37 L 392.24,377.67 L 393.82,376.57 L 395.73,376.34 L 397.54,377.02 L 398.81,378.46 L 399.27,380.33 L 398.57,380.33 L 398.19,378.79 L 397.14,377.60 L 395.65,377.03 L 394.07,377.23 L 392.76,378.13 L 392.02,379.54 L 392.02,381.13 L 392.76,382.54 L 394.07,383.44 L 395.65,383.63 L 397.14,383.07 L 398.19,381.88 L 398.57,380.33 Z M 428.02,380.33 L 427.56,382.20 L 426.29,383.64 L 424.48,384.33 L 422.57,384.10 L 420.99,383.00 L 420.09,381.30 L 420.09,379.37 L 420.99,377.67 L 422.57,376.57 L 424.48,376.34 L 426.29,377.02 L 427.56,378.46 L 428.02,380.33 L 427.32,380.33 L 426.94,378.79 L 425.89,377.60 L 424.40,377.03 L 422.82,377.23 L 421.51,378.13 L 420.77,379.54 L 420.77,381.13 L 421.51,382.54 L 422.82,383.44 L 424.40,383.63 L 425.89,383.07 L 426.94,381.88 L 427.32,380.33 Z M 181.94,390.84 L 438.06,390.84 L 438.06,422.16 L 181.94,422.16 L 181.94,390.84 L 182.06,391.83 L 182.06,421.17 L 437.94,421.17 L 437.94,391.83 L 182.06,391.83 Z M 191.88,396.00 L 248.62,396.00 L 248.62,417.00 L 191.88,417.00 L 191.88,396.00 L 192.12,396.66 L 192.12,416.34 L 248.38,416.34 L 248.38,396.66 L 192.12,396.66 Z M 257.38,396.00 L 314.12,396.00 L 314.12,417.00 L 257.38,417.00 L 257.38,396.00 L 257.62,396.66 L 257.62,416.34 L 313.88,416.34 L 313.88,396.66 L 257.62,396.66 Z M 322.88,396.00 L 379.62,396.00 L 379.62,417.00 L 322.88,417.00 L 322.88,396.00 L 323.12,396.66 L 323.12,416.34 L 379.38,416.34 L 379.38,396.66 L 323.12,396.66 Z M 388.38,396.00 L 445.12,396.00 L 445.12,417.00 L 388.38,417.00 L 388.38,396.00 L 388.62,396.66 L 388.62,416.34 L 444.88,416.34 L 444.88,396.66 L 388.62,396.66 Z M 433.30,406.50 L 432.84,408.65 L 431.55,410.44 L 429.64,411.54 L 427.45,411.77 L 425.35,411.09 L 423.71,409.61 L 422.82,407.60 L 422.82,405.40 L 423.71,403.39 L 425.35,401.91 L 427.45,401.23 L 429.64,401.46 L 431.55,402.56 L 432.84,404.35 L 433.30,406.50 L 432.50,406.50 L 432.11,404.67 L 431.01,403.16 L 429.39,402.22 L 427.53,402.03 L 425.75,402.60 L 424.36,403.86 L 423.60,405.56 L 423.60,407.44 L 424.36,409.14 L 425.75,410.40 L 427.53,410.97 L 429.39,410.78 L 431.01,409.84 L 432.11,408.33 L 432.50,406.50 Z M 181.94,430.17 L 438.06,430.17 L 438.06,461.50 L 181.94,461.50 L 181.94,430.17 L 182.06,431.16 L 182.06,460.50 L 437.94,460.50 L 437.94,431.16 L 182.06,431.16 Z M 191.88,435.34 L 248.62,435.34 L 248.62,456.33 L 191.88,456.33 L 191.88,435.34 L 192.12,436.00 L 192.12,455.67 L 248.38,455.67 L 248.38,436.00 L 192.12,436.00 Z M 257.38,435.34 L 314.12,435.34 L 314.12,456.33 L 257.38,456.33 L 257.38,435.34 L 257.62,436.00 L 257.62,455.67 L 313.88,455.67 L 313.88,436.00 L 257.62,436.00 Z M 322.88,435.34 L 379.62,435.34 L 379.62,456.33 L 322.88,456.33 L 322.88,435.34 L 323.12,436.00 L 323.12,455.67 L 379.38,455.67 L 379.38,436.00 L 323.12,436.00 Z M 388.38,435.34 L 445.12,435.34 L 445.12,456.33 L 388.38,456.33 L 388.38,435.34 L 388.62,436.00 L 388.62,455.67 L 444.88,455.67 L 444.88,436.00 L 388.62,436.00 Z M 433.30,445.83 L 432.84,447.99 L 431.55,449.77 L 429.64,450.87 L 427.45,451.10 L 425.35,450.42 L 423.71,448.95 L 422.82,446.93 L 422.82,444.73 L 423.71,442.72 L 425.35,441.25 L 427.45,440.56 L 429.64,440.79 L 431.55,441.90 L 432.84,443.68 L 433.30,445.83 L 432.50,445.83 L 432.11,444.00 L 431.01,442.49 L 429.39,441.56 L 427.53,441.36 L 425.75,441.94 L 424.36,443.19 L 423.60,444.90 L 423.60,446.77 L 424.36,448.48 L 425.75,449.73 L 427.53,450.31 L 429.39,450.11 L 431.01,449.18 L 432.11,447.66 L 432.50,445.83 Z M 181.94,469.50 L 438.06,469.50 L 438.06,500.83 L 181.94,500.83 L 181.94,469.50 L 182.06,470.50 L 182.06,499.84 L 437.94,499.84 L 437.94,470.50 L 182.06,470.50 Z M 191.88,474.67 L 248.62,474.67 L 248.62,495.66 L 191.88,495.66 L 191.88,474.67 L 192.12,475.33 L 192.12,495.00 L 248.38,495.00 L 248.38,475.33 L 192.12,475.33 Z M 257.38,474.67 L 314.12,474.67 L 314.12,495.66 L 257.38,495.66 L 257.38,474.67 L 257.62,475.33 L 257.62,495.00 L 313.88,495.00 L 313.88,475.33 L 257.62,475.33 Z M 322.88,474.67 L 379.62,474.67 L 379.62,495.66 L 322.88,495.66 L 322.88,474.67 L 323.12,475.33 L 323.12,495.00 L 379.38,495.00 L 379.38,475.33 L 323.12,475.33 Z M 388.38,474.67 L 445.12,474.67 L 445.12,495.66 L 388.38,495.66 L 388.38,474.67 L 388.62,475.33 L 388.62,495.00 L 444.88,495.00 L 444.88,475.33 L 388.62,475.33 Z M 433.30,485.17 L 432.84,487.32 L 431.55,489.10 L 429.64,490.21 L 427.45,490.44 L 425.35,489.75 L 423.71,488.28 L 422.82,486.27 L 422.82,484.07 L 423.71,482.05 L 425.35,480.58 L 427.45,479.90 L 429.64,480.13 L 431.55,481.23 L 432.84,483.01 L 433.30,485.17 L 432.50,485.17 L 432.11,483.34 L 431.01,481.82 L 429.39,480.89 L 427.53,480.69 L 425.75,481.27 L 424.36,482.52 L 423.60,484.23 L 423.60,486.10 L 424.36,487.81 L 425.75,489.06 L 427.53,489.64 L 429.39,489.44 L 431.01,488.51 L 432.11,487.00 L 432.50,485.17 Z M 181.94,508.84 L 438.06,508.84 L 438.06,540.16 L 181.94,540.16 L 181.94,508.84 L 182.06,509.83 L 182.06,539.17 L 437.94,539.17 L 437.94,509.83 L 182.06,509.83 Z M 198.02,515.33 L 197.56,517.20 L 196.29,518.64 L 194.48,519.33 L 192.57,519.10 L 190.99,518.00 L 190.09,516.30 L 190.09,514.37 L 190.99,512.67 L 192.57,511.57 L 194.48,511.34 L 196.29,512.02 L 197.56,513.46 L 198.02,515.33 L 197.32,515.33 L 196.94,513.79 L 195.89,512.60 L 194.40,512.03 L 192.82,512.23 L 191.51,513.13 L 190.77,514.54 L 190.77,516.13 L 191.51,517.54 L 192.82,518.44 L 194.40,518.63 L 195.89,518.07 L 196.94,516.88 L 197.32,515.33 Z M 226.77,515.33 L 226.31,517.20 L 225.04,518.64 L 223.23,519.33 L 221.32,519.10 L 219.74,518.00 L 218.84,516.30 L 218.84,514.37 L 219.74,512.67 L 221.32,511.57 L 223.23,511.34 L 225.04,512.02 L 226.31,513.46 L 226.77,515.33 L 226.07,515.33 L 225.69,513.79 L 224.64,512.60 L 223.15,512.03 L 221.57,512.23 L 220.26,513.13 L 219.52,514.54 L 219.52,516.13 L 220.26,517.54 L 221.57,518.44 L 223.15,518.63 L 224.64,518.07 L 225.69,516.88 L 226.07,515.33 Z M 255.52,515.33 L 255.06,517.20 L 253.79,518.64 L 251.98,519.33 L 250.07,519.10 L 248.49,518.00 L 247.59,516.30 L 247.59,514.37 L 248.49,512.67 L 250.07,511.57 L 251.98,511.34 L 253.79,512.02 L 255.06,513.46 L 255.52,515.33 L 254.82,515.33 L 254.44,513.79 L 253.39,512.60 L 251.90,512.03 L 250.32,512.23 L 249.01,513.13 L 248.27,514.54 L 248.27,516.13 L 249.01,517.54 L 250.32,518.44 L 251.90,518.63 L 253.39,518.07 L 254.44,516.88 L 254.82,515.33 Z M 284.27,515.33 L 283.81,517.20 L 282.54,518.64 L 280.73,519.33 L 278.82,519.10 L 277.24,518.00 L 276.34,516.30 L 276.34,514.37 L 277.24,512.67 L 278.82,511.57 L 280.73,511.34 L 282.54,512.02 L 283.81,513.46 L 284.27,515.33 L 283.57,515.33 L 283.19,513.79 L 282.14,512.60 L 280.65,512.03 L 279.07,512.23 L 277.76,513.13 L 277.02,514.54 L 277.02,516.13 L 277.76,517.54 L 279.07,518.44 L 280.65,518.63 L 282.14,518.07 L 283.19,516.88 L 283.57,515.33 Z M 313.02,515.33 L 312.56,517.20 L 311.29,518.64 L 309.48,519.33 L 307.57,519.10 L 305.99,518.00 L 305.09,516.30 L 305.09,514.37 L 305.99,512.67 L 307.57,511.57 L 309.48,511.34 L 311.29,512.02 L 312.56,513.46 L 313.02,515.33 L 312.32,515.33 L 311.94,513.79 L 310.89,512.60 L 309.40,512.03 L 307.82,512.23 L 306.51,513.13 L 305.77,514.54 L 305.77,516.13 L 306.51,517.54 L 307.82,518.44 L 309.40,518.63 L 310.89,518.07 L 311.94,516.88 L 312.32,515.33 Z M 341.77,515.33 L 341.31,517.20 L 340.04,518.64 L 338.23,519.33 L 336.32,519.10 L 334.74,518.00 L 333.84,516.30 L 333.84,514.37 L 334.74,512.67 L 336.32,511.57 L 338.23,511.34 L 340.04,512.02 L 341.31,513.46 L 341.77,515.33 L 341.07,515.33 L 340.69,513.79 L 339.64,512.60 L 338.15,512.03 L 336.57,512.23 L 335.26,513.13 L 334.52,514.54 L 334.52,516.13 L 335.26,517.54 L 336.57,518.44 L 338.15,518.63 L 339.64,518.07 L 340.69,516.88 L 341.07,515.33 Z M 370.52,515.33 L 370.06,517.20 L 368.79,518.64 L 366.98,519.33 L 365.07,519.10 L 363.49,518.00 L 362.59,516.30 L 362.59,514.37 L 363.49,512.67 L 365.07,511.57 L 366.98,511.34 L 368.79,512.02 L 370.06,513.46 L 370.52,515.33 L 369.82,515.33 L 369.44,513.79 L 368.39,512.60 L 366.90,512.03 L 365.32,512.23 L 364.01,513.13 L 363.27,514.54 L 363.27,516.13 L 364.01,517.54 L 365.32,518.44 L 366.90,518.63 L 368.39,518.07 L 369.44,516.88 L 369.82,515.33 Z M 399.27,515.33 L 398.81,517.20 L 397.54,518.64 L 395.73,519.33 L 393.82,519.10 L 392.24,518.00 L 391.34,516.30 L 391.34,514.37 L 392.24,512.67 L 393.82,511.57 L 395.73,511.34 L 397.54,512.02 L 398.81,513.46 L 399.27,515.33 L 398.57,515.33 L 398.19,513.79 L 397.14,512.60 L 395.65,512.03 L 394.07,512.23 L 392.76,513.13 L 392.02,514.54 L 392.02,516.13 L 392.76,517.54 L 394.07,518.44 L 395.65,518.63 L 397.14,518.07 L 398.19,516.88 L 398.57,515.33 Z M 428.02,515.33 L 427.56,517.20 L 426.29,518.64 L 424.48,519.33 L 422.57,519.10 L 420.99,518.00 L 420.09,516.30 L 420.09,514.37 L 420.99,512.67 L 422.57,511.57 L 424.48,511.34 L 426.29,512.02 L 427.56,513.46 L 428.02,515.33 L 427.32,515.33 L 426.94,513.79 L 425.89,512.60 L 424.40,512.03 L 422.82,512.23 L 421.51,513.13 L 420.77,514.54 L 420.77,516.13 L 421.51,517.54 L 422.82,518.44 L 424.40,518.63 L 425.89,518.07 L 426.94,516.88 L 427.32,515.33 Z M 198.02,526.50 L 197.56,528.37 L 196.29,529.81 L 194.48,530.49 L 192.57,530.26 L 190.99,529.17 L 190.09,527.46 L 190.09,525.54 L 190.99,523.83 L 192.57,522.74 L 194.48,522.51 L 196.29,523.19 L 197.56,524.63 L 198.02,526.50 L 197.32,526.50 L 196.94,524.96 L 195.89,523.76 L 194.40,523.20 L 192.82,523.39 L 191.51,524.30 L 190.77,525.70 L 190.77,527.30 L 191.51,528.70 L 192.82,529.61 L 194.40,529.80 L 195.89,529.24 L 196.94,528.04 L 197.32,526.50 Z M 226.77,526.50 L 226.31,528.37 L 225.04,529.81 L 223.23,530.49 L 221.32,530.26 L 219.74,529.17 L 218.84,527.46 L 218.84,525.54 L 219.74,523.83 L 221.32,522.74 L 223.23,522.51 L 225.04,523.19 L 226.31,524.63 L 226.77,526.50 L 226.07,526.50 L 225.69,524.96 L 224.64,523.76 L 223.15,523.20 L 221.57,523.39 L 220.26,524.30 L 219.52,525.70 L 219.52,527.30 L 220.26,528.70 L 221.57,529.61 L 223.15,529.80 L 224.64,529.24 L 225.69,528.04 L 226.07,526.50 Z M 255.52,526.50 L 255.06,528.37 L 253.79,529.81 L 251.98,530.49 L 250.07,530.26 L 248.49,529.17 L 247.59,527.46 L 247.59,525.54 L 248.49,523.83 L 250.07,522.74 L 251.98,522.51 L 253.79,523.19 L 255.06,524.63 L 255.52,526.50 L 254.82,526.50 L 254.44,524.96 L 253.39,523.76 L 251.90,523.20 L 250.32,523.39 L 249.01,524.30 L 248.27,525.70 L 248.27,527.30 L 249.01,528.70 L 250.32,529.61 L 251.90,529.80 L 253.39,529.24 L 254.44,528.04 L 254.82,526.50 Z M 284.27,526.50 L 283.81,528.37 L 282.54,529.81 L 280.73,530.49 L 278.82,530.26 L 277.24,529.17 L 276.34,527.46 L 276.34,525.54 L 277.24,523.83 L 278.82,522.74 L 280.73,522.51 L 282.54,523.19 L 283.81,524.63 L 284.27,526.50 L 283.57,526.50 L 283.19,524.96 L 282.14,523.76 L 280.65,523.20 L 279.07,523.39 L 277.76,524.30 L 277.02,525.70 L 277.02,527.30 L 277.76,528.70 L 279.07,529.61 L 280.65,529.80 L 282.14,529.24 L 283.19,528.04 L 283.57,526.50 Z M 313.02,526.50 L 312.56,528.37 L 311.29,529.81 L 309.48,530.49 L 307.57,530.26 L 305.99,529.17 L 305.09,527.46 L 305.09,525.54 L 305.99,523.83 L 307.57,522.74 L 309.48,522.51 L 311.29,523.19 L 312.56,524.63 L 313.02,526.50 L 312.32,526.50 L 311.94,524.96 L 310.89,523.76 L 309.40,523.20 L 307.82,523.39 L 306.51,524.30 L 305.77,525.70 L 305.77,527.30 L 306.51,528.70 L 307.82,529.61 L 309.40,529.80 L 310.89,529.24 L 311.94,528.04 L 312.32,526.50 Z M 341.77,526.50 L 341.31,528.37 L 340.04,529.81 L 338.23,530.49 L 336.32,530.26 L 334.74,529.17 L 333.84,527.46 L 333.84,525.54 L 334.74,523.83 L 336.32,522.74 L 338.23,522.51 L 340.04,523.19 L 341.31,524.63 L 341.77,526.50 L 341.07,526.50 L 340.69,524.96 L 339.64,523.76 L 338.15,523.20 L 336.57,523.39 L 335.26,524.30 L 334.52,525.70 L 334.52,527.30 L 335.26,528.70 L 336.57,529.61 L 338.15,529.80 L 339.64,529.24 L 340.69,528.04 L 341.07,526.50 Z M 370.52,526.50 L 370.06,528.37 L 368.79,529.81 L 366.98,530.49 L 365.07,530.26 L 363.49,529.17 L 362.59,527.46 L 362.59,525.54 L 363.49,523.83 L 365.07,522.74 L 366.98,522.51 L 368.79,523.19 L 370.06,524.63 L 370.52,526.50 L 369.82,526.50 L 369.44,524.96 L 368.39,523.76 L 366.90,523.20 L 365.32,523.39 L 364.01,524.30 L 363.27,525.70 L 363.27,527.30 L 364.01,528.70 L 365.32,529.61 L 366.90,529.80 L 368.39,529.24 L 369.44,528.04 L 369.82,526.50 Z M 399.27,526.50 L 398.81,528.37 L 397.54,529.81 L 395.73,530.49 L 393.82,530.26 L 392.24,529.17 L 391.34,527.46 L 391.34,525.54 L 392.24,523.83 L 393.82,522.74 L 395.73,522.51 L 397.54,523.19 L 398.81,524.63 L 399.27,526.50 L 398.57,526.50 L 398.19,524.96 L 397.14,523.76 L 395.65,523.20 L 394.07,523.39 L 392.76,524.30 L 392.02,525.70 L 392.02,527.30 L 392.76,528.70 L 394.07,529.61 L 395.65,529.80 L 397.14,529.24 L 398.19,528.04 L 398.57,526.50 Z M 428.02,526.50 L 427.56,528.37 L 426.29,529.81 L 424.48,530.49 L 422.57,530.26 L 420.99,529.17 L 420.09,527.46 L 420.09,525.54 L 420.99,523.83 L 422.57,522.74 L 424.48,522.51 L 426.29,523.19 L 427.56,524.63 L 428.02,526.50 L 427.32,526.50 L 426.94,524.96 L 425.89,523.76 L 424.40,523.20 L 422.82,523.39 L 421.51,524.30 L 420.77,525.70 L 420.77,527.30 L 421.51,528.70 L 422.82,529.61 L 424.40,529.80 L 425.89,529.24 L 426.94,528.04 L 427.32,526.50 Z M 198.02,537.67 L 197.56,539.54 L 196.29,540.98 L 194.48,541.66 L 192.57,541.43 L 190.99,540.33 L 190.09,538.63 L 190.09,536.70 L 190.99,535.00 L 192.57,533.90 L 194.48,533.67 L 196.29,534.36 L 197.56,535.80 L 198.02,537.67 L 197.32,537.67 L 196.94,536.12 L 195.89,534.93 L 194.40,534.37 L 192.82,534.56 L 191.51,535.46 L 190.77,536.87 L 190.77,538.46 L 191.51,539.87 L 192.82,540.77 L 194.40,540.97 L 195.89,540.40 L 196.94,539.21 L 197.32,537.67 Z M 226.77,537.67 L 226.31,539.54 L 225.04,540.98 L 223.23,541.66 L 221.32,541.43 L 219.74,540.33 L 218.84,538.63 L 218.84,536.70 L 219.74,535.00 L 221.32,533.90 L 223.23,533.67 L 225.04,534.36 L 226.31,535.80 L 226.77,537.67 L 226.07,537.67 L 225.69,536.12 L 224.64,534.93 L 223.15,534.37 L 221.57,534.56 L 220.26,535.46 L 219.52,536.87 L 219.52,538.46 L 220.26,539.87 L 221.57,540.77 L 223.15,540.97 L 224.64,540.40 L 225.69,539.21 L 226.07,537.67 Z M 255.52,537.67 L 255.06,539.54 L 253.79,540.98 L 251.98,541.66 L 250.07,541.43 L 248.49,540.33 L 247.59,538.63 L 247.59,536.70 L 248.49,535.00 L 250.07,533.90 L 251.98,533.67 L 253.79,534.36 L 255.06,535.80 L 255.52,537.67 L 254.82,537.67 L 254.44,536.12 L 253.39,534.93 L 251.90,534.37 L 250.32,534.56 L 249.01,535.46 L 248.27,536.87 L 248.27,538.46 L 249.01,539.87 L 250.32,540.77 L 251.90,540.97 L 253.39,540.40 L 254.44,539.21 L 254.82,537.67 Z M 284.27,537.67 L 283.81,539.54 L 282.54,540.98 L 280.73,541.66 L 278.82,541.43 L 277.24,540.33 L 276.34,538.63 L 276.34,536.70 L 277.24,535.00 L 278.82,533.90 L 280.73,533.67 L 282.54,534.36 L 283.81,535.80 L 284.27,537.67 L 283.57,537.67 L 283.19,536.12 L 282.14,534.93 L 280.65,534.37 L 279.07,534.56 L 277.76,535.46 L 277.02,536.87 L 277.02,538.46 L 277.76,539.87 L 279.07,540.77 L 280.65,540.97 L 282.14,540.40 L 283.19,539.21 L 283.57,537.67 Z M 313.02,537.67 L 312.56,539.54 L 311.29,540.98 L 309.48,541.66 L 307.57,541.43 L 305.99,540.33 L 305.09,538.63 L 305.09,536.70 L 305.99,535.00 L 307.57,533.90 L 309.48,533.67 L 311.29,534.36 L 312.56,535.80 L 313.02,537.67 L 312.32,537.67 L 311.94,536.12 L 310.89,534.93 L 309.40,534.37 L 307.82,534.56 L 306.51,535.46 L 305.77,536.87 L 305.77,538.46 L 306.51,539.87 L 307.82,540.77 L 309.40,540.97 L 310.89,540.40 L 311.94,539.21 L 312.32,537.67 Z M 341.77,537.67 L 341.31,539.54 L 340.04,540.98 L 338.23,541.66 L 336.32,541.43 L 334.74,540.33 L 333.84,538.63 L 333.84,536.70 L 334.74,535.00 L 336.32,533.90 L 338.23,533.67 L 340.04,534.36 L 341.31,535.80 L 341.77,537.67 L 341.07,537.67 L 340.69,536.12 L 339.64,534.93 L 338.15,534.37 L 336.57,534.56 L 335.26,535.46 L 334.52,536.87 L 334.52,538.46 L 335.26,539.87 L 336.57,540.77 L 338.15,540.97 L 339.64,540.40 L 340.69,539.21 L 341.07,537.67 Z M 370.52,537.67 L 370.06,539.54 L 368.79,540.98 L 366.98,541.66 L 365.07,541.43 L 363.49,540.33 L 362.59,538.63 L 362.59,536.70 L 363.49,535.00 L 365.07,533.90 L 366.98,533.67 L 368.79,534.36 L 370.06,535.80 L 370.52,537.67 L 369.82,537.67 L 369.44,536.12 L 368.39,534.93 L 366.90,534.37 L 365.32,534.56 L 364.01,535.46 L 363.27,536.87 L 363.27,538.46 L 364.01,539.87 L 365.32,540.77 L 366.90,540.97 L 368.39,540.40 L 369.44,539.21 L 369.82,537.67 Z M 399.27,537.67 L 398.81,539.54 L 397.54,540.98 L 395.73,541.66 L 393.82,541.43 L 392.24,540.33 L 391.34,538.63 L 391.34,536.70 L 392.24,535.00 L 393.82,533.90 L 395.73,533.67 L 397.54,534.36 L 398.81,535.80 L 399.27,537.67 L 398.57,537.67 L 398.19,536.12 L 397.14,534.93 L 395.65,534.37 L 394.07,534.56 L 392.76,535.46 L 392.02,536.87 L 392.02,538.46 L 392.76,539.87 L 394.07,540.77 L 395.65,540.97 L 397.14,540.40 L 398.19,539.21 L 398.57,537.67 Z M 428.02,537.67 L 427.56,539.54 L 426.29,540.98 L 424.48,541.66 L 422.57,541.43 L 420.99,540.33 L 420.09,538.63 L 420.09,536.70 L 420.99,535.00 L 422.57,533.90 L 424.48,533.67 L 426.29,534.36 L 427.56,535.80 L 428.02,537.67 L 427.32,537.67 L 426.94,536.12 L 425.89,534.93 L 424.40,534.37 L 422.82,534.56 L 421.51,535.46 L 420.77,536.87 L 420.77,538.46 L 421.51,539.87 L 422.82,540.77 L 424.40,540.97 L 425.89,540.40 L 426.94,539.21 L 427.32,537.67 Z M 181.94,548.17 L 438.06,548.17 L 438.06,579.50 L 181.94,579.50 L 181.94,548.17 L 182.06,549.16 L 182.06,578.50 L 437.94,578.50 L 437.94,549.16 L 182.06,549.16 Z M 191.88,553.34 L 248.62,553.34 L 248.62,574.33 L 191.88,574.33 L 191.88,553.34 L 192.12,554.00 L 192.12,573.67 L 248.38,573.67 L 248.38,554.00 L 192.12,554.00 Z M 257.38,553.34 L 314.12,553.34 L 314.12,574.33 L 257.38,574.33 L 257.38,553.34 L 257.62,554.00 L 257.62,573.67 L 313.88,573.67 L 313.88,554.00 L 257.62,554.00 Z M 322.88,553.34 L 379.62,553.34 L 379.62,574.33 L 322.88,574.33 L 322.88,553.34 L 323.12,554.00 L 323.12,573.67 L 379.38,573.67 L 379.38,554.00 L 323.12,554.00 Z M 388.38,553.34 L 445.12,553.34 L 445.12,574.33 L 388.38,574.33 L 388.38,553.34 L 388.62,554.00 L 388.62,573.67 L 444.88,573.67 L 444.88,554.00 L 388.62,554.00 Z M 433.30,563.83 L 432.84,565.99 L 431.55,567.77 L 429.64,568.87 L 427.45,569.10 L 425.35,568.42 L 423.71,566.95 L 422.82,564.93 L 422.82,562.73 L 423.71,560.72 L 425.35,559.25 L 427.45,558.56 L 429.64,558.79 L 431.55,559.90 L 432.84,561.68 L 433.30,563.83 L 432.50,563.83 L 432.11,562.00 L 431.01,560.49 L 429.39,559.56 L 427.53,559.36 L 425.75,559.94 L 424.36,561.19 L 423.60,562.90 L 423.60,564.77 L 424.36,566.48 L 425.75,567.73 L 427.53,568.31 L 429.39,568.11 L 431.01,567.18 L 432.11,565.66 L 432.50,563.83 Z M 181.94,587.50 L 438.06,587.50 L 438.06,618.83 L 181.94,618.83 L 181.94,587.50 L 182.06,588.50 L 182.06,617.84 L 437.94,617.84 L 437.94,588.50 L 182.06,588.50 Z M 191.88,592.67 L 248.62,592.67 L 248.62,613.66 L 191.88,613.66 L 191.88,592.67 L 192.12,593.33 L 192.12,613.00 L 248.38,613.00 L 248.38,593.33 L 192.12,593.33 Z M 257.38,592.67 L 314.12,592.67 L 314.12,613.66 L 257.38,613.66 L 257.38,592.67 L 257.62,593.33 L 257.62,613.00 L 313.88,613.00 L 313.88,593.33 L 257.62,593.33 Z M 322.88,592.67 L 379.62,592.67 L 379.62,613.66 L 322.88,613.66 L 322.88,592.67 L 323.12,593.33 L 323.12,613.00 L 379.38,613.00 L 379.38,593.33 L 323.12,593.33 Z M 388.38,592.67 L 445.12,592.67 L 445.12,613.66 L 388.38,613.66 L 388.38,592.67 L 388.62,593.33 L 388.62,613.00 L 444.88,613.00 L 444.88,593.33 L 388.62,593.33 Z M 433.30,603.17 L 432.84,605.32 L 431.55,607.10 L 429.64,608.21 L 427.45,608.44 L 425.35,607.75 L 423.71,606.28 L 422.82,604.27 L 422.82,602.07 L 423.71,600.05 L 425.35,598.58 L 427.45,597.90 L 429.64,598.13 L 431.55,599.23 L 432.84,601.01 L 433.30,603.17 L 432.50,603.17 L 432.11,601.34 L 431.01,599.82 L 429.39,598.89 L 427.53,598.69 L 425.75,599.27 L 424.36,600.52 L 423.60,602.23 L 423.60,604.10 L 424.36,605.81 L 425.75,607.06 L 427.53,607.64 L 429.39,607.44 L 431.01,606.51 L 432.11,605.00 L 432.50,603.17 Z M 181.94,626.84 L 438.06,626.84 L 438.06,658.16 L 181.94,658.16 L 181.94,626.84 L 182.06,627.83 L 182.06,657.17 L 437.94,657.17 L 437.94,627.83 L 182.06,627.83 Z M 191.88,632.00 L 248.62,632.00 L 248.62,653.00 L 191.88,653.00 L 191.88,632.00 L 192.12,632.66 L 192.12,652.34 L 248.38,652.34 L 248.38,632.66 L 192.12,632.66 Z M 257.38,632.00 L 314.12,632.00 L 314.12,653.00 L 257.38,653.00 L 257.38,632.00 L 257.62,632.66 L 257.62,652.34 L 313.88,652.34 L 313.88,632.66 L 257.62,632.66 Z M 322.88,632.00 L 379.62,632.00 L 379.62,653.00 L 322.88,653.00 L 322.88,632.00 L 323.12,632.66 L 323.12,652.34 L 379.38,652.34 L 379.38,632.66 L 323.12,632.66 Z M 388.38,632.00 L 445.12,632.00 L 445.12,653.00 L 388.38,653.00 L 388.38,632.00 L 388.62,632.66 L 388.62,652.34 L 444.88,652.34 L 444.88,632.66 L 388.62,632.66 Z M 433.30,642.50 L 432.84,644.65 L 431.55,646.44 L 429.64,647.54 L 427.45,647.77 L 425.35,647.09 L 423.71,645.61 L 422.82,643.60 L 422.82,641.40 L 423.71,639.39 L 425.35,637.91 L 427.45,637.23 L 429.64,637.46 L 431.55,638.56 L 432.84,640.35 L 433.30,642.50 L 432.50,642.50 L 432.11,640.67 L 431.01,639.16 L 429.39,638.22 L 427.53,638.03 L 425.75,638.60 L 424.36,639.86 L 423.60,641.56 L 423.60,643.44 L 424.36,645.14 L 425.75,646.40 L 427.53,646.97 L 429.39,646.78 L 431.01,645.84 L 432.11,644.33 L 432.50,642.50 Z M 181.94,666.17 L 438.06,666.17 L 438.06,697.50 L 181.94,697.50 L 181.94,666.17 L 182.06,667.16 L 182.06,696.50 L 437.94,696.50 L 437.94,667.16 L 182.06,667.16 Z M 198.02,672.67 L 197.56,674.54 L 196.29,675.98 L 194.48,676.66 L 192.57,676.43 L 190.99,675.33 L 190.09,673.63 L 190.09,671.70 L 190.99,670.00 L 192.57,668.90 L 194.48,668.67 L 196.29,669.36 L 197.56,670.80 L 198.02,672.67 L 197.32,672.67 L 196.94,671.12 L 195.89,669.93 L 194.40,669.37 L 192.82,669.56 L 191.51,670.46 L 190.77,671.87 L 190.77,673.46 L 191.51,674.87 L 192.82,675.77 L 194.40,675.97 L 195.89,675.40 L 196.94,674.21 L 197.32,672.67 Z M 226.77,672.67 L 226.31,674.54 L 225.04,675.98 L 223.23,676.66 L 221.32,676.43 L 219.74,675.33 L 218.84,673.63 L 218.84,671.70 L 219.74,670.00 L 221.32,668.90 L 223.23,668.67 L 225.04,669.36 L 226.31,670.80 L 226.77,672.67 L 226.07,672.67 L 225.69,671.12 L 224.64,669.93 L 223.15,669.37 L 221.57,669.56 L 220.26,670.46 L 219.52,671.87 L 219.52,673.46 L 220.26,674.87 L 221.57,675.77 L 223.15,675.97 L 224.64,675.40 L 225.69,674.21 L 226.07,672.67 Z M 255.52,672.67 L 255.06,674.54 L 253.79,675.98 L 251.98,676.66 L 250.07,676.43 L 248.49,675.33 L 247.59,673.63 L 247.59,671.70 L 248.49,670.00 L 250.07,668.90 L 251.98,668.67 L 253.79,669.36 L 255.06,670.80 L 255.52,672.67 L 254.82,672.67 L 254.44,671.12 L 253.39,669.93 L 251.90,669.37 L 250.32,669.56 L 249.01,670.46 L 248.27,671.87 L 248.27,673.46 L 249.01,674.87 L 250.32,675.77 L 251.90,675.97 L 253.39,675.40 L 254.44,674.21 L 254.82,672.67 Z M 284.27,672.67 L 283.81,674.54 L 282.54,675.98 L 280.73,676.66 L 278.82,676.43 L 277.24,675.33 L 276.34,673.63 L 276.34,671.70 L 277.24,670.00 L 278.82,668.90 L 280.73,668.67 L 282.54,669.36 L 283.81,670.80 L 284.27,672.67 L 283.57,672.67 L 283.19,671.12 L 282.14,669.93 L 280.65,669.37 L 279.07,669.56 L 277.76,670.46 L 277.02,671.87 L 277.02,673.46 L 277.76,674.87 L 279.07,675.77 L 280.65,675.97 L 282.14,675.40 L 283.19,674.21 L 283.57,672.67 Z M 313.02,672.67 L 312.56,674.54 L 311.29,675.98 L 309.48,676.66 L 307.57,676.43 L 305.99,675.33 L 305.09,673.63 L 305.09,671.70 L 305.99,670.00 L 307.57,668.90 L 309.48,668.67 L 311.29,669.36 L 312.56,670.80 L 313.02,672.67 L 312.32,672.67 L 311.94,671.12 L 310.89,669.93 L 309.40,669.37 L 307.82,669.56 L 306.51,670.46 L 305.77,671.87 L 305.77,673.46 L 306.51,674.87 L 307.82,675.77 L 309.40,675.97 L 310.89,675.40 L 311.94,674.21 L 312.32,672.67 Z M 341.77,672.67 L 341.31,674.54 L 340.04,675.98 L 338.23,676.66 L 336.32,676.43 L 334.74,675.33 L 333.84,673.63 L 333.84,671.70 L 334.74,670.00 L 336.32,668.90 L 338.23,668.67 L 340.04,669.36 L 341.31,670.80 L 341.77,672.67 L 341.07,672.67 L 340.69,671.12 L 339.64,669.93 L 338.15,669.37 L 336.57,669.56 L 335.26,670.46 L 334.52,671.87 L 334.52,673.46 L 335.26,674.87 L 336.57,675.77 L 338.15,675.97 L 339.64,675.40 L 340.69,674.21 L 341.07,672.67 Z M 370.52,672.67 L 370.06,674.54 L 368.79,675.98 L 366.98,676.66 L 365.07,676.43 L 363.49,675.33 L 362.59,673.63 L 362.59,671.70 L 363.49,670.00 L 365.07,668.90 L 366.98,668.67 L 368.79,669.36 L 370.06,670.80 L 370.52,672.67 L 369.82,672.67 L 369.44,671.12 L 368.39,669.93 L 366.90,669.37 L 365.32,669.56 L 364.01,670.46 L 363.27,671.87 L 363.27,673.46 L 364.01,674.87 L 365.32,675.77 L 366.90,675.97 L 368.39,675.40 L 369.44,674.21 L 369.82,672.67 Z M 399.27,672.67 L 398.81,674.54 L 397.54,675.98 L 395.73,676.66 L 393.82,676.43 L 392.24,675.33 L 391.34,673.63 L 391.34,671.70 L 392.24,670.00 L 393.82,668.90 L 395.73,668.67 L 397.54,669.36 L 398.81,670.80 L 399.27,672.67 L 398.57,672.67 L 398.19,671.12 L 397.14,669.93 L 395.65,669.37 L 394.07,669.56 L 392.76,670.46 L 392.02,671.87 L 392.02,673.46 L 392.76,674.87 L 394.07,675.77 L 395.65,675.97 L 397.14,675.40 L 398.19,674.21 L 398.57,672.67 Z M 428.02,672.67 L 427.56,674.54 L 426.29,675.98 L 424.48,676.66 L 422.57,676.43 L 420.99,675.33 L 420.09,673.63 L 420.09,671.70 L 420.99,670.00 L 422.57,668.90 L 424.48,668.67 L 426.29,669.36 L 427.56,670.80 L 428.02,672.67 L 427.32,672.67 L 426.94,671.12 L 425.89,669.93 L 424.40,669.37 L 422.82,669.56 L 421.51,670.46 L 420.77,671.87 L 420.77,673.46 L 421.51,674.87 L 422.82,675.77 L 424.40,675.97 L 425.89,675.40 L 426.94,674.21 L 427.32,672.67 Z M 198.02,683.83 L 197.56,685.70 L 196.29,687.14 L 194.48,687.83 L 192.57,687.60 L 190.99,686.50 L 190.09,684.80 L 190.09,682.87 L 190.99,681.17 L 192.57,680.07 L 194.48,679.84 L 196.29,680.52 L 197.56,681.96 L 198.02,683.83 L 197.32,683.83 L 196.94,682.29 L 195.89,681.10 L 194.40,680.53 L 192.82,680.73 L 191.51,681.63 L 190.77,683.04 L 190.77,684.63 L 191.51,686.04 L 192.82,686.94 L 194.40,687.13 L 195.89,686.57 L 196.94,685.38 L 197.32,683.83 Z M 226.77,683.83 L 226.31,685.70 L 225.04,687.14 L 223.23,687.83 L 221.32,687.60 L 219.74,686.50 L 218.84,684.80 L 218.84,682.87 L 219.74,681.17 L 221.32,680.07 L 223.23,679.84 L 225.04,680.52 L 226.31,681.96 L 226.77,683.83 L 226.07,683.83 L 225.69,682.29 L 224.64,681.10 L 223.15,680.53 L 221.57,680.73 L 220.26,681.63 L 219.52,683.04 L 219.52,684.63 L 220.26,686.04 L 221.57,686.94 L 223.15,687.13 L 224.64,686.57 L 225.69,685.38 L 226.07,683.83 Z M 255.52,683.83 L 255.06,685.70 L 253.79,687.14 L 251.98,687.83 L 250.07,687.60 L 248.49,686.50 L 247.59,684.80 L 247.59,682.87 L 248.49,681.17 L 250.07,680.07 L 251.98,679.84 L 253.79,680.52 L 255.06,681.96 L 255.52,683.83 L 254.82,683.83 L 254.44,682.29 L 253.39,681.10 L 251.90,680.53 L 250.32,680.73 L 249.01,681.63 L 248.27,683.04 L 248.27,684.63 L 249.01,686.04 L 250.32,686.94 L 251.90,687.13 L 253.39,686.57 L 254.44,685.38 L 254.82,683.83 Z M 284.27,683.83 L 283.81,685.70 L 282.54,687.14 L 280.73,687.83 L 278.82,687.60 L 277.24,686.50 L 276.34,684.80 L 276.34,682.87 L 277.24,681.17 L 278.82,680.07 L 280.73,679.84 L 282.54,680.52 L 283.81,681.96 L 284.27,683.83 L 283.57,683.83 L 283.19,682.29 L 282.14,681.10 L 280.65,680.53 L 279.07,680.73 L 277.76,681.63 L 277.02,683.04 L 277.02,684.63 L 277.76,686.04 L 279.07,686.94 L 280.65,687.13 L 282.14,686.57 L 283.19,685.38 L 283.57,683.83 Z M 313.02,683.83 L 312.56,685.70 L 311.29,687.14 L 309.48,687.83 L 307.57,687.60 L 305.99,686.50 L 305.09,684.80 L 305.09,682.87 L 305.99,681.17 L 307.57,680.07 L 309.48,679.84 L 311.29,680.52 L 312.56,681.96 L 313.02,683.83 L 312.32,683.83 L 311.94,682.29 L 310.89,681.10 L 309.40,680.53 L 307.82,680.73 L 306.51,681.63 L 305.77,683.04 L 305.77,684.63 L 306.51,686.04 L 307.82,686.94 L 309.40,687.13 L 310.89,686.57 L 311.94,685.38 L 312.32,683.83 Z M 341.77,683.83 L 341.31,685.70 L 340.04,687.14 L 338.23,687.83 L 336.32,687.60 L 334.74,686.50 L 333.84,684.80 L 333.84,682.87 L 334.74,681.17 L 336.32,680.07 L 338.23,679.84 L 340.04,680.52 L 341.31,681.96 L 341.77,683.83 L 341.07,683.83 L 340.69,682.29 L 339.64,681.10 L 338.15,680.53 L 336.57,680.73 L 335.26,681.63 L 334.52,683.04 L 334.52,684.63 L 335.26,686.04 L 336.57,686.94 L 338.15,687.13 L 339.64,686.57 L 340.69,685.38 L 341.07,683.83 Z M 370.52,683.83 L 370.06,685.70 L 368.79,687.14 L 366.98,687.83 L 365.07,687.60 L 363.49,686.50 L 362.59,684.80 L 362.59,682.87 L 363.49,681.17 L 365.07,680.07 L 366.98,679.84 L 368.79,680.52 L 370.06,681.96 L 370.52,683.83 L 369.82,683.83 L 369.44,682.29 L 368.39,681.10 L 366.90,680.53 L 365.32,680.73 L 364.01,681.63 L 363.27,683.04 L 363.27,684.63 L 364.01,686.04 L 365.32,686.94 L 366.90,687.13 L 368.39,686.57 L 369.44,685.38 L 369.82,683.83 Z M 399.27,683.83 L 398.81,685.70 L 397.54,687.14 L 395.73,687.83 L 393.82,687.60 L 392.24,686.50 L 391.34,684.80 L 391.34,682.87 L 392.24,681.17 L 393.82,680.07 L 395.73,679.84 L 397.54,680.52 L 398.81,681.96 L 399.27,683.83 L 398.57,683.83 L 398.19,682.29 L 397.14,681.10 L 395.65,680.53 L 394.07,680.73 L 392.76,681.63 L 392.02,683.04 L 392.02,684.63 L 392.76,686.04 L 394.07,686.94 L 395.65,687.13 L 397.14,686.57 L 398.19,685.38 L 398.57,683.83 Z M 428.02,683.83 L 427.56,685.70 L 426.29,687.14 L 424.48,687.83 L 422.57,687.60 L 420.99,686.50 L 420.09,684.80 L 420.09,682.87 L 420.99,681.17 L 422.57,680.07 L 424.48,679.84 L 426.29,680.52 L 427.56,681.96 L 428.02,683.83 L 427.32,683.83 L 426.94,682.29 L 425.89,681.10 L 424.40,680.53 L 422.82,680.73 L 421.51,681.63 L 420.77,683.04 L 420.77,684.63 L 421.51,686.04 L 422.82,686.94 L 424.40,687.13 L 425.89,686.57 L 426.94,685.38 L 427.32,683.83 Z M 198.02,695.00 L 197.56,696.87 L 196.29,698.31 L 194.48,698.99 L 192.57,698.76 L 190.99,697.67 L 190.09,695.96 L 190.09,694.04 L 190.99,692.33 L 192.57,691.24 L 194.48,691.01 L 196.29,691.69 L 197.56,693.13 L 198.02,695.00 L 197.32,695.00 L 196.94,693.46 L 195.89,692.26 L 194.40,691.70 L 192.82,691.89 L 191.51,692.80 L 190.77,694.20 L 190.77,695.80 L 191.51,697.20 L 192.82,698.11 L 194.40,698.30 L 195.89,697.74 L 196.94,696.54 L 197.32,695.00 Z M 226.77,695.00 L 226.31,696.87 L 225.04,698.31 L 223.23,698.99 L 221.32,698.76 L 219.74,697.67 L 218.84,695.96 L 218.84,694.04 L 219.74,692.33 L 221.32,691.24 L 223.23,691.01 L 225.04,691.69 L 226.31,693.13 L 226.77,695.00 L 226.07,695.00 L 225.69,693.46 L 224.64,692.26 L 223.15,691.70 L 221.57,691.89 L 220.26,692.80 L 219.52,694.20 L 219.52,695.80 L 220.26,697.20 L 221.57,698.11 L 223.15,698.30 L 224.64,697.74 L 225.69,696.54 L 226.07,695.00 Z M 255.52,695.00 L 255.06,696.87 L 253.79,698.31 L 251.98,698.99 L 250.07,698.76 L 248.49,697.67 L 247.59,695.96 L 247.59,694.04 L 248.49,692.33 L 250.07,691.24 L 251.98,691.01 L 253.79,691.69 L 255.06,693.13 L 255.52,695.00 L 254.82,695.00 L 254.44,693.46 L 253.39,692.26 L 251.90,691.70 L 250.32,691.89 L 249.01,692.80 L 248.27,694.20 L 248.27,695.80 L 249.01,697.20 L 250.32,698.11 L 251.90,698.30 L 253.39,697.74 L 254.44,696.54 L 254.82,695.00 Z M 284.27,695.00 L 283.81,696.87 L 282.54,698.31 L 280.73,698.99 L 278.82,698.76 L 277.24,697.67 L 276.34,695.96 L 276.34,694.04 L 277.24,692.33 L 278.82,691.24 L 280.73,691.01 L 282.54,691.69 L 283.81,693.13 L 284.27,695.00 L 283.57,695.00 L 283.19,693.46 L 282.14,692.26 L 280.65,691.70 L 279.07,691.89 L 277.76,692.80 L 277.02,694.20 L 277.02,695.80 L 277.76,697.20 L 279.07,698.11 L 280.65,698.30 L 282.14,697.74 L 283.19,696.54 L 283.57,695.00 Z M 313.02,695.00 L 312.56,696.87 L 311.29,698.31 L 309.48,698.99 L 307.57,698.76 L 305.99,697.67 L 305.09,695.96 L 305.09,694.04 L 305.99,692.33 L 307.57,691.24 L 309.48,691.01 L 311.29,691.69 L 312.56,693.13 L 313.02,695.00 L 312.32,695.00 L 311.94,693.46 L 310.89,692.26 L 309.40,691.70 L 307.82,691.89 L 306.51,692.80 L 305.77,694.20 L 305.77,695.80 L 306.51,697.20 L 307.82,698.11 L 309.40,698.30 L 310.89,697.74 L 311.94,696.54 L 312.32,695.00 Z M 341.77,695.00 L 341.31,696.87 L 340.04,698.31 L 338.23,698.99 L 336.32,698.76 L 334.74,697.67 L 333.84,695.96 L 333.84,694.04 L 334.74,692.33 L 336.32,691.24 L 338.23,691.01 L 340.04,691.69 L 341.31,693.13 L 341.77,695.00 L 341.07,695.00 L 340.69,693.46 L 339.64,692.26 L 338.15,691.70 L 336.57,691.89 L 335.26,692.80 L 334.52,694.20 L 334.52,695.80 L 335.26,697.20 L 336.57,698.11 L 338.15,698.30 L 339.64,697.74 L 340.69,696.54 L 341.07,695.00 Z M 370.52,695.00 L 370.06,696.87 L 368.79,698.31 L 366.98,698.99 L 365.07,698.76 L 363.49,697.67 L 362.59,695.96 L 362.59,694.04 L 363.49,692.33 L 365.07,691.24 L 366.98,691.01 L 368.79,691.69 L 370.06,693.13 L 370.52,695.00 L 369.82,695.00 L 369.44,693.46 L 368.39,692.26 L 366.90,691.70 L 365.32,691.89 L 364.01,692.80 L 363.27,694.20 L 363.27,695.80 L 364.01,697.20 L 365.32,698.11 L 366.90,698.30 L 368.39,697.74 L 369.44,696.54 L 369.82,695.00 Z M 399.27,695.00 L 398.81,696.87 L 397.54,698.31 L 395.73,698.99 L 393.82,698.76 L 392.24,697.67 L 391.34,695.96 L 391.34,694.04 L 392.24,692.33 L 393.82,691.24 L 395.73,691.01 L 397.54,691.69 L 398.81,693.13 L 399.27,695.00 L 398.57,695.00 L 398.19,693.46 L 397.14,692.26 L 395.65,691.70 L 394.07,691.89 L 392.76,692.80 L 392.02,694.20 L 392.02,695.80 L 392.76,697.20 L 394.07,698.11 L 395.65,698.30 L 397.14,697.74 L 398.19,696.54 L 398.57,695.00 Z M 428.02,695.00 L 427.56,696.87 L 426.29,698.31 L 424.48,698.99 L 422.57,698.76 L 420.99,697.67 L 420.09,695.96 L 420.09,694.04 L 420.99,692.33 L 422.57,691.24 L 424.48,691.01 L 426.29,691.69 L 427.56,693.13 L 428.02,695.00 L 427.32,695.00 L 426.94,693.46 L 425.89,692.26 L 424.40,691.70 L 422.82,691.89 L 421.51,692.80 L 420.77,694.20 L 420.77,695.80 L 421.51,697.20 L 422.82,698.11 L 424.40,698.30 L 425.89,697.74 L 426.94,696.54 L 427.32,695.00 Z M 181.94,705.50 L 438.06,705.50 L 438.06,736.83 L 181.94,736.83 L 181.94,705.50 L 182.06,706.50 L 182.06,735.84 L 437.94,735.84 L 437.94,706.50 L 182.06,706.50 Z M 191.88,710.67 L 248.62,710.67 L 248.62,731.66 L 191.88,731.66 L 191.88,710.67 L 192.12,711.33 L 192.12,731.00 L 248.38,731.00 L 248.38,711.33 L 192.12,711.33 Z M 257.38,710.67 L 314.12,710.67 L 314.12,731.66 L 257.38,731.66 L 257.38,710.67 L 257.62,711.33 L 257.62,731.00 L 313.88,731.00 L 313.88,711.33 L 257.62,711.33 Z M 322.88,710.67 L 379.62,710.67 L 379.62,731.66 L 322.88,731.66 L 322.88,710.67 L 323.12,711.33 L 323.12,731.00 L 379.38,731.00 L 379.38,711.33 L 323.12,711.33 Z M 388.38,710.67 L 445.12,710.67 L 445.12,731.66 L 388.38,731.66 L 388.38,710.67 L 388.62,711.33 L 388.62,731.00 L 444.88,731.00 L 444.88,711.33 L 388.62,711.33 Z M 433.30,721.17 L 432.84,723.32 L 431.55,725.10 L 429.64,726.21 L 427.45,726.44 L 425.35,725.75 L 423.71,724.28 L 422.82,722.27 L 422.82,720.07 L 423.71,718.05 L 425.35,716.58 L 427.45,715.90 L 429.64,716.13 L 431.55,717.23 L 432.84,719.01 L 433.30,721.17 L 432.50,721.17 L 432.11,719.34 L 431.01,717.82 L 429.39,716.89 L 427.53,716.69 L 425.75,717.27 L 424.36,718.52 L 423.60,720.23 L 423.60,722.10 L 424.36,723.81 L 425.75,725.06 L 427.53,725.64 L 429.39,725.44 L 431.01,724.51 L 432.11,723.00 L 432.50,721.17 Z M 181.94,744.84 L 438.06,744.84 L 438.06,776.16 L 181.94,776.16 L 181.94,744.84 L 182.06,745.83 L 182.06,775.17 L 437.94,775.17 L 437.94,745.83 L 182.06,745.83 Z M 191.88,750.00 L 248.62,750.00 L 248.62,771.00 L 191.88,771.00 L 191.88,750.00 L 192.12,750.66 L 192.12,770.34 L 248.38,770.34 L 248.38,750.66 L 192.12,750.66 Z M 257.38,750.00 L 314.12,750.00 L 314.12,771.00 L 257.38,771.00 L 257.38,750.00 L 257.62,750.66 L 257.62,770.34 L 313.88,770.34 L 313.88,750.66 L 257.62,750.66 Z M 322.88,750.00 L 379.62,750.00 L 379.62,771.00 L 322.88,771.00 L 322.88,750.00 L 323.12,750.66 L 323.12,770.34 L 379.38,770.34 L 379.38,750.66 L 323.12,750.66 Z M 388.38,750.00 L 445.12,750.00 L 445.12,771.00 L 388.38,771.00 L 388.38,750.00 L 388.62,750.66 L 388.62,770.34 L 444.88,770.34 L 444.88,750.66 L 388.62,750.66 Z M 433.30,760.50 L 432.84,762.65 L 431.55,764.44 L 429.64,765.54 L 427.45,765.77 L 425.35,765.09 L 423.71,763.61 L 422.82,761.60 L 422.82,759.40 L 423.71,757.39 L 425.35,755.91 L 427.45,755.23 L 429.64,755.46 L 431.55,756.56 L 432.84,758.35 L 433.30,760.50 L 432.50,760.50 L 432.11,758.67 L 431.01,757.16 L 429.39,756.22 L 427.53,756.03 L 425.75,756.60 L 424.36,757.86 L 423.60,759.56 L 423.60,761.44 L 424.36,763.14 L 425.75,764.40 L 427.53,764.97 L 429.39,764.78 L 431.01,763.84 L 432.11,762.33 L 432.50,760.50 Z M 181.94,784.17 L 438.06,784.17 L 438.06,815.50 L 181.94,815.50 L 181.94,784.17 L 182.06,785.16 L 182.06,814.50 L 437.94,814.50 L 437.94,785.16 L 182.06,785.16 Z M 191.88,789.34 L 248.62,789.34 L 248.62,810.33 L 191.88,810.33 L 191.88,789.34 L 192.12,790.00 L 192.12,809.67 L 248.38,809.67 L 248.38,790.00 L 192.12,790.00 Z M 257.38,789.34 L 314.12,789.34 L 314.12,810.33 L 257.38,810.33 L 257.38,789.34 L 257.62,790.00 L 257.62,809.67 L 313.88,809.67 L 313.88,790.00 L 257.62,790.00 Z M 322.88,789.34 L 379.62,789.34 L 379.62,810.33 L 322.88,810.33 L 322.88,789.34 L 323.12,790.00 L 323.12,809.67 L 379.38,809.67 L 379.38,790.00 L 323.12,790.00 Z M 388.38,789.34 L 445.12,789.34 L 445.12,810.33 L 388.38,810.33 L 388.38,789.34 L 388.62,790.00 L 388.62,809.67 L 444.88,809.67 L 444.88,790.00 L 388.62,790.00 Z M 433.30,799.83 L 432.84,801.99 L 431.55,803.77 L 429.64,804.87 L 427.45,805.10 L 425.35,804.42 L 423.71,802.95 L 422.82,800.93 L 422.82,798.73 L 423.71,796.72 L 425.35,795.25 L 427.45,794.56 L 429.64,794.79 L 431.55,795.90 L 432.84,797.68 L 433.30,799.83 L 432.50,799.83 L 432.11,798.00 L 431.01,796.49 L 429.39,795.56 L 427.53,795.36 L 425.75,795.94 L 424.36,797.19 L 423.60,798.90 L 423.60,800.77 L 424.36,802.48 L 425.75,803.73 L 427.53,804.31 L 429.39,804.11 L 431.01,803.18 L 432.11,801.66 L 432.50,799.83 Z M 203.54,864.00 L 203.13,867.77 L 201.92,871.36 L 199.96,874.61 L 197.35,877.37 L 194.21,879.49 L 190.69,880.90 L 186.95,881.51 L 183.16,881.31 L 179.51,880.29 L 176.16,878.51 L 173.27,876.06 L 170.97,873.04 L 169.38,869.60 L 168.57,865.90 L 168.57,862.10 L 169.38,858.40 L 170.97,854.96 L 173.27,851.94 L 176.16,849.49 L 179.51,847.71 L 183.16,846.69 L 186.95,846.49 L 190.69,847.10 L 194.21,848.51 L 197.35,850.63 L 199.96,853.39 L 201.92,856.64 L 203.13,860.23 L 203.54,864.00 L 202.14,864.00 L 201.76,860.53 L 200.65,857.22 L 198.85,854.23 L 196.45,851.70 L 193.56,849.74 L 190.32,848.45 L 186.87,847.89 L 183.39,848.08 L 180.03,849.01 L 176.94,850.64 L 174.28,852.90 L 172.17,855.68 L 170.71,858.85 L 169.96,862.26 L 169.96,865.74 L 170.71,869.15 L 172.17,872.32 L 174.28,875.10 L 176.94,877.36 L 180.03,878.99 L 183.39,879.92 L 186.87,880.11 L 190.32,879.55 L 193.56,878.26 L 196.45,876.30 L 198.85,873.77 L 200.65,870.78 L 201.76,867.47 L 202.14,864.00 Z M 192.62,864.00 L 192.18,866.39 L 190.89,868.46 L 188.95,869.93 L 186.61,870.59 L 184.19,870.37 L 182.01,869.28 L 180.37,867.49 L 179.49,865.22 L 179.49,862.78 L 180.37,860.51 L 182.01,858.72 L 184.19,857.63 L 186.61,857.41 L 188.95,858.07 L 190.89,859.54 L 192.18,861.61 L 192.62,864.00 L 191.62,864.00 L 191.24,861.97 L 190.16,860.21 L 188.51,858.97 L 186.52,858.40 L 184.46,858.59 L 182.61,859.51 L 181.22,861.04 L 180.47,862.97 L 180.47,865.03 L 181.22,866.96 L 182.61,868.49 L 184.46,869.41 L 186.52,869.60 L 188.51,869.03 L 190.16,867.79 L 191.24,866.03 L 191.62,864.00 Z M 451.54,864.00 L 451.13,867.77 L 449.92,871.36 L 447.96,874.61 L 445.35,877.37 L 442.21,879.49 L 438.69,880.90 L 434.95,881.51 L 431.16,881.31 L 427.51,880.29 L 424.16,878.51 L 421.27,876.06 L 418.97,873.04 L 417.38,869.60 L 416.57,865.90 L 416.57,862.10 L 417.38,858.40 L 418.97,854.96 L 421.27,851.94 L 424.16,849.49 L 427.51,847.71 L 431.16,846.69 L 434.95,846.49 L 438.69,847.10 L 442.21,848.51 L 445.35,850.63 L 447.96,853.39 L 449.92,856.64 L 451.13,860.23 L 451.54,864.00 L 450.14,864.00 L 449.76,860.53 L 448.65,857.22 L 446.85,854.23 L 444.45,851.70 L 441.56,849.74 L 438.32,848.45 L 434.87,847.89 L 431.39,848.08 L 428.03,849.01 L 424.94,850.64 L 422.28,852.90 L 420.17,855.68 L 418.71,858.85 L 417.96,862.26 L 417.96,865.74 L 418.71,869.15 L 420.17,872.32 L 422.28,875.10 L 424.94,877.36 L 428.03,878.99 L 431.39,879.92 L 434.87,880.11 L 438.32,879.55 L 441.56,878.26 L 444.45,876.30 L 446.85,873.77 L 448.65,870.78 L 449.76,867.47 L 450.14,864.00 Z M 440.62,864.00 L 440.18,866.39 L 438.89,868.46 L 436.95,869.93 L 434.61,870.59 L 432.19,870.37 L 430.01,869.28 L 428.37,867.49 L 427.49,865.22 L 427.49,862.78 L 428.37,860.51 L 430.01,858.72 L 432.19,857.63 L 434.61,857.41 L 436.95,858.07 L 438.89,859.54 L 440.18,861.61 L 440.62,864.00 L 439.62,864.00 L 439.24,861.97 L 438.16,860.21 L 436.51,858.97 L 434.52,858.40 L 432.46,858.59 L 430.61,859.51 L 429.22,861.04 L 428.47,862.97 L 428.47,865.03 L 429.22,866.96 L 430.61,868.49 L 432.46,869.41 L 434.52,869.60 L 436.51,869.03 L 438.16,867.79 L 439.24,866.03 L 439.62,864.00 Z M 60.00,899.40 L 86.00,899.40 L 86.00,900.60 L 60.00,900.60 Z M 96.00,899.40 L 100.00,899.40 L 100.00,900.60 L 96.00,900.60 Z M 110.00,899.40 L 136.00,899.40 L 136.00,900.60 L 110.00,900.60 Z M 146.00,899.40 L 150.00,899.40 L 150.00,900.60 L 146.00,900.60 Z M 160.00,899.40 L 186.00,899.40 L 186.00,900.60 L 160.00,900.60 Z M 196.00,899.40 L 200.00,899.40 L 200.00,900.60 L 196.00,900.60 Z M 210.00,899.40 L 236.00,899.40 L 236.00,900.60 L 210.00,900.60 Z M 246.00,899.40 L 250.00,899.40 L 250.00,900.60 L 246.00,900.60 Z M 260.00,899.40 L 286.00,899.40 L 286.00,900.60 L 260.00,900.60 Z M 296.00,899.40 L 300.00,899.40 L 300.00,900.60 L 296.00,900.60 Z M 310.00,899.40 L 336.00,899.40 L 336.00,900.60 L 310.00,900.60 Z M 346.00,899.40 L 350.00,899.40 L 350.00,900.60 L 346.00,900.60 Z M 360.00,899.40 L 386.00,899.40 L 386.00,900.60 L 360.00,900.60 Z M 396.00,899.40 L 400.00,899.40 L 400.00,900.60 L 396.00,900.60 Z M 410.00,899.40 L 436.00,899.40 L 436.00,900.60 L 410.00,900.60 Z M 446.00,899.40 L 450.00,899.40 L 450.00,900.60 L 446.00,900.60 Z M 460.00,899.40 L 486.00,899.40 L 486.00,900.60 L 460.00,900.60 Z M 496.00,899.40 L 500.00,899.40 L 500.00,900.60 L 496.00,900.60 Z M 510.00,899.40 L 536.00,899.40 L 536.00,900.60 L 510.00,900.60 Z M 546.00,899.40 L 550.00,899.40 L 550.00,900.60 L 546.00,900.60 Z" fill="url(#patronos)" fill-rule="nonzero" stroke="none"/>
</svg>
