<svg xmlns="http://www.w3.org/2000/svg" viewBox="0 0 1080 1120" width="1080" height="1120">
  <title>Gas-generator rocket engine, longitudinal section</title>
  <defs>
    <linearGradient id="patronos" gradientUnits="userSpaceOnUse"
        x1="149.4" y1="149.4" x2="872.3" y2="872.3">
      <stop offset="0%" stop-color="#ff9700"/>
      <stop offset="33%" stop-color="#ff6253"/>
      <stop offset="67%" stop-color="#fc4696"/>
      <stop offset="100%" stop-color="#c964e2"/>
    </linearGradient>
  </defs>
  <path d="M 261.63,984.86 L 261.90,982.67 L 262.18,980.49 L 262.45,978.30 L 262.72,976.11 L 263.00,973.92 L 263.28,971.73 L 263.55,969.54 L 263.83,967.35 L 264.11,965.16 L 264.39,962.97 L 264.67,960.79 L 264.95,958.60 L 265.23,956.41 L 265.51,954.22 L 265.80,952.03 L 266.08,949.84 L 266.36,947.65 L 266.65,945.46 L 266.93,943.27 L 267.22,941.08 L 267.51,938.89 L 267.79,936.71 L 268.08,934.52 L 268.37,932.33 L 268.66,930.14 L 268.95,927.95 L 269.24,925.76 L 269.54,923.57 L 269.83,921.38 L 270.12,919.19 L 270.42,917.00 L 270.71,914.82 L 271.01,912.63 L 271.31,910.44 L 271.60,908.25 L 271.90,906.06 L 272.20,903.87 L 272.50,901.68 L 272.81,899.49 L 273.11,897.30 L 273.41,895.11 L 273.71,892.92 L 274.02,890.74 L 274.33,888.55 L 274.63,886.36 L 274.94,884.17 L 275.25,881.98 L 275.56,879.79 L 275.87,877.60 L 276.18,875.41 L 276.49,873.22 L 276.81,871.03 L 277.12,868.84 L 277.44,866.65 L 277.75,864.47 L 278.07,862.28 L 278.39,860.09 L 278.71,857.90 L 279.03,855.71 L 279.35,853.52 L 279.68,851.33 L 280.00,849.14 L 280.33,846.95 L 280.65,844.76 L 280.98,842.57 L 281.31,840.38 L 281.64,838.20 L 281.97,836.01 L 282.30,833.82 L 282.64,831.63 L 282.97,829.44 L 283.31,827.25 L 283.64,825.06 L 283.98,822.87 L 284.32,820.68 L 284.66,818.49 L 285.01,816.30 L 285.35,814.11 L 285.69,811.92 L 286.04,809.73 L 286.39,807.55 L 286.74,805.36 L 287.09,803.17 L 287.44,800.98 L 287.80,798.79 L 288.15,796.60 L 288.51,794.41 L 288.87,792.22 L 289.23,790.03 L 289.59,787.84 L 289.95,785.65 L 290.31,783.46 L 290.68,781.27 L 291.05,779.08 L 291.42,776.89 L 291.79,774.70 L 292.16,772.51 L 292.54,770.32 L 292.91,768.14 L 293.29,765.95 L 293.67,763.76 L 294.05,761.57 L 294.44,759.38 L 294.82,757.19 L 295.21,755.00 L 295.60,752.81 L 295.99,750.62 L 296.39,748.43 L 296.78,746.24 L 297.18,744.05 L 297.58,741.86 L 297.99,739.67 L 298.39,737.48 L 298.80,735.29 L 299.21,733.10 L 299.62,730.91 L 300.04,728.72 L 300.45,726.53 L 300.87,724.34 L 301.30,722.15 L 301.72,719.96 L 302.15,717.77 L 302.58,715.58 L 303.01,713.39 L 303.45,711.20 L 303.89,709.01 L 304.33,706.82 L 304.78,704.63 L 305.23,702.44 L 305.68,700.25 L 306.14,698.06 L 306.59,695.87 L 307.06,693.68 L 307.52,691.49 L 307.99,689.30 L 308.47,687.11 L 308.94,684.92 L 309.43,682.73 L 309.91,680.54 L 310.40,678.35 L 310.89,676.15 L 311.39,673.96 L 311.90,671.77 L 312.40,669.58 L 312.92,667.39 L 313.44,665.20 L 313.96,663.01 L 314.49,660.82 L 315.02,658.63 L 315.56,656.44 L 316.11,654.24 L 316.66,652.05 L 317.22,649.86 L 317.79,647.67 L 318.36,645.48 L 318.94,643.28 L 319.53,641.09 L 320.12,638.90 L 320.73,636.71 L 321.34,634.52 L 321.96,632.32 L 322.59,630.13 L 323.23,627.94 L 323.89,625.74 L 324.55,623.55 L 325.23,621.35 L 325.91,619.16 L 326.62,616.97 L 327.33,614.77 L 328.06,612.58 L 328.81,610.38 L 329.58,608.18 L 330.36,605.99 L 331.17,603.79 L 332.00,601.59 L 332.86,599.39 L 333.74,597.19 L 334.66,594.99 L 335.61,592.79 L 336.60,590.58 L 337.63,588.37 L 338.73,586.16 L 339.88,583.95 L 341.12,581.73 L 342.46,579.51 L 343.94,577.28 L 345.61,575.03 L 347.60,572.75 L 350.27,570.42 L 354.39,568.39 L 354.04,567.00 L 353.94,564.84 L 353.79,562.68 L 353.58,560.52 L 353.31,558.36 L 352.99,556.19 L 352.62,554.03 L 352.20,551.87 L 351.73,549.70 L 351.21,547.53 L 350.64,545.37 L 350.03,543.20 L 349.38,541.03 L 348.69,538.85 L 347.96,536.68 L 347.20,534.50 L 346.42,532.33 L 345.60,530.15 L 344.76,527.97 L 343.91,525.79 L 343.03,523.60 L 342.15,521.42 L 341.25,519.23 L 340.35,517.04 L 339.45,514.86 L 338.55,512.66 L 337.65,510.47 L 336.77,508.28 L 335.90,506.08 L 335.04,503.89 L 334.21,501.69 L 333.39,499.49 L 332.61,497.29 L 331.86,495.09 L 331.14,492.88 L 330.45,490.68 L 329.81,488.47 L 329.20,486.26 L 328.65,484.05 L 328.14,481.84 L 327.67,479.63 L 327.26,477.42 L 326.91,475.20 L 326.60,472.99 L 326.36,470.77 L 326.17,468.55 L 326.03,466.34 L 325.96,464.12 L 325.94,461.91 L 325.94,459.72 L 325.94,457.53 L 325.94,455.34 L 325.94,453.15 L 325.94,450.97 L 325.94,448.78 L 325.94,446.59 L 325.94,444.40 L 325.94,442.21 L 325.94,440.02 L 325.94,437.83 L 325.94,435.64 L 325.94,433.46 L 325.94,431.27 L 325.94,429.08 L 325.94,426.89 L 325.94,424.70 L 325.94,422.51 L 325.94,420.32 L 325.94,418.14 L 325.94,415.95 L 325.94,413.76 L 325.94,411.57 L 325.94,409.38 L 325.94,407.19 L 325.94,405.00 L 325.94,402.81 L 325.94,400.63 L 325.94,398.44 L 325.94,396.25 L 325.94,394.06 L 325.94,391.87 L 325.94,389.68 L 325.94,387.49 L 325.94,385.31 L 325.94,383.12 L 325.94,380.93 L 325.94,378.74 L 325.94,376.55 L 325.94,374.36 L 325.94,372.17 L 325.94,369.98 L 325.94,367.80 L 325.94,365.61 L 325.94,363.42 L 325.94,361.23 L 325.94,359.04 L 325.94,356.85 L 325.94,354.66 L 325.94,352.48 L 325.94,350.29 L 325.94,348.10 L 325.94,345.91 L 325.94,343.72 L 325.94,341.53 L 325.94,339.34 L 325.94,337.15 L 325.94,334.97 L 325.94,332.78 L 325.94,330.59 L 325.94,328.40 L 328.14,328.40 L 328.14,330.59 L 328.14,332.78 L 328.14,334.97 L 328.14,337.15 L 328.14,339.34 L 328.14,341.53 L 328.14,343.72 L 328.14,345.91 L 328.14,348.10 L 328.14,350.29 L 328.14,352.48 L 328.14,354.66 L 328.14,356.85 L 328.14,359.04 L 328.14,361.23 L 328.14,363.42 L 328.14,365.61 L 328.14,367.80 L 328.14,369.98 L 328.14,372.17 L 328.14,374.36 L 328.14,376.55 L 328.14,378.74 L 328.14,380.93 L 328.14,383.12 L 328.14,385.31 L 328.14,387.49 L 328.14,389.68 L 328.14,391.87 L 328.14,394.06 L 328.14,396.25 L 328.14,398.44 L 328.14,400.63 L 328.14,402.81 L 328.14,405.00 L 328.14,407.19 L 328.14,409.38 L 328.14,411.57 L 328.14,413.76 L 328.14,415.95 L 328.14,418.14 L 328.14,420.32 L 328.14,422.51 L 328.14,424.70 L 328.14,426.89 L 328.14,429.08 L 328.14,431.27 L 328.14,433.46 L 328.14,435.64 L 328.14,437.83 L 328.14,440.02 L 328.14,442.21 L 328.14,444.40 L 328.14,446.59 L 328.14,448.78 L 328.14,450.97 L 328.14,453.15 L 328.14,455.34 L 328.14,457.53 L 328.14,459.72 L 328.14,461.90 L 328.16,464.07 L 328.23,466.23 L 328.36,468.39 L 328.55,470.56 L 328.79,472.72 L 329.08,474.88 L 329.43,477.04 L 329.83,479.21 L 330.28,481.37 L 330.79,483.54 L 331.33,485.70 L 331.92,487.87 L 332.56,490.04 L 333.23,492.22 L 333.94,494.39 L 334.69,496.56 L 335.46,498.74 L 336.27,500.92 L 337.09,503.10 L 337.94,505.28 L 338.81,507.46 L 339.69,509.65 L 340.58,511.83 L 341.48,514.02 L 342.38,516.21 L 343.29,518.40 L 344.18,520.59 L 345.07,522.78 L 345.95,524.97 L 346.81,527.17 L 347.66,529.37 L 348.48,531.57 L 349.28,533.77 L 350.04,535.97 L 350.78,538.17 L 351.48,540.38 L 352.14,542.58 L 352.76,544.79 L 353.34,547.00 L 353.87,549.21 L 354.35,551.42 L 354.79,553.63 L 355.17,555.85 L 355.49,558.06 L 355.76,560.28 L 355.98,562.50 L 356.14,564.71 L 356.24,566.93 L 355.97,569.92 L 351.46,572.27 L 349.16,574.31 L 347.32,576.41 L 345.74,578.54 L 344.32,580.68 L 343.03,582.84 L 341.82,585.00 L 340.69,587.16 L 339.62,589.33 L 338.60,591.50 L 337.62,593.67 L 336.68,595.85 L 335.78,598.02 L 334.90,600.20 L 334.06,602.38 L 333.23,604.56 L 332.43,606.74 L 331.65,608.92 L 330.89,611.10 L 330.15,613.28 L 329.42,615.46 L 328.71,617.64 L 328.01,619.82 L 327.33,622.01 L 326.65,624.19 L 325.99,626.37 L 325.34,628.56 L 324.71,630.74 L 324.08,632.93 L 323.46,635.11 L 322.85,637.30 L 322.24,639.48 L 321.65,641.67 L 321.06,643.85 L 320.49,646.04 L 319.92,648.22 L 319.35,650.41 L 318.79,652.59 L 318.24,654.78 L 317.70,656.96 L 317.16,659.15 L 316.63,661.34 L 316.10,663.52 L 315.58,665.71 L 315.06,667.90 L 314.55,670.08 L 314.04,672.27 L 313.54,674.45 L 313.04,676.64 L 312.55,678.83 L 312.06,681.01 L 311.57,683.20 L 311.09,685.39 L 310.62,687.57 L 310.14,689.76 L 309.67,691.95 L 309.21,694.14 L 308.75,696.32 L 308.29,698.51 L 307.83,700.70 L 307.38,702.88 L 306.93,705.07 L 306.49,707.26 L 306.05,709.45 L 305.61,711.63 L 305.17,713.82 L 304.74,716.01 L 304.31,718.19 L 303.88,720.38 L 303.46,722.57 L 303.03,724.76 L 302.62,726.94 L 302.20,729.13 L 301.78,731.32 L 301.37,733.51 L 300.96,735.69 L 300.56,737.88 L 300.15,740.07 L 299.75,742.26 L 299.35,744.44 L 298.95,746.63 L 298.55,748.82 L 298.16,751.01 L 297.77,753.19 L 297.38,755.38 L 296.99,757.57 L 296.60,759.76 L 296.22,761.95 L 295.84,764.13 L 295.46,766.32 L 295.08,768.51 L 294.70,770.70 L 294.33,772.88 L 293.96,775.07 L 293.59,777.26 L 293.22,779.45 L 292.85,781.64 L 292.48,783.82 L 292.12,786.01 L 291.76,788.20 L 291.40,790.39 L 291.04,792.58 L 290.68,794.76 L 290.32,796.95 L 289.97,799.14 L 289.61,801.33 L 289.26,803.52 L 288.91,805.70 L 288.56,807.89 L 288.21,810.08 L 287.87,812.27 L 287.52,814.45 L 287.18,816.64 L 286.84,818.83 L 286.50,821.02 L 286.16,823.21 L 285.82,825.40 L 285.48,827.58 L 285.15,829.77 L 284.81,831.96 L 284.48,834.15 L 284.15,836.34 L 283.81,838.52 L 283.48,840.71 L 283.16,842.90 L 282.83,845.09 L 282.50,847.28 L 282.18,849.46 L 281.85,851.65 L 281.53,853.84 L 281.21,856.03 L 280.89,858.22 L 280.57,860.40 L 280.25,862.59 L 279.93,864.78 L 279.62,866.97 L 279.30,869.16 L 278.99,871.35 L 278.67,873.53 L 278.36,875.72 L 278.05,877.91 L 277.74,880.10 L 277.43,882.29 L 277.12,884.47 L 276.81,886.66 L 276.50,888.85 L 276.20,891.04 L 275.89,893.23 L 275.59,895.42 L 275.29,897.60 L 274.98,899.79 L 274.68,901.98 L 274.38,904.17 L 274.08,906.36 L 273.78,908.55 L 273.49,910.73 L 273.19,912.92 L 272.89,915.11 L 272.60,917.30 L 272.30,919.49 L 272.01,921.67 L 271.72,923.86 L 271.42,926.05 L 271.13,928.24 L 270.84,930.43 L 270.55,932.62 L 270.26,934.80 L 269.97,936.99 L 269.69,939.18 L 269.40,941.37 L 269.11,943.56 L 268.83,945.75 L 268.54,947.93 L 268.26,950.12 L 267.98,952.31 L 267.69,954.50 L 267.41,956.69 L 267.13,958.88 L 266.85,961.06 L 266.57,963.25 L 266.29,965.44 L 266.01,967.63 L 265.74,969.82 L 265.46,972.01 L 265.18,974.19 L 264.91,976.38 L 264.63,978.57 L 264.36,980.76 L 264.08,982.95 L 263.81,985.14 Z M 253.99,984.91 L 254.26,982.72 L 254.53,980.54 L 254.81,978.35 L 255.08,976.16 L 255.36,973.97 L 255.63,971.78 L 255.91,969.59 L 256.19,967.40 L 256.47,965.21 L 256.75,963.02 L 257.03,960.84 L 257.31,958.65 L 257.59,956.46 L 257.87,954.27 L 258.15,952.08 L 258.44,949.89 L 258.72,947.70 L 259.00,945.51 L 259.29,943.32 L 259.58,941.14 L 259.86,938.95 L 260.15,936.76 L 260.44,934.57 L 260.73,932.38 L 261.02,930.19 L 261.31,928.00 L 261.60,925.81 L 261.89,923.62 L 262.19,921.44 L 262.48,919.25 L 262.77,917.06 L 263.07,914.87 L 263.37,912.68 L 263.66,910.49 L 263.96,908.30 L 264.26,906.11 L 264.56,903.92 L 264.86,901.74 L 265.16,899.55 L 265.46,897.36 L 265.77,895.17 L 266.07,892.98 L 266.38,890.79 L 266.68,888.60 L 266.99,886.41 L 267.30,884.22 L 267.61,882.03 L 267.92,879.85 L 268.23,877.66 L 268.54,875.47 L 268.85,873.28 L 269.16,871.09 L 269.48,868.90 L 269.79,866.71 L 270.11,864.52 L 270.43,862.33 L 270.75,860.14 L 271.07,857.96 L 271.39,855.77 L 271.71,853.58 L 272.03,851.39 L 272.36,849.20 L 272.68,847.01 L 273.01,844.82 L 273.34,842.63 L 273.66,840.44 L 273.99,838.25 L 274.33,836.07 L 274.66,833.88 L 274.99,831.69 L 275.33,829.50 L 275.66,827.31 L 276.00,825.12 L 276.34,822.93 L 276.68,820.74 L 277.02,818.55 L 277.36,816.36 L 277.70,814.18 L 278.05,811.99 L 278.40,809.80 L 278.74,807.61 L 279.09,805.42 L 279.44,803.23 L 279.80,801.04 L 280.15,798.85 L 280.51,796.66 L 280.86,794.47 L 281.22,792.28 L 281.58,790.09 L 281.94,787.91 L 282.30,785.72 L 282.67,783.53 L 283.03,781.34 L 283.40,779.15 L 283.77,776.96 L 284.14,774.77 L 284.52,772.58 L 284.89,770.39 L 285.27,768.20 L 285.65,766.01 L 286.03,763.82 L 286.41,761.64 L 286.79,759.45 L 287.18,757.26 L 287.57,755.07 L 287.96,752.88 L 288.35,750.69 L 288.74,748.50 L 289.14,746.31 L 289.54,744.12 L 289.94,741.93 L 290.34,739.74 L 290.75,737.55 L 291.15,735.36 L 291.56,733.17 L 291.98,730.98 L 292.39,728.80 L 292.81,726.61 L 293.23,724.42 L 293.65,722.23 L 294.07,720.04 L 294.50,717.85 L 294.93,715.66 L 295.37,713.47 L 295.80,711.28 L 296.24,709.09 L 296.69,706.90 L 297.13,704.71 L 297.58,702.52 L 298.03,700.33 L 298.49,698.14 L 298.95,695.95 L 299.41,693.76 L 299.87,691.57 L 300.34,689.38 L 300.82,687.19 L 301.29,685.00 L 301.78,682.81 L 302.26,680.62 L 302.75,678.43 L 303.24,676.24 L 303.74,674.05 L 304.25,671.86 L 304.75,669.67 L 305.27,667.48 L 305.79,665.29 L 306.31,663.10 L 306.84,660.91 L 307.37,658.72 L 307.91,656.53 L 308.46,654.34 L 309.01,652.15 L 309.57,649.96 L 310.13,647.77 L 310.71,645.58 L 311.29,643.39 L 311.87,641.20 L 312.47,639.01 L 313.07,636.81 L 313.68,634.62 L 314.31,632.43 L 314.94,630.24 L 315.58,628.05 L 316.23,625.86 L 316.89,623.67 L 317.57,621.47 L 318.26,619.28 L 318.96,617.09 L 319.67,614.90 L 320.40,612.70 L 321.15,610.51 L 321.92,608.32 L 322.70,606.12 L 323.51,603.93 L 324.34,601.73 L 325.19,599.54 L 326.07,597.34 L 326.98,595.14 L 327.93,592.95 L 328.92,590.75 L 329.96,588.55 L 331.04,586.35 L 332.20,584.14 L 333.43,581.93 L 334.76,579.72 L 336.23,577.51 L 337.88,575.28 L 339.85,573.03 L 342.45,570.75 L 346.64,568.66 L 346.40,566.99 L 346.30,564.82 L 346.15,562.65 L 345.94,560.48 L 345.67,558.30 L 345.35,556.13 L 344.98,553.96 L 344.55,551.79 L 344.08,549.61 L 343.55,547.44 L 342.98,545.26 L 342.37,543.08 L 341.72,540.91 L 341.03,538.73 L 340.30,536.55 L 339.54,534.37 L 338.75,532.19 L 337.94,530.01 L 337.10,527.82 L 336.24,525.64 L 335.36,523.45 L 334.48,521.27 L 333.58,519.08 L 332.68,516.89 L 331.78,514.70 L 330.88,512.51 L 329.98,510.32 L 329.10,508.13 L 328.23,505.94 L 327.37,503.74 L 326.54,501.55 L 325.73,499.35 L 324.95,497.16 L 324.20,494.96 L 323.48,492.76 L 322.80,490.56 L 322.15,488.36 L 321.55,486.16 L 321.00,483.96 L 320.49,481.76 L 320.03,479.55 L 319.62,477.35 L 319.26,475.14 L 318.96,472.94 L 318.71,470.73 L 318.52,468.53 L 318.39,466.32 L 318.32,464.11 L 318.30,461.91 L 318.30,459.72 L 318.30,457.53 L 318.30,455.34 L 318.30,453.15 L 318.30,450.97 L 318.30,448.78 L 318.30,446.59 L 318.30,444.40 L 318.30,442.21 L 318.30,440.02 L 318.30,437.83 L 318.30,435.64 L 318.30,433.46 L 318.30,431.27 L 318.30,429.08 L 318.30,426.89 L 318.30,424.70 L 318.30,422.51 L 318.30,420.32 L 318.30,418.14 L 318.30,415.95 L 318.30,413.76 L 318.30,411.57 L 318.30,409.38 L 318.30,407.19 L 318.30,405.00 L 318.30,402.81 L 318.30,400.63 L 318.30,398.44 L 318.30,396.25 L 318.30,394.06 L 318.30,391.87 L 318.30,389.68 L 318.30,387.49 L 318.30,385.31 L 318.30,383.12 L 318.30,380.93 L 318.30,378.74 L 318.30,376.55 L 318.30,374.36 L 318.30,372.17 L 318.30,369.98 L 318.30,367.80 L 318.30,365.61 L 318.30,363.42 L 318.30,361.23 L 318.30,359.04 L 318.30,356.85 L 318.30,354.66 L 318.30,352.48 L 318.30,350.29 L 318.30,348.10 L 318.30,345.91 L 318.30,343.72 L 318.30,341.53 L 318.30,339.34 L 318.30,337.15 L 318.30,334.97 L 318.30,332.78 L 318.30,330.59 L 318.30,328.40 L 319.70,328.40 L 319.70,330.59 L 319.70,332.78 L 319.70,334.97 L 319.70,337.15 L 319.70,339.34 L 319.70,341.53 L 319.70,343.72 L 319.70,345.91 L 319.70,348.10 L 319.70,350.29 L 319.70,352.48 L 319.70,354.66 L 319.70,356.85 L 319.70,359.04 L 319.70,361.23 L 319.70,363.42 L 319.70,365.61 L 319.70,367.80 L 319.70,369.98 L 319.70,372.17 L 319.70,374.36 L 319.70,376.55 L 319.70,378.74 L 319.70,380.93 L 319.70,383.12 L 319.70,385.31 L 319.70,387.49 L 319.70,389.68 L 319.70,391.87 L 319.70,394.06 L 319.70,396.25 L 319.70,398.44 L 319.70,400.63 L 319.70,402.81 L 319.70,405.00 L 319.70,407.19 L 319.70,409.38 L 319.70,411.57 L 319.70,413.76 L 319.70,415.95 L 319.70,418.14 L 319.70,420.32 L 319.70,422.51 L 319.70,424.70 L 319.70,426.89 L 319.70,429.08 L 319.70,431.27 L 319.70,433.46 L 319.70,435.64 L 319.70,437.83 L 319.70,440.02 L 319.70,442.21 L 319.70,444.40 L 319.70,446.59 L 319.70,448.78 L 319.70,450.97 L 319.70,453.15 L 319.70,455.34 L 319.70,457.53 L 319.70,459.72 L 319.70,461.91 L 319.72,464.08 L 319.79,466.25 L 319.92,468.42 L 320.11,470.59 L 320.35,472.77 L 320.65,474.94 L 321.00,477.11 L 321.40,479.28 L 321.85,481.46 L 322.36,483.63 L 322.91,485.81 L 323.50,487.98 L 324.14,490.16 L 324.81,492.34 L 325.52,494.52 L 326.27,496.70 L 327.05,498.88 L 327.85,501.06 L 328.68,503.24 L 329.53,505.43 L 330.40,507.61 L 331.28,509.80 L 332.17,511.98 L 333.07,514.17 L 333.98,516.36 L 334.88,518.55 L 335.77,520.74 L 336.66,522.93 L 337.54,525.12 L 338.40,527.32 L 339.24,529.51 L 340.07,531.70 L 340.86,533.90 L 341.63,536.10 L 342.36,538.30 L 343.06,540.49 L 343.72,542.69 L 344.34,544.89 L 344.91,547.10 L 345.44,549.30 L 345.92,551.50 L 346.35,553.71 L 346.73,555.91 L 347.06,558.12 L 347.33,560.32 L 347.54,562.53 L 347.70,564.74 L 347.80,566.94 L 347.64,569.64 L 343.21,571.93 L 340.83,574.03 L 338.97,576.16 L 337.37,578.31 L 335.94,580.47 L 334.64,582.64 L 333.43,584.81 L 332.29,586.98 L 331.22,589.16 L 330.19,591.33 L 329.21,593.51 L 328.27,595.69 L 327.37,597.87 L 326.49,600.05 L 325.64,602.23 L 324.82,604.42 L 324.02,606.60 L 323.24,608.78 L 322.47,610.97 L 321.73,613.15 L 321.00,615.33 L 320.29,617.52 L 319.59,619.70 L 318.90,621.89 L 318.23,624.07 L 317.57,626.26 L 316.92,628.45 L 316.28,630.63 L 315.65,632.82 L 315.03,635.00 L 314.42,637.19 L 313.82,639.38 L 313.22,641.56 L 312.64,643.75 L 312.06,645.93 L 311.49,648.12 L 310.92,650.31 L 310.37,652.49 L 309.81,654.68 L 309.27,656.87 L 308.73,659.06 L 308.20,661.24 L 307.67,663.43 L 307.15,665.62 L 306.63,667.80 L 306.12,669.99 L 305.61,672.18 L 305.11,674.37 L 304.61,676.55 L 304.12,678.74 L 303.63,680.93 L 303.14,683.11 L 302.66,685.30 L 302.19,687.49 L 301.71,689.68 L 301.24,691.86 L 300.78,694.05 L 300.32,696.24 L 299.86,698.43 L 299.40,700.62 L 298.95,702.80 L 298.50,704.99 L 298.06,707.18 L 297.62,709.37 L 297.18,711.55 L 296.74,713.74 L 296.31,715.93 L 295.88,718.12 L 295.45,720.31 L 295.02,722.49 L 294.60,724.68 L 294.18,726.87 L 293.77,729.06 L 293.35,731.24 L 292.94,733.43 L 292.53,735.62 L 292.12,737.81 L 291.72,740.00 L 291.31,742.18 L 290.91,744.37 L 290.52,746.56 L 290.12,748.75 L 289.73,750.94 L 289.33,753.12 L 288.94,755.31 L 288.56,757.50 L 288.17,759.69 L 287.79,761.88 L 287.41,764.06 L 287.03,766.25 L 286.65,768.44 L 286.27,770.63 L 285.90,772.82 L 285.52,775.01 L 285.15,777.19 L 284.78,779.38 L 284.42,781.57 L 284.05,783.76 L 283.68,785.95 L 283.32,788.13 L 282.96,790.32 L 282.60,792.51 L 282.24,794.70 L 281.89,796.89 L 281.53,799.08 L 281.18,801.26 L 280.83,803.45 L 280.48,805.64 L 280.13,807.83 L 279.78,810.02 L 279.43,812.20 L 279.09,814.39 L 278.74,816.58 L 278.40,818.77 L 278.06,820.96 L 277.72,823.15 L 277.38,825.33 L 277.05,827.52 L 276.71,829.71 L 276.38,831.90 L 276.04,834.09 L 275.71,836.28 L 275.38,838.46 L 275.05,840.65 L 274.72,842.84 L 274.39,845.03 L 274.07,847.22 L 273.74,849.41 L 273.42,851.59 L 273.09,853.78 L 272.77,855.97 L 272.45,858.16 L 272.13,860.35 L 271.81,862.54 L 271.50,864.72 L 271.18,866.91 L 270.86,869.10 L 270.55,871.29 L 270.24,873.48 L 269.92,875.67 L 269.61,877.85 L 269.30,880.04 L 268.99,882.23 L 268.68,884.42 L 268.38,886.61 L 268.07,888.80 L 267.76,890.98 L 267.46,893.17 L 267.15,895.36 L 266.85,897.55 L 266.55,899.74 L 266.25,901.93 L 265.95,904.11 L 265.65,906.30 L 265.35,908.49 L 265.05,910.68 L 264.75,912.87 L 264.46,915.06 L 264.16,917.24 L 263.87,919.43 L 263.57,921.62 L 263.28,923.81 L 262.99,926.00 L 262.70,928.19 L 262.41,930.38 L 262.12,932.56 L 261.83,934.75 L 261.54,936.94 L 261.25,939.13 L 260.96,941.32 L 260.68,943.51 L 260.39,945.69 L 260.11,947.88 L 259.82,950.07 L 259.54,952.26 L 259.26,954.45 L 258.98,956.64 L 258.69,958.83 L 258.41,961.01 L 258.13,963.20 L 257.86,965.39 L 257.58,967.58 L 257.30,969.77 L 257.02,971.96 L 256.75,974.14 L 256.47,976.33 L 256.20,978.52 L 255.92,980.71 L 255.65,982.90 L 255.37,985.09 Z M 508.19,985.14 L 507.92,982.95 L 507.64,980.76 L 507.37,978.57 L 507.09,976.38 L 506.82,974.19 L 506.54,972.01 L 506.26,969.82 L 505.99,967.63 L 505.71,965.44 L 505.43,963.25 L 505.15,961.06 L 504.87,958.88 L 504.59,956.69 L 504.31,954.50 L 504.02,952.31 L 503.74,950.12 L 503.46,947.93 L 503.17,945.75 L 502.89,943.56 L 502.60,941.37 L 502.31,939.18 L 502.03,936.99 L 501.74,934.80 L 501.45,932.62 L 501.16,930.43 L 500.87,928.24 L 500.58,926.05 L 500.28,923.86 L 499.99,921.67 L 499.70,919.49 L 499.40,917.30 L 499.11,915.11 L 498.81,912.92 L 498.51,910.73 L 498.22,908.55 L 497.92,906.36 L 497.62,904.17 L 497.32,901.98 L 497.02,899.79 L 496.71,897.60 L 496.41,895.42 L 496.11,893.23 L 495.80,891.04 L 495.50,888.85 L 495.19,886.66 L 494.88,884.47 L 494.57,882.29 L 494.26,880.10 L 493.95,877.91 L 493.64,875.72 L 493.33,873.53 L 493.01,871.35 L 492.70,869.16 L 492.38,866.97 L 492.07,864.78 L 491.75,862.59 L 491.43,860.40 L 491.11,858.22 L 490.79,856.03 L 490.47,853.84 L 490.15,851.65 L 489.82,849.46 L 489.50,847.28 L 489.17,845.09 L 488.84,842.90 L 488.52,840.71 L 488.19,838.52 L 487.85,836.34 L 487.52,834.15 L 487.19,831.96 L 486.85,829.77 L 486.52,827.58 L 486.18,825.40 L 485.84,823.21 L 485.50,821.02 L 485.16,818.83 L 484.82,816.64 L 484.48,814.45 L 484.13,812.27 L 483.79,810.08 L 483.44,807.89 L 483.09,805.70 L 482.74,803.52 L 482.39,801.33 L 482.03,799.14 L 481.68,796.95 L 481.32,794.76 L 480.96,792.58 L 480.60,790.39 L 480.24,788.20 L 479.88,786.01 L 479.52,783.82 L 479.15,781.64 L 478.78,779.45 L 478.41,777.26 L 478.04,775.07 L 477.67,772.88 L 477.30,770.70 L 476.92,768.51 L 476.54,766.32 L 476.16,764.13 L 475.78,761.95 L 475.40,759.76 L 475.01,757.57 L 474.62,755.38 L 474.23,753.19 L 473.84,751.01 L 473.45,748.82 L 473.05,746.63 L 472.65,744.44 L 472.25,742.26 L 471.85,740.07 L 471.44,737.88 L 471.04,735.69 L 470.63,733.51 L 470.22,731.32 L 469.80,729.13 L 469.38,726.94 L 468.97,724.76 L 468.54,722.57 L 468.12,720.38 L 467.69,718.19 L 467.26,716.01 L 466.83,713.82 L 466.39,711.63 L 465.95,709.45 L 465.51,707.26 L 465.07,705.07 L 464.62,702.88 L 464.17,700.70 L 463.71,698.51 L 463.25,696.32 L 462.79,694.14 L 462.33,691.95 L 461.86,689.76 L 461.38,687.57 L 460.91,685.39 L 460.43,683.20 L 459.94,681.01 L 459.45,678.83 L 458.96,676.64 L 458.46,674.45 L 457.96,672.27 L 457.45,670.08 L 456.94,667.90 L 456.42,665.71 L 455.90,663.52 L 455.37,661.34 L 454.84,659.15 L 454.30,656.96 L 453.76,654.78 L 453.21,652.59 L 452.65,650.41 L 452.08,648.22 L 451.51,646.04 L 450.94,643.85 L 450.35,641.67 L 449.76,639.48 L 449.15,637.30 L 448.54,635.11 L 447.92,632.93 L 447.29,630.74 L 446.66,628.56 L 446.01,626.37 L 445.35,624.19 L 444.67,622.01 L 443.99,619.82 L 443.29,617.64 L 442.58,615.46 L 441.85,613.28 L 441.11,611.10 L 440.35,608.92 L 439.57,606.74 L 438.77,604.56 L 437.94,602.38 L 437.10,600.20 L 436.22,598.02 L 435.32,595.85 L 434.38,593.67 L 433.40,591.50 L 432.38,589.33 L 431.31,587.16 L 430.18,585.00 L 428.97,582.84 L 427.68,580.68 L 426.26,578.54 L 424.68,576.41 L 422.84,574.31 L 420.54,572.27 L 416.03,569.92 L 415.76,566.93 L 415.86,564.71 L 416.02,562.50 L 416.24,560.28 L 416.51,558.06 L 416.83,555.85 L 417.21,553.63 L 417.65,551.42 L 418.13,549.21 L 418.66,547.00 L 419.24,544.79 L 419.86,542.58 L 420.52,540.38 L 421.22,538.17 L 421.96,535.97 L 422.72,533.77 L 423.52,531.57 L 424.34,529.37 L 425.19,527.17 L 426.05,524.97 L 426.93,522.78 L 427.82,520.59 L 428.71,518.40 L 429.62,516.21 L 430.52,514.02 L 431.42,511.83 L 432.31,509.65 L 433.19,507.46 L 434.06,505.28 L 434.91,503.10 L 435.73,500.92 L 436.54,498.74 L 437.31,496.56 L 438.06,494.39 L 438.77,492.22 L 439.44,490.04 L 440.08,487.87 L 440.67,485.70 L 441.21,483.54 L 441.72,481.37 L 442.17,479.21 L 442.57,477.04 L 442.92,474.88 L 443.21,472.72 L 443.45,470.56 L 443.64,468.39 L 443.77,466.23 L 443.84,464.07 L 443.86,461.90 L 443.86,459.72 L 443.86,457.53 L 443.86,455.34 L 443.86,453.15 L 443.86,450.97 L 443.86,448.78 L 443.86,446.59 L 443.86,444.40 L 443.86,442.21 L 443.86,440.02 L 443.86,437.83 L 443.86,435.64 L 443.86,433.46 L 443.86,431.27 L 443.86,429.08 L 443.86,426.89 L 443.86,424.70 L 443.86,422.51 L 443.86,420.32 L 443.86,418.14 L 443.86,415.95 L 443.86,413.76 L 443.86,411.57 L 443.86,409.38 L 443.86,407.19 L 443.86,405.00 L 443.86,402.81 L 443.86,400.63 L 443.86,398.44 L 443.86,396.25 L 443.86,394.06 L 443.86,391.87 L 443.86,389.68 L 443.86,387.49 L 443.86,385.31 L 443.86,383.12 L 443.86,380.93 L 443.86,378.74 L 443.86,376.55 L 443.86,374.36 L 443.86,372.17 L 443.86,369.98 L 443.86,367.80 L 443.86,365.61 L 443.86,363.42 L 443.86,361.23 L 443.86,359.04 L 443.86,356.85 L 443.86,354.66 L 443.86,352.48 L 443.86,350.29 L 443.86,348.10 L 443.86,345.91 L 443.86,343.72 L 443.86,341.53 L 443.86,339.34 L 443.86,337.15 L 443.86,334.97 L 443.86,332.78 L 443.86,330.59 L 443.86,328.40 L 446.06,328.40 L 446.06,330.59 L 446.06,332.78 L 446.06,334.97 L 446.06,337.15 L 446.06,339.34 L 446.06,341.53 L 446.06,343.72 L 446.06,345.91 L 446.06,348.10 L 446.06,350.29 L 446.06,352.48 L 446.06,354.66 L 446.06,356.85 L 446.06,359.04 L 446.06,361.23 L 446.06,363.42 L 446.06,365.61 L 446.06,367.80 L 446.06,369.98 L 446.06,372.17 L 446.06,374.36 L 446.06,376.55 L 446.06,378.74 L 446.06,380.93 L 446.06,383.12 L 446.06,385.31 L 446.06,387.49 L 446.06,389.68 L 446.06,391.87 L 446.06,394.06 L 446.06,396.25 L 446.06,398.44 L 446.06,400.63 L 446.06,402.81 L 446.06,405.00 L 446.06,407.19 L 446.06,409.38 L 446.06,411.57 L 446.06,413.76 L 446.06,415.95 L 446.06,418.14 L 446.06,420.32 L 446.06,422.51 L 446.06,424.70 L 446.06,426.89 L 446.06,429.08 L 446.06,431.27 L 446.06,433.46 L 446.06,435.64 L 446.06,437.83 L 446.06,440.02 L 446.06,442.21 L 446.06,444.40 L 446.06,446.59 L 446.06,448.78 L 446.06,450.97 L 446.06,453.15 L 446.06,455.34 L 446.06,457.53 L 446.06,459.72 L 446.06,461.91 L 446.04,464.12 L 445.97,466.34 L 445.83,468.55 L 445.64,470.77 L 445.40,472.99 L 445.09,475.20 L 444.74,477.42 L 444.33,479.63 L 443.86,481.84 L 443.35,484.05 L 442.80,486.26 L 442.19,488.47 L 441.55,490.68 L 440.86,492.88 L 440.14,495.09 L 439.39,497.29 L 438.61,499.49 L 437.79,501.69 L 436.96,503.89 L 436.10,506.08 L 435.23,508.28 L 434.35,510.47 L 433.45,512.66 L 432.55,514.86 L 431.65,517.04 L 430.75,519.23 L 429.85,521.42 L 428.97,523.60 L 428.09,525.79 L 427.24,527.97 L 426.40,530.15 L 425.58,532.33 L 424.80,534.50 L 424.04,536.68 L 423.31,538.85 L 422.62,541.03 L 421.97,543.20 L 421.36,545.37 L 420.79,547.53 L 420.27,549.70 L 419.80,551.87 L 419.38,554.03 L 419.01,556.19 L 418.69,558.36 L 418.42,560.52 L 418.21,562.68 L 418.06,564.84 L 417.96,567.00 L 417.61,568.39 L 421.73,570.42 L 424.40,572.75 L 426.39,575.03 L 428.06,577.28 L 429.54,579.51 L 430.88,581.73 L 432.12,583.95 L 433.27,586.16 L 434.37,588.37 L 435.40,590.58 L 436.39,592.79 L 437.34,594.99 L 438.26,597.19 L 439.14,599.39 L 440.00,601.59 L 440.83,603.79 L 441.64,605.99 L 442.42,608.18 L 443.19,610.38 L 443.94,612.58 L 444.67,614.77 L 445.38,616.97 L 446.09,619.16 L 446.77,621.35 L 447.45,623.55 L 448.11,625.74 L 448.77,627.94 L 449.41,630.13 L 450.04,632.32 L 450.66,634.52 L 451.27,636.71 L 451.88,638.90 L 452.47,641.09 L 453.06,643.28 L 453.64,645.48 L 454.21,647.67 L 454.78,649.86 L 455.34,652.05 L 455.89,654.24 L 456.44,656.44 L 456.98,658.63 L 457.51,660.82 L 458.04,663.01 L 458.56,665.20 L 459.08,667.39 L 459.60,669.58 L 460.10,671.77 L 460.61,673.96 L 461.11,676.15 L 461.60,678.35 L 462.09,680.54 L 462.57,682.73 L 463.06,684.92 L 463.53,687.11 L 464.01,689.30 L 464.48,691.49 L 464.94,693.68 L 465.41,695.87 L 465.86,698.06 L 466.32,700.25 L 466.77,702.44 L 467.22,704.63 L 467.67,706.82 L 468.11,709.01 L 468.55,711.20 L 468.99,713.39 L 469.42,715.58 L 469.85,717.77 L 470.28,719.96 L 470.70,722.15 L 471.13,724.34 L 471.55,726.53 L 471.96,728.72 L 472.38,730.91 L 472.79,733.10 L 473.20,735.29 L 473.61,737.48 L 474.01,739.67 L 474.42,741.86 L 474.82,744.05 L 475.22,746.24 L 475.61,748.43 L 476.01,750.62 L 476.40,752.81 L 476.79,755.00 L 477.18,757.19 L 477.56,759.38 L 477.95,761.57 L 478.33,763.76 L 478.71,765.95 L 479.09,768.14 L 479.46,770.32 L 479.84,772.51 L 480.21,774.70 L 480.58,776.89 L 480.95,779.08 L 481.32,781.27 L 481.69,783.46 L 482.05,785.65 L 482.41,787.84 L 482.77,790.03 L 483.13,792.22 L 483.49,794.41 L 483.85,796.60 L 484.20,798.79 L 484.56,800.98 L 484.91,803.17 L 485.26,805.36 L 485.61,807.55 L 485.96,809.73 L 486.31,811.92 L 486.65,814.11 L 486.99,816.30 L 487.34,818.49 L 487.68,820.68 L 488.02,822.87 L 488.36,825.06 L 488.69,827.25 L 489.03,829.44 L 489.36,831.63 L 489.70,833.82 L 490.03,836.01 L 490.36,838.20 L 490.69,840.38 L 491.02,842.57 L 491.35,844.76 L 491.67,846.95 L 492.00,849.14 L 492.32,851.33 L 492.65,853.52 L 492.97,855.71 L 493.29,857.90 L 493.61,860.09 L 493.93,862.28 L 494.25,864.47 L 494.56,866.65 L 494.88,868.84 L 495.19,871.03 L 495.51,873.22 L 495.82,875.41 L 496.13,877.60 L 496.44,879.79 L 496.75,881.98 L 497.06,884.17 L 497.37,886.36 L 497.67,888.55 L 497.98,890.74 L 498.29,892.92 L 498.59,895.11 L 498.89,897.30 L 499.19,899.49 L 499.50,901.68 L 499.80,903.87 L 500.10,906.06 L 500.40,908.25 L 500.69,910.44 L 500.99,912.63 L 501.29,914.82 L 501.58,917.00 L 501.88,919.19 L 502.17,921.38 L 502.46,923.57 L 502.76,925.76 L 503.05,927.95 L 503.34,930.14 L 503.63,932.33 L 503.92,934.52 L 504.21,936.71 L 504.49,938.89 L 504.78,941.08 L 505.07,943.27 L 505.35,945.46 L 505.64,947.65 L 505.92,949.84 L 506.20,952.03 L 506.49,954.22 L 506.77,956.41 L 507.05,958.60 L 507.33,960.79 L 507.61,962.97 L 507.89,965.16 L 508.17,967.35 L 508.45,969.54 L 508.72,971.73 L 509.00,973.92 L 509.28,976.11 L 509.55,978.30 L 509.82,980.49 L 510.10,982.67 L 510.37,984.86 Z M 516.63,985.09 L 516.35,982.90 L 516.08,980.71 L 515.80,978.52 L 515.53,976.33 L 515.25,974.14 L 514.98,971.96 L 514.70,969.77 L 514.42,967.58 L 514.14,965.39 L 513.87,963.20 L 513.59,961.01 L 513.31,958.83 L 513.02,956.64 L 512.74,954.45 L 512.46,952.26 L 512.18,950.07 L 511.89,947.88 L 511.61,945.69 L 511.32,943.51 L 511.04,941.32 L 510.75,939.13 L 510.46,936.94 L 510.17,934.75 L 509.88,932.56 L 509.59,930.38 L 509.30,928.19 L 509.01,926.00 L 508.72,923.81 L 508.43,921.62 L 508.13,919.43 L 507.84,917.24 L 507.54,915.06 L 507.25,912.87 L 506.95,910.68 L 506.65,908.49 L 506.35,906.30 L 506.05,904.11 L 505.75,901.93 L 505.45,899.74 L 505.15,897.55 L 504.85,895.36 L 504.54,893.17 L 504.24,890.98 L 503.93,888.80 L 503.62,886.61 L 503.32,884.42 L 503.01,882.23 L 502.70,880.04 L 502.39,877.85 L 502.08,875.67 L 501.76,873.48 L 501.45,871.29 L 501.14,869.10 L 500.82,866.91 L 500.50,864.72 L 500.19,862.54 L 499.87,860.35 L 499.55,858.16 L 499.23,855.97 L 498.91,853.78 L 498.58,851.59 L 498.26,849.41 L 497.93,847.22 L 497.61,845.03 L 497.28,842.84 L 496.95,840.65 L 496.62,838.46 L 496.29,836.28 L 495.96,834.09 L 495.62,831.90 L 495.29,829.71 L 494.95,827.52 L 494.62,825.33 L 494.28,823.15 L 493.94,820.96 L 493.60,818.77 L 493.26,816.58 L 492.91,814.39 L 492.57,812.20 L 492.22,810.02 L 491.87,807.83 L 491.52,805.64 L 491.17,803.45 L 490.82,801.26 L 490.47,799.08 L 490.11,796.89 L 489.76,794.70 L 489.40,792.51 L 489.04,790.32 L 488.68,788.13 L 488.32,785.95 L 487.95,783.76 L 487.58,781.57 L 487.22,779.38 L 486.85,777.19 L 486.48,775.01 L 486.10,772.82 L 485.73,770.63 L 485.35,768.44 L 484.97,766.25 L 484.59,764.06 L 484.21,761.88 L 483.83,759.69 L 483.44,757.50 L 483.06,755.31 L 482.67,753.12 L 482.27,750.94 L 481.88,748.75 L 481.48,746.56 L 481.09,744.37 L 480.69,742.18 L 480.28,740.00 L 479.88,737.81 L 479.47,735.62 L 479.06,733.43 L 478.65,731.24 L 478.23,729.06 L 477.82,726.87 L 477.40,724.68 L 476.98,722.49 L 476.55,720.31 L 476.12,718.12 L 475.69,715.93 L 475.26,713.74 L 474.82,711.55 L 474.38,709.37 L 473.94,707.18 L 473.50,704.99 L 473.05,702.80 L 472.60,700.62 L 472.14,698.43 L 471.68,696.24 L 471.22,694.05 L 470.76,691.86 L 470.29,689.68 L 469.81,687.49 L 469.34,685.30 L 468.86,683.11 L 468.37,680.93 L 467.88,678.74 L 467.39,676.55 L 466.89,674.37 L 466.39,672.18 L 465.88,669.99 L 465.37,667.80 L 464.85,665.62 L 464.33,663.43 L 463.80,661.24 L 463.27,659.06 L 462.73,656.87 L 462.19,654.68 L 461.63,652.49 L 461.08,650.31 L 460.51,648.12 L 459.94,645.93 L 459.36,643.75 L 458.78,641.56 L 458.18,639.38 L 457.58,637.19 L 456.97,635.00 L 456.35,632.82 L 455.72,630.63 L 455.08,628.45 L 454.43,626.26 L 453.77,624.07 L 453.10,621.89 L 452.41,619.70 L 451.71,617.52 L 451.00,615.33 L 450.27,613.15 L 449.53,610.97 L 448.76,608.78 L 447.98,606.60 L 447.18,604.42 L 446.36,602.23 L 445.51,600.05 L 444.63,597.87 L 443.73,595.69 L 442.79,593.51 L 441.81,591.33 L 440.78,589.16 L 439.71,586.98 L 438.57,584.81 L 437.36,582.64 L 436.06,580.47 L 434.63,578.31 L 433.03,576.16 L 431.17,574.03 L 428.79,571.93 L 424.36,569.64 L 424.20,566.94 L 424.30,564.74 L 424.46,562.53 L 424.67,560.32 L 424.94,558.12 L 425.27,555.91 L 425.65,553.71 L 426.08,551.50 L 426.56,549.30 L 427.09,547.10 L 427.66,544.89 L 428.28,542.69 L 428.94,540.49 L 429.64,538.30 L 430.37,536.10 L 431.14,533.90 L 431.93,531.70 L 432.76,529.51 L 433.60,527.32 L 434.46,525.12 L 435.34,522.93 L 436.23,520.74 L 437.12,518.55 L 438.02,516.36 L 438.93,514.17 L 439.83,511.98 L 440.72,509.80 L 441.60,507.61 L 442.47,505.43 L 443.32,503.24 L 444.15,501.06 L 444.95,498.88 L 445.73,496.70 L 446.48,494.52 L 447.19,492.34 L 447.86,490.16 L 448.50,487.98 L 449.09,485.81 L 449.64,483.63 L 450.15,481.46 L 450.60,479.28 L 451.00,477.11 L 451.35,474.94 L 451.65,472.77 L 451.89,470.59 L 452.08,468.42 L 452.21,466.25 L 452.28,464.08 L 452.30,461.91 L 452.30,459.72 L 452.30,457.53 L 452.30,455.34 L 452.30,453.15 L 452.30,450.97 L 452.30,448.78 L 452.30,446.59 L 452.30,444.40 L 452.30,442.21 L 452.30,440.02 L 452.30,437.83 L 452.30,435.64 L 452.30,433.46 L 452.30,431.27 L 452.30,429.08 L 452.30,426.89 L 452.30,424.70 L 452.30,422.51 L 452.30,420.32 L 452.30,418.14 L 452.30,415.95 L 452.30,413.76 L 452.30,411.57 L 452.30,409.38 L 452.30,407.19 L 452.30,405.00 L 452.30,402.81 L 452.30,400.63 L 452.30,398.44 L 452.30,396.25 L 452.30,394.06 L 452.30,391.87 L 452.30,389.68 L 452.30,387.49 L 452.30,385.31 L 452.30,383.12 L 452.30,380.93 L 452.30,378.74 L 452.30,376.55 L 452.30,374.36 L 452.30,372.17 L 452.30,369.98 L 452.30,367.80 L 452.30,365.61 L 452.30,363.42 L 452.30,361.23 L 452.30,359.04 L 452.30,356.85 L 452.30,354.66 L 452.30,352.48 L 452.30,350.29 L 452.30,348.10 L 452.30,345.91 L 452.30,343.72 L 452.30,341.53 L 452.30,339.34 L 452.30,337.15 L 452.30,334.97 L 452.30,332.78 L 452.30,330.59 L 452.30,328.40 L 453.70,328.40 L 453.70,330.59 L 453.70,332.78 L 453.70,334.97 L 453.70,337.15 L 453.70,339.34 L 453.70,341.53 L 453.70,343.72 L 453.70,345.91 L 453.70,348.10 L 453.70,350.29 L 453.70,352.48 L 453.70,354.66 L 453.70,356.85 L 453.70,359.04 L 453.70,361.23 L 453.70,363.42 L 453.70,365.61 L 453.70,367.80 L 453.70,369.98 L 453.70,372.17 L 453.70,374.36 L 453.70,376.55 L 453.70,378.74 L 453.70,380.93 L 453.70,383.12 L 453.70,385.31 L 453.70,387.49 L 453.70,389.68 L 453.70,391.87 L 453.70,394.06 L 453.70,396.25 L 453.70,398.44 L 453.70,400.63 L 453.70,402.81 L 453.70,405.00 L 453.70,407.19 L 453.70,409.38 L 453.70,411.57 L 453.70,413.76 L 453.70,415.95 L 453.70,418.14 L 453.70,420.32 L 453.70,422.51 L 453.70,424.70 L 453.70,426.89 L 453.70,429.08 L 453.70,431.27 L 453.70,433.46 L 453.70,435.64 L 453.70,437.83 L 453.70,440.02 L 453.70,442.21 L 453.70,444.40 L 453.70,446.59 L 453.70,448.78 L 453.70,450.97 L 453.70,453.15 L 453.70,455.34 L 453.70,457.53 L 453.70,459.72 L 453.70,461.91 L 453.68,464.11 L 453.61,466.32 L 453.48,468.53 L 453.29,470.73 L 453.04,472.94 L 452.74,475.14 L 452.38,477.35 L 451.97,479.55 L 451.51,481.76 L 451.00,483.96 L 450.45,486.16 L 449.85,488.36 L 449.20,490.56 L 448.52,492.76 L 447.80,494.96 L 447.05,497.16 L 446.27,499.35 L 445.46,501.55 L 444.63,503.74 L 443.77,505.94 L 442.90,508.13 L 442.02,510.32 L 441.12,512.51 L 440.22,514.70 L 439.32,516.89 L 438.42,519.08 L 437.52,521.27 L 436.64,523.45 L 435.76,525.64 L 434.90,527.82 L 434.06,530.01 L 433.25,532.19 L 432.46,534.37 L 431.70,536.55 L 430.97,538.73 L 430.28,540.91 L 429.63,543.08 L 429.02,545.26 L 428.45,547.44 L 427.92,549.61 L 427.45,551.79 L 427.02,553.96 L 426.65,556.13 L 426.33,558.30 L 426.06,560.48 L 425.85,562.65 L 425.70,564.82 L 425.60,566.99 L 425.36,568.66 L 429.55,570.75 L 432.15,573.03 L 434.12,575.28 L 435.77,577.51 L 437.24,579.72 L 438.57,581.93 L 439.80,584.14 L 440.96,586.35 L 442.04,588.55 L 443.08,590.75 L 444.07,592.95 L 445.02,595.14 L 445.93,597.34 L 446.81,599.54 L 447.66,601.73 L 448.49,603.93 L 449.30,606.12 L 450.08,608.32 L 450.85,610.51 L 451.60,612.70 L 452.33,614.90 L 453.04,617.09 L 453.74,619.28 L 454.43,621.47 L 455.11,623.67 L 455.77,625.86 L 456.42,628.05 L 457.06,630.24 L 457.69,632.43 L 458.32,634.62 L 458.93,636.81 L 459.53,639.01 L 460.13,641.20 L 460.71,643.39 L 461.29,645.58 L 461.87,647.77 L 462.43,649.96 L 462.99,652.15 L 463.54,654.34 L 464.09,656.53 L 464.63,658.72 L 465.16,660.91 L 465.69,663.10 L 466.21,665.29 L 466.73,667.48 L 467.25,669.67 L 467.75,671.86 L 468.26,674.05 L 468.76,676.24 L 469.25,678.43 L 469.74,680.62 L 470.22,682.81 L 470.71,685.00 L 471.18,687.19 L 471.66,689.38 L 472.13,691.57 L 472.59,693.76 L 473.05,695.95 L 473.51,698.14 L 473.97,700.33 L 474.42,702.52 L 474.87,704.71 L 475.31,706.90 L 475.76,709.09 L 476.20,711.28 L 476.63,713.47 L 477.07,715.66 L 477.50,717.85 L 477.93,720.04 L 478.35,722.23 L 478.77,724.42 L 479.19,726.61 L 479.61,728.80 L 480.02,730.98 L 480.44,733.17 L 480.85,735.36 L 481.25,737.55 L 481.66,739.74 L 482.06,741.93 L 482.46,744.12 L 482.86,746.31 L 483.26,748.50 L 483.65,750.69 L 484.04,752.88 L 484.43,755.07 L 484.82,757.26 L 485.21,759.45 L 485.59,761.64 L 485.97,763.82 L 486.35,766.01 L 486.73,768.20 L 487.11,770.39 L 487.48,772.58 L 487.86,774.77 L 488.23,776.96 L 488.60,779.15 L 488.97,781.34 L 489.33,783.53 L 489.70,785.72 L 490.06,787.91 L 490.42,790.09 L 490.78,792.28 L 491.14,794.47 L 491.49,796.66 L 491.85,798.85 L 492.20,801.04 L 492.56,803.23 L 492.91,805.42 L 493.26,807.61 L 493.60,809.80 L 493.95,811.99 L 494.30,814.18 L 494.64,816.36 L 494.98,818.55 L 495.32,820.74 L 495.66,822.93 L 496.00,825.12 L 496.34,827.31 L 496.67,829.50 L 497.01,831.69 L 497.34,833.88 L 497.67,836.07 L 498.01,838.25 L 498.34,840.44 L 498.66,842.63 L 498.99,844.82 L 499.32,847.01 L 499.64,849.20 L 499.97,851.39 L 500.29,853.58 L 500.61,855.77 L 500.93,857.96 L 501.25,860.14 L 501.57,862.33 L 501.89,864.52 L 502.21,866.71 L 502.52,868.90 L 502.84,871.09 L 503.15,873.28 L 503.46,875.47 L 503.77,877.66 L 504.08,879.85 L 504.39,882.03 L 504.70,884.22 L 505.01,886.41 L 505.32,888.60 L 505.62,890.79 L 505.93,892.98 L 506.23,895.17 L 506.54,897.36 L 506.84,899.55 L 507.14,901.74 L 507.44,903.92 L 507.74,906.11 L 508.04,908.30 L 508.34,910.49 L 508.63,912.68 L 508.93,914.87 L 509.23,917.06 L 509.52,919.25 L 509.81,921.44 L 510.11,923.62 L 510.40,925.81 L 510.69,928.00 L 510.98,930.19 L 511.27,932.38 L 511.56,934.57 L 511.85,936.76 L 512.14,938.95 L 512.42,941.14 L 512.71,943.32 L 513.00,945.51 L 513.28,947.70 L 513.56,949.89 L 513.85,952.08 L 514.13,954.27 L 514.41,956.46 L 514.69,958.65 L 514.97,960.84 L 515.25,963.02 L 515.53,965.21 L 515.81,967.40 L 516.09,969.59 L 516.37,971.78 L 516.64,973.97 L 516.92,976.16 L 517.19,978.35 L 517.47,980.54 L 517.74,982.72 L 518.01,984.91 Z M 262.72,985.30 L 254.68,985.30 L 254.68,984.70 L 262.72,984.70 Z M 509.28,984.70 L 517.32,984.70 L 517.32,985.30 L 509.28,985.30 Z M 264.37,972.17 L 256.33,972.17 L 256.33,971.57 L 264.37,971.57 Z M 507.63,971.57 L 515.67,971.57 L 515.67,972.17 L 507.63,972.17 Z M 266.04,959.04 L 258.00,959.04 L 258.00,958.44 L 266.04,958.44 Z M 505.96,958.44 L 514.00,958.44 L 514.00,959.04 L 505.96,959.04 Z M 267.74,945.90 L 259.70,945.90 L 259.70,945.30 L 267.74,945.30 Z M 504.26,945.30 L 512.30,945.30 L 512.30,945.90 L 504.26,945.90 Z M 269.46,932.77 L 261.42,932.77 L 261.42,932.17 L 269.46,932.17 Z M 502.54,932.17 L 510.58,932.17 L 510.58,932.77 L 502.54,932.77 Z M 271.21,919.64 L 263.17,919.64 L 263.17,919.04 L 271.21,919.04 Z M 500.79,919.04 L 508.83,919.04 L 508.83,919.64 L 500.79,919.64 Z M 272.99,906.51 L 264.95,906.51 L 264.95,905.91 L 272.99,905.91 Z M 499.01,905.91 L 507.05,905.91 L 507.05,906.51 L 499.01,906.51 Z M 274.80,893.38 L 266.76,893.38 L 266.76,892.78 L 274.80,892.78 Z M 497.20,892.78 L 505.24,892.78 L 505.24,893.38 L 497.20,893.38 Z M 276.65,880.24 L 268.61,880.24 L 268.61,879.64 L 276.65,879.64 Z M 495.35,879.64 L 503.39,879.64 L 503.39,880.24 L 495.35,880.24 Z M 278.53,867.11 L 270.49,867.11 L 270.49,866.51 L 278.53,866.51 Z M 493.47,866.51 L 501.51,866.51 L 501.51,867.11 L 493.47,867.11 Z M 280.44,853.98 L 272.40,853.98 L 272.40,853.38 L 280.44,853.38 Z M 491.56,853.38 L 499.60,853.38 L 499.60,853.98 L 491.56,853.98 Z M 282.40,840.85 L 274.36,840.85 L 274.36,840.25 L 282.40,840.25 Z M 489.60,840.25 L 497.64,840.25 L 497.64,840.85 L 489.60,840.85 Z M 284.39,827.72 L 276.35,827.72 L 276.35,827.12 L 284.39,827.12 Z M 487.61,827.12 L 495.65,827.12 L 495.65,827.72 L 487.61,827.72 Z M 286.44,814.58 L 278.40,814.58 L 278.40,813.98 L 286.44,813.98 Z M 485.56,813.98 L 493.60,813.98 L 493.60,814.58 L 485.56,814.58 Z M 288.53,801.45 L 280.49,801.45 L 280.49,800.85 L 288.53,800.85 Z M 483.47,800.85 L 491.51,800.85 L 491.51,801.45 L 483.47,801.45 Z M 290.67,788.32 L 282.63,788.32 L 282.63,787.72 L 290.67,787.72 Z M 481.33,787.72 L 489.37,787.72 L 489.37,788.32 L 481.33,788.32 Z M 292.87,775.19 L 284.83,775.19 L 284.83,774.59 L 292.87,774.59 Z M 479.13,774.59 L 487.17,774.59 L 487.17,775.19 L 479.13,775.19 Z M 295.14,762.06 L 287.10,762.06 L 287.10,761.46 L 295.14,761.46 Z M 476.86,761.46 L 484.90,761.46 L 484.90,762.06 L 476.86,762.06 Z M 297.47,748.92 L 289.43,748.92 L 289.43,748.32 L 297.47,748.32 Z M 474.53,748.32 L 482.57,748.32 L 482.57,748.92 L 474.53,748.92 Z M 299.88,735.79 L 291.84,735.79 L 291.84,735.19 L 299.88,735.19 Z M 472.12,735.19 L 480.16,735.19 L 480.16,735.79 L 472.12,735.79 Z M 302.38,722.66 L 294.34,722.66 L 294.34,722.06 L 302.38,722.06 Z M 469.62,722.06 L 477.66,722.06 L 477.66,722.66 L 469.62,722.66 Z M 304.97,709.53 L 296.93,709.53 L 296.93,708.93 L 304.97,708.93 Z M 467.03,708.93 L 475.07,708.93 L 475.07,709.53 L 467.03,709.53 Z M 307.67,696.40 L 299.63,696.40 L 299.63,695.80 L 307.67,695.80 Z M 464.33,695.80 L 472.37,695.80 L 472.37,696.40 L 464.33,696.40 Z M 310.50,683.26 L 302.46,683.26 L 302.46,682.66 L 310.50,682.66 Z M 461.50,682.66 L 469.54,682.66 L 469.54,683.26 L 461.50,683.26 Z M 313.48,670.13 L 305.44,670.13 L 305.44,669.53 L 313.48,669.53 Z M 458.52,669.53 L 466.56,669.53 L 466.56,670.13 L 458.52,670.13 Z M 316.63,657.00 L 308.59,657.00 L 308.59,656.40 L 316.63,656.40 Z M 455.37,656.40 L 463.41,656.40 L 463.41,657.00 L 455.37,657.00 Z M 320.00,643.87 L 311.96,643.87 L 311.96,643.27 L 320.00,643.27 Z M 452.00,643.27 L 460.04,643.27 L 460.04,643.87 L 452.00,643.87 Z M 323.65,630.74 L 315.61,630.74 L 315.61,630.14 L 323.65,630.14 Z M 448.35,630.14 L 456.39,630.14 L 456.39,630.74 L 448.35,630.74 Z M 327.66,617.60 L 319.62,617.60 L 319.62,617.00 L 327.66,617.00 Z M 444.34,617.00 L 452.38,617.00 L 452.38,617.60 L 444.34,617.60 Z M 332.20,604.47 L 324.16,604.47 L 324.16,603.87 L 332.20,603.87 Z M 439.80,603.87 L 447.84,603.87 L 447.84,604.47 L 439.80,604.47 Z M 337.60,591.34 L 329.56,591.34 L 329.56,590.74 L 337.60,590.74 Z M 434.40,590.74 L 442.44,590.74 L 442.44,591.34 L 434.40,591.34 Z M 344.84,578.21 L 336.80,578.21 L 336.80,577.61 L 344.84,577.61 Z M 427.16,577.61 L 435.20,577.61 L 435.20,578.21 L 427.16,578.21 Z M 355.04,565.08 L 347.00,565.08 L 347.00,564.48 L 355.04,564.48 Z M 416.96,564.48 L 425.00,564.48 L 425.00,565.08 L 416.96,565.08 Z M 353.28,551.94 L 345.24,551.94 L 345.24,551.34 L 353.28,551.34 Z M 418.72,551.34 L 426.76,551.34 L 426.76,551.94 L 418.72,551.94 Z M 349.73,538.81 L 341.69,538.81 L 341.69,538.21 L 349.73,538.21 Z M 422.27,538.21 L 430.31,538.21 L 430.31,538.81 L 422.27,538.81 Z M 344.93,525.68 L 336.89,525.68 L 336.89,525.08 L 344.93,525.08 Z M 427.07,525.08 L 435.11,525.08 L 435.11,525.68 L 427.07,525.68 Z M 339.57,512.55 L 331.53,512.55 L 331.53,511.95 L 339.57,511.95 Z M 432.43,511.95 L 440.47,511.95 L 440.47,512.55 L 432.43,512.55 Z M 334.43,499.42 L 326.39,499.42 L 326.39,498.82 L 334.43,498.82 Z M 437.57,498.82 L 445.61,498.82 L 445.61,499.42 L 437.57,499.42 Z M 330.27,486.28 L 322.23,486.28 L 322.23,485.68 L 330.27,485.68 Z M 441.73,485.68 L 449.77,485.68 L 449.77,486.28 L 441.73,486.28 Z M 327.69,473.15 L 319.65,473.15 L 319.65,472.55 L 327.69,472.55 Z M 444.31,472.55 L 452.35,472.55 L 452.35,473.15 L 444.31,473.15 Z M 327.04,460.02 L 319.00,460.02 L 319.00,459.42 L 327.04,459.42 Z M 444.96,459.42 L 453.00,459.42 L 453.00,460.02 L 444.96,460.02 Z M 327.04,446.89 L 319.00,446.89 L 319.00,446.29 L 327.04,446.29 Z M 444.96,446.29 L 453.00,446.29 L 453.00,446.89 L 444.96,446.89 Z M 327.04,433.76 L 319.00,433.76 L 319.00,433.16 L 327.04,433.16 Z M 444.96,433.16 L 453.00,433.16 L 453.00,433.76 L 444.96,433.76 Z M 327.04,420.62 L 319.00,420.62 L 319.00,420.02 L 327.04,420.02 Z M 444.96,420.02 L 453.00,420.02 L 453.00,420.62 L 444.96,420.62 Z M 327.04,407.49 L 319.00,407.49 L 319.00,406.89 L 327.04,406.89 Z M 444.96,406.89 L 453.00,406.89 L 453.00,407.49 L 444.96,407.49 Z M 327.04,394.36 L 319.00,394.36 L 319.00,393.76 L 327.04,393.76 Z M 444.96,393.76 L 453.00,393.76 L 453.00,394.36 L 444.96,394.36 Z M 327.04,381.23 L 319.00,381.23 L 319.00,380.63 L 327.04,380.63 Z M 444.96,380.63 L 453.00,380.63 L 453.00,381.23 L 444.96,381.23 Z M 327.04,368.10 L 319.00,368.10 L 319.00,367.50 L 327.04,367.50 Z M 444.96,367.50 L 453.00,367.50 L 453.00,368.10 L 444.96,368.10 Z M 327.04,354.96 L 319.00,354.96 L 319.00,354.36 L 327.04,354.36 Z M 444.96,354.36 L 453.00,354.36 L 453.00,354.96 L 444.96,354.96 Z M 327.04,341.83 L 319.00,341.83 L 319.00,341.23 L 327.04,341.23 Z M 444.96,341.23 L 453.00,341.23 L 453.00,341.83 L 444.96,341.83 Z M 327.04,328.70 L 319.00,328.70 L 319.00,328.10 L 327.04,328.10 Z M 444.96,328.10 L 453.00,328.10 L 453.00,328.70 L 444.96,328.70 Z M 268.58,889.31 L 260.76,889.31 L 260.76,877.01 L 268.58,877.01 L 268.58,889.31 L 267.72,888.80 L 267.72,877.52 L 261.62,877.52 L 261.62,888.80 L 267.72,888.80 Z M 504.28,888.80 L 510.38,888.80 L 510.38,877.52 L 504.28,877.52 L 504.28,888.80 L 503.42,889.31 L 503.42,877.01 L 511.24,877.01 L 511.24,889.31 L 503.42,889.31 Z M 285.08,782.11 L 277.25,782.11 L 277.25,769.81 L 285.08,769.81 L 285.08,782.11 L 284.22,781.60 L 284.22,770.32 L 278.11,770.32 L 278.11,781.60 L 284.22,781.60 Z M 487.78,781.60 L 493.89,781.60 L 493.89,770.32 L 487.78,770.32 L 487.78,781.60 L 486.92,782.11 L 486.92,769.81 L 494.75,769.81 L 494.75,782.11 L 486.92,782.11 Z M 306.12,674.91 L 298.29,674.91 L 298.29,662.61 L 306.12,662.61 L 306.12,674.91 L 305.26,674.40 L 305.26,663.12 L 299.15,663.12 L 299.15,674.40 L 305.26,674.40 Z M 466.74,674.40 L 472.85,674.40 L 472.85,663.12 L 466.74,663.12 L 466.74,674.40 L 465.88,674.91 L 465.88,662.61 L 473.71,662.61 L 473.71,674.91 L 465.88,674.91 Z M 254.68,984.20 L 517.32,984.20 L 517.32,985.80 L 254.68,985.80 Z M 355.18,569.15 L 362.18,569.15 L 362.18,570.05 L 355.18,570.05 Z M 368.18,569.15 L 375.18,569.15 L 375.18,570.05 L 368.18,570.05 Z M 381.18,569.15 L 388.18,569.15 L 388.18,570.05 L 381.18,570.05 Z M 394.18,569.15 L 401.18,569.15 L 401.18,570.05 L 394.18,570.05 Z M 407.18,569.15 L 414.18,569.15 L 414.18,570.05 L 407.18,570.05 Z M 319.00,329.20 L 304.84,328.65 L 304.84,287.95 L 319.00,287.40 L 319.00,289.00 L 306.36,288.45 L 306.36,328.15 L 319.00,327.60 Z M 453.00,327.60 L 465.64,328.15 L 465.64,288.45 L 453.00,289.00 L 453.00,287.40 L 467.16,287.95 L 467.16,328.65 L 453.00,329.20 Z M 305.60,287.40 L 466.40,287.40 L 466.40,289.00 L 305.60,289.00 Z M 465.30,288.27 L 465.06,284.34 L 464.34,280.50 L 463.15,276.70 L 461.49,272.97 L 459.36,269.32 L 456.78,265.77 L 453.76,262.36 L 450.32,259.10 L 446.48,256.01 L 442.26,253.12 L 437.69,250.45 L 432.80,248.00 L 427.61,245.81 L 422.16,243.88 L 416.49,242.22 L 410.62,240.85 L 404.60,239.77 L 398.47,239.00 L 392.25,238.54 L 386.00,238.38 L 379.75,238.54 L 373.53,239.00 L 367.40,239.77 L 361.38,240.85 L 355.51,242.22 L 349.84,243.88 L 344.39,245.81 L 339.20,248.00 L 334.31,250.45 L 329.74,253.12 L 325.52,256.01 L 321.68,259.10 L 318.24,262.36 L 315.22,265.77 L 312.64,269.32 L 310.51,272.97 L 308.85,276.70 L 307.66,280.50 L 306.94,284.34 L 306.70,288.27 L 304.50,288.13 L 304.76,284.07 L 305.52,279.97 L 306.79,275.92 L 308.56,271.96 L 310.80,268.11 L 313.51,264.39 L 316.66,260.83 L 320.23,257.44 L 324.21,254.25 L 328.56,251.26 L 333.26,248.51 L 338.28,246.01 L 343.59,243.76 L 349.16,241.78 L 354.95,240.09 L 360.93,238.69 L 367.07,237.60 L 373.31,236.81 L 379.64,236.34 L 386.00,236.18 L 392.36,236.34 L 398.69,236.81 L 404.93,237.60 L 411.07,238.69 L 417.05,240.09 L 422.84,241.78 L 428.41,243.76 L 433.72,246.01 L 438.74,248.51 L 443.44,251.26 L 447.79,254.25 L 451.77,257.44 L 455.34,260.83 L 458.49,264.39 L 461.20,268.11 L 463.44,271.96 L 465.21,275.92 L 466.48,279.97 L 467.24,284.07 L 467.50,288.13 Z M 321.67,288.17 L 321.87,284.98 L 322.47,281.78 L 323.46,278.62 L 324.85,275.53 L 326.61,272.51 L 328.74,269.60 L 331.22,266.81 L 334.04,264.16 L 337.17,261.65 L 340.60,259.31 L 344.31,257.15 L 348.28,255.18 L 352.47,253.41 L 356.87,251.86 L 361.45,250.53 L 366.18,249.43 L 371.03,248.57 L 375.97,247.95 L 380.97,247.57 L 386.00,247.45 L 391.03,247.57 L 396.03,247.95 L 400.97,248.57 L 405.82,249.43 L 410.55,250.53 L 415.13,251.86 L 419.53,253.41 L 423.72,255.18 L 427.69,257.15 L 431.40,259.31 L 434.83,261.65 L 437.96,264.16 L 440.78,266.81 L 443.26,269.60 L 445.39,272.51 L 447.15,275.53 L 448.54,278.62 L 449.53,281.78 L 450.13,284.98 L 450.33,288.17 L 449.24,288.23 L 449.04,285.11 L 448.47,282.05 L 447.51,279.01 L 446.17,276.03 L 444.47,273.12 L 442.40,270.30 L 439.99,267.58 L 437.24,264.99 L 434.18,262.53 L 430.81,260.24 L 427.16,258.12 L 423.26,256.18 L 419.13,254.44 L 414.79,252.91 L 410.27,251.59 L 405.60,250.51 L 400.81,249.65 L 395.92,249.04 L 390.98,248.67 L 386.00,248.55 L 381.02,248.67 L 376.08,249.04 L 371.19,249.65 L 366.40,250.51 L 361.73,251.59 L 357.21,252.91 L 352.87,254.44 L 348.74,256.18 L 344.84,258.12 L 341.19,260.24 L 337.82,262.53 L 334.76,264.99 L 332.01,267.58 L 329.60,270.30 L 327.53,273.12 L 325.83,276.03 L 324.49,279.01 L 323.53,282.05 L 322.96,285.11 L 322.76,288.23 Z M 327.22,308.30 L 326.80,310.42 L 325.60,312.22 L 323.80,313.42 L 321.68,313.84 L 319.56,313.42 L 317.76,312.22 L 316.56,310.42 L 316.14,308.30 L 316.56,306.18 L 317.76,304.38 L 319.56,303.18 L 321.68,302.76 L 323.80,303.18 L 325.60,304.38 L 326.80,306.18 L 327.22,308.30 L 326.32,308.30 L 325.97,306.52 L 324.96,305.02 L 323.46,304.01 L 321.68,303.66 L 319.90,304.01 L 318.40,305.02 L 317.39,306.52 L 317.04,308.30 L 317.39,310.08 L 318.40,311.58 L 319.90,312.59 L 321.68,312.94 L 323.46,312.59 L 324.96,311.58 L 325.97,310.08 L 326.32,308.30 Z M 340.09,308.30 L 339.66,310.42 L 338.46,312.22 L 336.66,313.42 L 334.54,313.84 L 332.42,313.42 L 330.63,312.22 L 329.42,310.42 L 329.00,308.30 L 329.42,306.18 L 330.63,304.38 L 332.42,303.18 L 334.54,302.76 L 336.66,303.18 L 338.46,304.38 L 339.66,306.18 L 340.09,308.30 L 339.19,308.30 L 338.83,306.52 L 337.83,305.02 L 336.32,304.01 L 334.54,303.66 L 332.77,304.01 L 331.26,305.02 L 330.26,306.52 L 329.90,308.30 L 330.26,310.08 L 331.26,311.58 L 332.77,312.59 L 334.54,312.94 L 336.32,312.59 L 337.83,311.58 L 338.83,310.08 L 339.19,308.30 Z M 352.95,308.30 L 352.53,310.42 L 351.33,312.22 L 349.53,313.42 L 347.41,313.84 L 345.29,313.42 L 343.49,312.22 L 342.29,310.42 L 341.87,308.30 L 342.29,306.18 L 343.49,304.38 L 345.29,303.18 L 347.41,302.76 L 349.53,303.18 L 351.33,304.38 L 352.53,306.18 L 352.95,308.30 L 352.05,308.30 L 351.70,306.52 L 350.69,305.02 L 349.18,304.01 L 347.41,303.66 L 345.63,304.01 L 344.13,305.02 L 343.12,306.52 L 342.77,308.30 L 343.12,310.08 L 344.13,311.58 L 345.63,312.59 L 347.41,312.94 L 349.18,312.59 L 350.69,311.58 L 351.70,310.08 L 352.05,308.30 Z M 365.81,308.30 L 365.39,310.42 L 364.19,312.22 L 362.39,313.42 L 360.27,313.84 L 358.15,313.42 L 356.35,312.22 L 355.15,310.42 L 354.73,308.30 L 355.15,306.18 L 356.35,304.38 L 358.15,303.18 L 360.27,302.76 L 362.39,303.18 L 364.19,304.38 L 365.39,306.18 L 365.81,308.30 L 364.91,308.30 L 364.56,306.52 L 363.55,305.02 L 362.05,304.01 L 360.27,303.66 L 358.50,304.01 L 356.99,305.02 L 355.98,306.52 L 355.63,308.30 L 355.98,310.08 L 356.99,311.58 L 358.50,312.59 L 360.27,312.94 L 362.05,312.59 L 363.55,311.58 L 364.56,310.08 L 364.91,308.30 Z M 378.68,308.30 L 378.26,310.42 L 377.05,312.22 L 375.26,313.42 L 373.14,313.84 L 371.02,313.42 L 369.22,312.22 L 368.02,310.42 L 367.59,308.30 L 368.02,306.18 L 369.22,304.38 L 371.02,303.18 L 373.14,302.76 L 375.26,303.18 L 377.05,304.38 L 378.26,306.18 L 378.68,308.30 L 377.78,308.30 L 377.42,306.52 L 376.42,305.02 L 374.91,304.01 L 373.14,303.66 L 371.36,304.01 L 369.85,305.02 L 368.85,306.52 L 368.49,308.30 L 368.85,310.08 L 369.85,311.58 L 371.36,312.59 L 373.14,312.94 L 374.91,312.59 L 376.42,311.58 L 377.42,310.08 L 377.78,308.30 Z M 391.54,308.30 L 391.12,310.42 L 389.92,312.22 L 388.12,313.42 L 386.00,313.84 L 383.88,313.42 L 382.08,312.22 L 380.88,310.42 L 380.46,308.30 L 380.88,306.18 L 382.08,304.38 L 383.88,303.18 L 386.00,302.76 L 388.12,303.18 L 389.92,304.38 L 391.12,306.18 L 391.54,308.30 L 390.64,308.30 L 390.29,306.52 L 389.28,305.02 L 387.78,304.01 L 386.00,303.66 L 384.22,304.01 L 382.72,305.02 L 381.71,306.52 L 381.36,308.30 L 381.71,310.08 L 382.72,311.58 L 384.22,312.59 L 386.00,312.94 L 387.78,312.59 L 389.28,311.58 L 390.29,310.08 L 390.64,308.30 Z M 404.41,308.30 L 403.98,310.42 L 402.78,312.22 L 400.98,313.42 L 398.86,313.84 L 396.74,313.42 L 394.95,312.22 L 393.74,310.42 L 393.32,308.30 L 393.74,306.18 L 394.95,304.38 L 396.74,303.18 L 398.86,302.76 L 400.98,303.18 L 402.78,304.38 L 403.98,306.18 L 404.41,308.30 L 403.51,308.30 L 403.15,306.52 L 402.15,305.02 L 400.64,304.01 L 398.86,303.66 L 397.09,304.01 L 395.58,305.02 L 394.58,306.52 L 394.22,308.30 L 394.58,310.08 L 395.58,311.58 L 397.09,312.59 L 398.86,312.94 L 400.64,312.59 L 402.15,311.58 L 403.15,310.08 L 403.51,308.30 Z M 417.27,308.30 L 416.85,310.42 L 415.65,312.22 L 413.85,313.42 L 411.73,313.84 L 409.61,313.42 L 407.81,312.22 L 406.61,310.42 L 406.19,308.30 L 406.61,306.18 L 407.81,304.38 L 409.61,303.18 L 411.73,302.76 L 413.85,303.18 L 415.65,304.38 L 416.85,306.18 L 417.27,308.30 L 416.37,308.30 L 416.02,306.52 L 415.01,305.02 L 413.50,304.01 L 411.73,303.66 L 409.95,304.01 L 408.45,305.02 L 407.44,306.52 L 407.09,308.30 L 407.44,310.08 L 408.45,311.58 L 409.95,312.59 L 411.73,312.94 L 413.50,312.59 L 415.01,311.58 L 416.02,310.08 L 416.37,308.30 Z M 430.13,308.30 L 429.71,310.42 L 428.51,312.22 L 426.71,313.42 L 424.59,313.84 L 422.47,313.42 L 420.67,312.22 L 419.47,310.42 L 419.05,308.30 L 419.47,306.18 L 420.67,304.38 L 422.47,303.18 L 424.59,302.76 L 426.71,303.18 L 428.51,304.38 L 429.71,306.18 L 430.13,308.30 L 429.23,308.30 L 428.88,306.52 L 427.87,305.02 L 426.37,304.01 L 424.59,303.66 L 422.82,304.01 L 421.31,305.02 L 420.30,306.52 L 419.95,308.30 L 420.30,310.08 L 421.31,311.58 L 422.82,312.59 L 424.59,312.94 L 426.37,312.59 L 427.87,311.58 L 428.88,310.08 L 429.23,308.30 Z M 443.00,308.30 L 442.58,310.42 L 441.37,312.22 L 439.58,313.42 L 437.46,313.84 L 435.34,313.42 L 433.54,312.22 L 432.34,310.42 L 431.91,308.30 L 432.34,306.18 L 433.54,304.38 L 435.34,303.18 L 437.46,302.76 L 439.58,303.18 L 441.37,304.38 L 442.58,306.18 L 443.00,308.30 L 442.10,308.30 L 441.74,306.52 L 440.74,305.02 L 439.23,304.01 L 437.46,303.66 L 435.68,304.01 L 434.17,305.02 L 433.17,306.52 L 432.81,308.30 L 433.17,310.08 L 434.17,311.58 L 435.68,312.59 L 437.46,312.94 L 439.23,312.59 L 440.74,311.58 L 441.74,310.08 L 442.10,308.30 Z M 455.86,308.30 L 455.44,310.42 L 454.24,312.22 L 452.44,313.42 L 450.32,313.84 L 448.20,313.42 L 446.40,312.22 L 445.20,310.42 L 444.78,308.30 L 445.20,306.18 L 446.40,304.38 L 448.20,303.18 L 450.32,302.76 L 452.44,303.18 L 454.24,304.38 L 455.44,306.18 L 455.86,308.30 L 454.96,308.30 L 454.61,306.52 L 453.60,305.02 L 452.10,304.01 L 450.32,303.66 L 448.54,304.01 L 447.04,305.02 L 446.03,306.52 L 445.68,308.30 L 446.03,310.08 L 447.04,311.58 L 448.54,312.59 L 450.32,312.94 L 452.10,312.59 L 453.60,311.58 L 454.61,310.08 L 454.96,308.30 Z M 406.20,207.80 L 405.78,211.87 L 404.56,215.76 L 402.58,219.34 L 399.91,222.44 L 396.68,224.94 L 393.01,226.74 L 389.06,227.76 L 384.98,227.97 L 380.94,227.35 L 377.11,225.93 L 373.64,223.77 L 370.68,220.96 L 368.34,217.60 L 366.73,213.85 L 365.91,209.84 L 365.91,205.76 L 366.73,201.75 L 368.34,198.00 L 370.68,194.64 L 373.64,191.83 L 377.11,189.67 L 380.94,188.25 L 384.98,187.63 L 389.06,187.84 L 393.01,188.86 L 396.68,190.66 L 399.91,193.16 L 402.58,196.26 L 404.56,199.84 L 405.78,203.73 L 406.20,207.80 L 404.40,207.80 L 404.02,204.10 L 402.91,200.55 L 401.10,197.29 L 398.67,194.47 L 395.73,192.19 L 392.39,190.55 L 388.79,189.62 L 385.07,189.43 L 381.39,189.99 L 377.90,191.28 L 374.74,193.25 L 372.04,195.82 L 369.92,198.87 L 368.45,202.29 L 367.70,205.94 L 367.70,209.66 L 368.45,213.31 L 369.92,216.73 L 372.04,219.78 L 374.74,222.35 L 377.90,224.32 L 381.39,225.61 L 385.07,226.17 L 388.79,225.98 L 392.39,225.05 L 395.73,223.41 L 398.67,221.13 L 401.10,218.31 L 402.91,215.05 L 404.02,211.50 L 404.40,207.80 Z M 395.66,207.80 L 395.23,210.65 L 393.98,213.24 L 392.02,215.35 L 389.53,216.79 L 386.72,217.43 L 383.85,217.22 L 381.17,216.17 L 378.92,214.37 L 377.29,211.99 L 376.45,209.24 L 376.45,206.36 L 377.29,203.61 L 378.92,201.23 L 381.17,199.43 L 383.85,198.38 L 386.72,198.17 L 389.53,198.81 L 392.02,200.25 L 393.98,202.36 L 395.23,204.95 L 395.66,207.80 L 394.56,207.80 L 394.18,205.28 L 393.07,202.98 L 391.34,201.11 L 389.13,199.83 L 386.64,199.26 L 384.09,199.45 L 381.72,200.39 L 379.72,201.98 L 378.29,204.09 L 377.53,206.52 L 377.53,209.08 L 378.29,211.51 L 379.72,213.62 L 381.72,215.21 L 384.09,216.15 L 386.64,216.34 L 389.13,215.77 L 391.34,214.49 L 393.07,212.62 L 394.18,210.32 L 394.56,207.80 Z M 367.40,207.80 L 367.40,237.28 L 366.00,237.28 L 366.00,207.80 Z M 406.00,207.80 L 406.00,237.28 L 404.60,237.28 L 404.60,207.80 Z M 366.44,200.46 L 278.53,166.96 L 279.07,165.56 L 366.97,199.06 Z M 295.47,149.38 L 263.31,184.22 L 262.13,183.14 L 294.29,148.30 Z M 405.03,199.06 L 492.93,165.56 L 493.47,166.96 L 405.56,200.46 Z M 477.71,148.30 L 509.87,183.14 L 508.69,184.22 L 476.53,149.38 Z M 587.90,355.20 L 587.51,361.57 L 586.33,367.84 L 584.40,373.92 L 581.73,379.72 L 578.38,385.14 L 574.38,390.11 L 569.80,394.55 L 564.70,398.40 L 559.18,401.59 L 553.30,404.07 L 547.17,405.82 L 540.86,406.80 L 534.48,407.00 L 528.13,406.41 L 521.90,405.04 L 515.88,402.92 L 510.17,400.08 L 504.85,396.55 L 500.01,392.40 L 495.71,387.69 L 492.02,382.48 L 489.00,376.86 L 486.70,370.91 L 485.14,364.72 L 484.36,358.39 L 484.36,352.01 L 485.14,345.68 L 486.70,339.49 L 489.00,333.54 L 492.02,327.92 L 495.71,322.71 L 500.01,318.00 L 504.85,313.85 L 510.17,310.32 L 515.88,307.48 L 521.90,305.36 L 528.13,303.99 L 534.48,303.40 L 540.86,303.60 L 547.17,304.58 L 553.30,306.33 L 559.18,308.81 L 564.70,312.00 L 569.80,315.85 L 574.38,320.29 L 578.38,325.26 L 581.73,330.68 L 584.40,336.48 L 586.33,342.56 L 587.51,348.83 L 587.90,355.20 L 586.10,355.20 L 585.72,349.05 L 584.59,343.00 L 582.72,337.13 L 580.15,331.54 L 576.91,326.30 L 573.05,321.50 L 568.62,317.21 L 563.71,313.50 L 558.38,310.42 L 552.70,308.02 L 546.78,306.34 L 540.70,305.39 L 534.54,305.20 L 528.41,305.77 L 522.39,307.09 L 516.58,309.14 L 511.07,311.88 L 505.94,315.28 L 501.26,319.29 L 497.11,323.84 L 493.55,328.87 L 490.64,334.29 L 488.41,340.04 L 486.91,346.01 L 486.15,352.12 L 486.15,358.28 L 486.91,364.39 L 488.41,370.36 L 490.64,376.11 L 493.55,381.53 L 497.11,386.56 L 501.26,391.11 L 505.94,395.12 L 511.07,398.52 L 516.58,401.26 L 522.39,403.31 L 528.41,404.63 L 534.54,405.20 L 540.70,405.01 L 546.78,404.06 L 552.70,402.38 L 558.38,399.98 L 563.71,396.90 L 568.62,393.19 L 573.05,388.90 L 576.91,384.10 L 580.15,378.86 L 582.72,373.27 L 584.59,367.40 L 585.72,361.35 L 586.10,355.20 Z M 576.78,355.20 L 576.38,360.86 L 575.20,366.42 L 573.26,371.75 L 570.60,376.77 L 567.26,381.36 L 563.31,385.45 L 558.84,388.94 L 553.92,391.78 L 548.66,393.91 L 543.15,395.28 L 537.50,395.88 L 531.83,395.68 L 526.23,394.69 L 520.83,392.94 L 515.73,390.45 L 511.02,387.27 L 506.80,383.47 L 503.15,379.12 L 500.14,374.31 L 497.83,369.12 L 496.27,363.66 L 495.48,358.04 L 495.48,352.36 L 496.27,346.74 L 497.83,341.28 L 500.14,336.09 L 503.15,331.28 L 506.80,326.93 L 511.02,323.13 L 515.73,319.95 L 520.83,317.46 L 526.23,315.71 L 531.83,314.72 L 537.50,314.52 L 543.15,315.12 L 548.66,316.49 L 553.92,318.62 L 558.84,321.46 L 563.31,324.95 L 567.26,329.04 L 570.60,333.63 L 573.26,338.65 L 575.20,343.98 L 576.38,349.54 L 576.78,355.20 L 575.78,355.20 L 575.39,349.67 L 574.24,344.26 L 572.35,339.05 L 569.75,334.16 L 566.49,329.68 L 562.64,325.70 L 558.28,322.29 L 553.48,319.52 L 548.35,317.44 L 542.97,316.10 L 537.47,315.52 L 531.93,315.72 L 526.48,316.68 L 521.21,318.39 L 516.23,320.82 L 511.64,323.92 L 507.52,327.62 L 503.96,331.86 L 501.03,336.56 L 498.77,341.62 L 497.25,346.95 L 496.48,352.43 L 496.48,357.97 L 497.25,363.45 L 498.77,368.78 L 501.03,373.84 L 503.96,378.54 L 507.52,382.78 L 511.64,386.48 L 516.23,389.58 L 521.21,392.01 L 526.48,393.72 L 531.93,394.68 L 537.47,394.88 L 542.97,394.30 L 548.35,392.96 L 553.48,390.88 L 558.28,388.11 L 562.64,384.70 L 566.49,380.72 L 569.75,376.24 L 572.35,371.35 L 574.24,366.14 L 575.39,360.73 L 575.78,355.20 Z M 579.86,467.76 L 579.47,473.60 L 578.30,479.33 L 576.39,484.85 L 573.75,490.07 L 570.44,494.89 L 566.52,499.23 L 562.05,503.01 L 557.12,506.15 L 551.81,508.61 L 546.23,510.35 L 540.46,511.32 L 534.62,511.52 L 528.80,510.93 L 523.11,509.57 L 517.65,507.47 L 512.52,504.66 L 507.81,501.19 L 503.61,497.13 L 499.99,492.54 L 497.01,487.51 L 494.72,482.12 L 493.18,476.48 L 492.40,470.68 L 492.40,464.84 L 493.18,459.04 L 494.72,453.40 L 497.01,448.01 L 499.99,442.98 L 503.61,438.39 L 507.81,434.33 L 512.52,430.86 L 517.65,428.05 L 523.11,425.95 L 528.80,424.59 L 534.62,424.00 L 540.46,424.20 L 546.23,425.17 L 551.81,426.91 L 557.12,429.37 L 562.05,432.51 L 566.52,436.29 L 570.44,440.63 L 573.75,445.45 L 576.39,450.67 L 578.30,456.19 L 579.47,461.92 L 579.86,467.76 L 578.06,467.76 L 577.69,462.16 L 576.57,456.67 L 574.73,451.37 L 572.20,446.37 L 569.03,441.74 L 565.26,437.58 L 560.98,433.96 L 556.25,430.95 L 551.17,428.59 L 545.81,426.92 L 540.28,425.99 L 534.68,425.80 L 529.10,426.36 L 523.64,427.66 L 518.41,429.68 L 513.49,432.38 L 508.98,435.70 L 504.95,439.60 L 501.47,444.00 L 498.61,448.83 L 496.42,453.99 L 494.94,459.40 L 494.19,464.96 L 494.19,470.56 L 494.94,476.12 L 496.42,481.53 L 498.61,486.69 L 501.47,491.52 L 504.95,495.92 L 508.98,499.82 L 513.49,503.14 L 518.41,505.84 L 523.64,507.86 L 529.10,509.16 L 534.68,509.72 L 540.28,509.53 L 545.81,508.60 L 551.17,506.93 L 556.25,504.57 L 560.98,501.56 L 565.26,497.94 L 569.03,493.78 L 572.20,489.15 L 574.73,484.15 L 576.57,478.85 L 577.69,473.36 L 578.06,467.76 Z M 569.81,467.76 L 569.42,472.91 L 568.24,477.94 L 566.31,482.73 L 563.67,487.17 L 560.38,491.15 L 556.53,494.59 L 552.19,497.39 L 547.48,499.51 L 542.50,500.87 L 537.37,501.47 L 532.21,501.27 L 527.14,500.29 L 522.28,498.54 L 517.74,496.07 L 513.64,492.94 L 510.06,489.22 L 507.08,485.00 L 504.79,480.37 L 503.24,475.45 L 502.45,470.34 L 502.45,465.18 L 503.24,460.07 L 504.79,455.15 L 507.08,450.52 L 510.06,446.30 L 513.64,442.58 L 517.74,439.45 L 522.28,436.98 L 527.14,435.23 L 532.21,434.25 L 537.37,434.05 L 542.50,434.65 L 547.48,436.01 L 552.19,438.13 L 556.53,440.93 L 560.38,444.37 L 563.67,448.35 L 566.31,452.79 L 568.24,457.58 L 569.42,462.61 L 569.81,467.76 L 568.81,467.76 L 568.43,462.76 L 567.29,457.88 L 565.41,453.24 L 562.85,448.93 L 559.66,445.06 L 555.92,441.73 L 551.72,439.00 L 547.14,436.95 L 542.31,435.63 L 537.33,435.05 L 532.33,435.24 L 527.41,436.20 L 522.69,437.89 L 518.29,440.29 L 514.30,443.32 L 510.83,446.93 L 507.94,451.03 L 505.72,455.52 L 504.21,460.30 L 503.44,465.25 L 503.44,470.27 L 504.21,475.22 L 505.72,480.00 L 507.94,484.49 L 510.83,488.59 L 514.30,492.20 L 518.29,495.23 L 522.69,497.63 L 527.41,499.32 L 532.33,500.28 L 537.33,500.47 L 542.31,499.89 L 547.14,498.57 L 551.72,496.52 L 555.92,493.79 L 559.66,490.46 L 562.85,486.59 L 565.41,482.28 L 567.29,477.64 L 568.43,472.76 L 568.81,467.76 Z M 550.59,354.87 L 572.88,339.22 L 573.34,339.87 L 551.05,355.53 Z M 548.18,467.43 L 566.46,454.49 L 566.92,455.15 L 548.64,468.09 Z M 547.63,346.41 L 556.46,320.64 L 557.21,320.90 L 548.38,346.67 Z M 545.67,460.39 L 552.86,439.17 L 553.62,439.43 L 546.43,460.64 Z M 540.25,341.30 L 532.25,315.27 L 533.02,315.03 L 541.02,341.06 Z M 539.51,456.15 L 532.85,434.77 L 533.61,434.53 L 540.27,455.92 Z M 531.28,341.50 L 509.51,325.14 L 509.99,324.50 L 531.77,340.86 Z M 532.03,456.36 L 514.07,442.97 L 514.55,442.33 L 532.51,455.71 Z M 524.15,346.94 L 496.92,346.50 L 496.93,345.70 L 524.16,346.14 Z M 526.10,460.91 L 503.71,460.64 L 503.72,459.84 L 526.11,460.11 Z M 521.57,355.53 L 499.28,371.18 L 498.82,370.53 L 521.11,354.87 Z M 523.98,468.09 L 505.70,481.03 L 505.24,480.37 L 523.52,467.43 Z M 524.53,363.99 L 515.70,389.76 L 514.95,389.50 L 523.78,363.73 Z M 526.49,475.13 L 519.30,496.35 L 518.54,496.09 L 525.73,474.88 Z M 531.91,369.10 L 539.91,395.13 L 539.14,395.37 L 531.14,369.34 Z M 532.65,479.37 L 539.31,500.75 L 538.55,500.99 L 531.89,479.60 Z M 540.88,368.90 L 562.65,385.26 L 562.17,385.90 L 540.39,369.54 Z M 540.13,479.16 L 558.09,492.55 L 557.61,493.19 L 539.65,479.81 Z M 548.01,363.46 L 575.24,363.90 L 575.23,364.70 L 548.00,364.26 Z M 546.06,474.61 L 568.45,474.88 L 568.44,475.68 L 546.05,475.41 Z M 523.05,467.76 L 523.05,355.20 L 524.45,355.20 L 524.45,467.76 Z M 547.71,467.76 L 547.71,355.20 L 549.11,355.20 L 549.11,467.76 Z M 496.32,290.21 L 575.84,290.21 L 565.66,245.99 L 506.50,245.99 L 496.32,290.21 L 495.44,291.55 L 505.63,244.65 L 566.53,244.65 L 576.72,291.55 L 495.44,291.55 Z M 536.68,290.88 L 536.68,298.88 L 535.48,298.88 L 535.48,290.88 Z M 536.68,304.88 L 536.68,312.88 L 535.48,312.88 L 535.48,304.88 Z M 467.10,304.02 L 485.86,354.94 L 484.46,355.46 L 465.70,304.54 Z M 466.40,316.93 L 501.98,317.55 L 493.95,467.80 L 492.45,467.72 L 500.50,317.81 L 466.40,318.43 Z M 505.59,244.80 L 541.32,212.47 L 598.41,229.12 L 598.39,529.59 L 486.19,620.83 L 508.40,711.50 L 524.62,802.65 L 538.20,893.78 L 550.17,984.91 L 548.79,985.09 L 536.81,893.98 L 523.24,802.87 L 507.03,711.78 L 484.93,620.21 L 597.05,529.21 L 597.03,229.36 L 541.56,213.85 L 506.53,245.84 Z M 459.01,310.82 L 472.94,296.89 L 473.79,297.74 L 459.86,311.67 Z M 493.85,324.22 L 507.78,310.29 L 508.63,311.14 L 494.70,325.07 Z M 385.45,1054.68 L 385.45,1028.68 L 386.55,1028.68 L 386.55,1054.68 Z M 385.45,1018.68 L 385.45,1014.68 L 386.55,1014.68 L 386.55,1018.68 Z M 385.45,1004.68 L 385.45,978.68 L 386.55,978.68 L 386.55,1004.68 Z M 385.45,968.68 L 385.45,964.68 L 386.55,964.68 L 386.55,968.68 Z M 385.45,954.68 L 385.45,928.68 L 386.55,928.68 L 386.55,954.68 Z M 385.45,918.68 L 385.45,914.68 L 386.55,914.68 L 386.55,918.68 Z M 385.45,904.68 L 385.45,878.68 L 386.55,878.68 L 386.55,904.68 Z M 385.45,868.68 L 385.45,864.68 L 386.55,864.68 L 386.55,868.68 Z M 385.45,854.68 L 385.45,828.68 L 386.55,828.68 L 386.55,854.68 Z M 385.45,818.68 L 385.45,814.68 L 386.55,814.68 L 386.55,818.68 Z M 385.45,804.68 L 385.45,778.68 L 386.55,778.68 L 386.55,804.68 Z M 385.45,768.68 L 385.45,764.68 L 386.55,764.68 L 386.55,768.68 Z M 385.45,754.68 L 385.45,728.68 L 386.55,728.68 L 386.55,754.68 Z M 385.45,718.68 L 385.45,714.68 L 386.55,714.68 L 386.55,718.68 Z M 385.45,704.68 L 385.45,678.68 L 386.55,678.68 L 386.55,704.68 Z M 385.45,668.68 L 385.45,664.68 L 386.55,664.68 L 386.55,668.68 Z M 385.45,654.68 L 385.45,628.68 L 386.55,628.68 L 386.55,654.68 Z M 385.45,618.68 L 385.45,614.68 L 386.55,614.68 L 386.55,618.68 Z M 385.45,604.68 L 385.45,578.68 L 386.55,578.68 L 386.55,604.68 Z M 385.45,568.68 L 385.45,564.68 L 386.55,564.68 L 386.55,568.68 Z M 385.45,554.68 L 385.45,528.68 L 386.55,528.68 L 386.55,554.68 Z M 385.45,518.68 L 385.45,514.68 L 386.55,514.68 L 386.55,518.68 Z M 385.45,504.68 L 385.45,478.68 L 386.55,478.68 L 386.55,504.68 Z M 385.45,468.68 L 385.45,464.68 L 386.55,464.68 L 386.55,468.68 Z M 385.45,454.68 L 385.45,428.68 L 386.55,428.68 L 386.55,454.68 Z M 385.45,418.68 L 385.45,414.68 L 386.55,414.68 L 386.55,418.68 Z M 385.45,404.68 L 385.45,378.68 L 386.55,378.68 L 386.55,404.68 Z M 385.45,368.68 L 385.45,364.68 L 386.55,364.68 L 386.55,368.68 Z M 385.45,354.68 L 385.45,328.68 L 386.55,328.68 L 386.55,354.68 Z M 385.45,318.68 L 385.45,314.68 L 386.55,314.68 L 386.55,318.68 Z M 385.45,304.68 L 385.45,278.68 L 386.55,278.68 L 386.55,304.68 Z M 385.45,268.68 L 385.45,264.68 L 386.55,264.68 L 386.55,268.68 Z M 385.45,254.68 L 385.45,228.68 L 386.55,228.68 L 386.55,254.68 Z M 385.45,218.68 L 385.45,214.68 L 386.55,214.68 L 386.55,218.68 Z M 385.45,204.68 L 385.45,178.68 L 386.55,178.68 L 386.55,204.68 Z M 385.45,168.68 L 385.45,164.68 L 386.55,164.68 L 386.55,168.68 Z M 385.45,154.68 L 385.45,128.68 L 386.55,128.68 L 386.55,154.68 Z M 262.72,1076.45 L 509.28,1076.45 L 509.28,1077.55 L 262.72,1077.55 Z M 251.17,1084.94 L 262.39,1076.56 L 263.05,1077.44 L 251.83,1085.82 Z M 251.83,1068.18 L 263.05,1076.56 L 262.39,1077.44 L 251.17,1069.06 Z M 520.83,1069.06 L 509.61,1077.44 L 508.95,1076.56 L 520.17,1068.18 Z M 520.17,1085.82 L 508.95,1077.44 L 509.61,1076.56 L 520.83,1084.94 Z M 263.16,985.00 L 263.16,1088.04 L 262.28,1088.04 L 262.28,985.00 Z M 509.72,985.00 L 509.72,1088.04 L 508.84,1088.04 L 508.84,985.00 Z M 158.17,985.00 L 158.17,156.88 L 159.27,156.88 L 159.27,985.00 Z M 165.46,994.94 L 158.28,985.33 L 159.16,984.67 L 166.34,994.28 Z M 151.10,994.28 L 158.28,984.67 L 159.16,985.33 L 151.98,994.94 Z M 151.98,146.94 L 159.16,156.55 L 158.28,157.21 L 151.10,147.60 Z M 166.34,147.60 L 159.16,157.21 L 158.28,156.55 L 165.46,146.94 Z M 531.36,904.15 L 543.36,904.15 L 543.36,905.05 L 531.36,905.05 Z M 550.36,904.15 L 562.36,904.15 L 562.36,905.05 L 550.36,905.05 Z M 569.36,904.15 L 581.36,904.15 L 581.36,905.05 L 569.36,905.05 Z M 588.36,904.15 L 600.36,904.15 L 600.36,905.05 L 588.36,905.05 Z M 607.36,904.15 L 619.36,904.15 L 619.36,905.05 L 607.36,905.05 Z M 626.36,904.15 L 638.36,904.15 L 638.36,905.05 L 626.36,905.05 Z M 645.36,904.15 L 657.36,904.15 L 657.36,905.05 L 645.36,905.05 Z M 664.36,904.15 L 676.36,904.15 L 676.36,905.05 L 664.36,905.05 Z M 683.36,904.15 L 695.36,904.15 L 695.36,905.05 L 683.36,905.05 Z M 702.36,904.15 L 714.36,904.15 L 714.36,905.05 L 702.36,905.05 Z M 721.36,904.15 L 733.36,904.15 L 733.36,905.05 L 721.36,905.05 Z M 740.36,904.15 L 752.36,904.15 L 752.36,905.05 L 740.36,905.05 Z M 759.36,904.15 L 771.36,904.15 L 771.36,905.05 L 759.36,905.05 Z M 778.36,904.15 L 790.36,904.15 L 790.36,905.05 L 778.36,905.05 Z M 797.36,904.15 L 809.36,904.15 L 809.36,905.05 L 797.36,905.05 Z M 816.36,904.15 L 826.00,904.15 L 826.00,905.05 L 816.36,905.05 Z M 436.22,569.15 L 448.22,569.15 L 448.22,570.05 L 436.22,570.05 Z M 455.22,569.15 L 467.22,569.15 L 467.22,570.05 L 455.22,570.05 Z M 474.22,569.15 L 486.22,569.15 L 486.22,570.05 L 474.22,570.05 Z M 493.22,569.15 L 505.22,569.15 L 505.22,570.05 L 493.22,570.05 Z M 512.22,569.15 L 524.22,569.15 L 524.22,570.05 L 512.22,570.05 Z M 531.22,569.15 L 543.22,569.15 L 543.22,570.05 L 531.22,570.05 Z M 550.22,569.15 L 562.22,569.15 L 562.22,570.05 L 550.22,570.05 Z M 569.22,569.15 L 581.22,569.15 L 581.22,570.05 L 569.22,570.05 Z M 588.22,569.15 L 600.22,569.15 L 600.22,570.05 L 588.22,570.05 Z M 607.22,569.15 L 619.22,569.15 L 619.22,570.05 L 607.22,570.05 Z M 626.22,569.15 L 638.22,569.15 L 638.22,570.05 L 626.22,570.05 Z M 645.22,569.15 L 657.22,569.15 L 657.22,570.05 L 645.22,570.05 Z M 664.22,569.15 L 676.22,569.15 L 676.22,570.05 L 664.22,570.05 Z M 683.22,569.15 L 695.22,569.15 L 695.22,570.05 L 683.22,570.05 Z M 702.22,569.15 L 714.22,569.15 L 714.22,570.05 L 702.22,570.05 Z M 721.22,569.15 L 733.22,569.15 L 733.22,570.05 L 721.22,570.05 Z M 740.22,569.15 L 752.22,569.15 L 752.22,570.05 L 740.22,570.05 Z M 759.22,569.15 L 771.22,569.15 L 771.22,570.05 L 759.22,570.05 Z M 778.22,569.15 L 790.22,569.15 L 790.22,570.05 L 778.22,570.05 Z M 797.22,569.15 L 809.22,569.15 L 809.22,570.05 L 797.22,570.05 Z M 816.22,569.15 L 826.00,569.15 L 826.00,570.05 L 816.22,570.05 Z M 467.04,400.31 L 479.04,400.31 L 479.04,401.21 L 467.04,401.21 Z M 486.04,400.31 L 498.04,400.31 L 498.04,401.21 L 486.04,401.21 Z M 505.04,400.31 L 517.04,400.31 L 517.04,401.21 L 505.04,401.21 Z M 524.04,400.31 L 536.04,400.31 L 536.04,401.21 L 524.04,401.21 Z M 543.04,400.31 L 555.04,400.31 L 555.04,401.21 L 543.04,401.21 Z M 562.04,400.31 L 574.04,400.31 L 574.04,401.21 L 562.04,401.21 Z M 581.04,400.31 L 593.04,400.31 L 593.04,401.21 L 581.04,401.21 Z M 600.04,400.31 L 612.04,400.31 L 612.04,401.21 L 600.04,401.21 Z M 619.04,400.31 L 631.04,400.31 L 631.04,401.21 L 619.04,401.21 Z M 638.04,400.31 L 650.04,400.31 L 650.04,401.21 L 638.04,401.21 Z M 657.04,400.31 L 669.04,400.31 L 669.04,401.21 L 657.04,401.21 Z M 676.04,400.31 L 688.04,400.31 L 688.04,401.21 L 676.04,401.21 Z M 695.04,400.31 L 707.04,400.31 L 707.04,401.21 L 695.04,401.21 Z M 714.04,400.31 L 726.04,400.31 L 726.04,401.21 L 714.04,401.21 Z M 733.04,400.31 L 745.04,400.31 L 745.04,401.21 L 733.04,401.21 Z M 752.04,400.31 L 764.04,400.31 L 764.04,401.21 L 752.04,401.21 Z M 771.04,400.31 L 783.04,400.31 L 783.04,401.21 L 771.04,401.21 Z M 790.04,400.31 L 802.04,400.31 L 802.04,401.21 L 790.04,401.21 Z M 809.04,400.31 L 821.04,400.31 L 821.04,401.21 L 809.04,401.21 Z M 475.08,309.19 L 487.08,309.19 L 487.08,310.09 L 475.08,310.09 Z M 494.08,309.19 L 506.08,309.19 L 506.08,310.09 L 494.08,310.09 Z M 513.08,309.19 L 525.08,309.19 L 525.08,310.09 L 513.08,310.09 Z M 532.08,309.19 L 544.08,309.19 L 544.08,310.09 L 532.08,310.09 Z M 551.08,309.19 L 563.08,309.19 L 563.08,310.09 L 551.08,310.09 Z M 570.08,309.19 L 582.08,309.19 L 582.08,310.09 L 570.08,310.09 Z M 589.08,309.19 L 601.08,309.19 L 601.08,310.09 L 589.08,310.09 Z M 608.08,309.19 L 620.08,309.19 L 620.08,310.09 L 608.08,310.09 Z M 627.08,309.19 L 639.08,309.19 L 639.08,310.09 L 627.08,310.09 Z M 646.08,309.19 L 658.08,309.19 L 658.08,310.09 L 646.08,310.09 Z M 665.08,309.19 L 677.08,309.19 L 677.08,310.09 L 665.08,310.09 Z M 684.08,309.19 L 696.08,309.19 L 696.08,310.09 L 684.08,310.09 Z M 703.08,309.19 L 715.08,309.19 L 715.08,310.09 L 703.08,310.09 Z M 722.08,309.19 L 734.08,309.19 L 734.08,310.09 L 722.08,310.09 Z M 741.08,309.19 L 753.08,309.19 L 753.08,310.09 L 741.08,310.09 Z M 760.08,309.19 L 772.08,309.19 L 772.08,310.09 L 760.08,310.09 Z M 779.08,309.19 L 791.08,309.19 L 791.08,310.09 L 779.08,310.09 Z M 798.08,309.19 L 810.08,309.19 L 810.08,310.09 L 798.08,310.09 Z M 817.08,309.19 L 826.00,309.19 L 826.00,310.09 L 817.08,310.09 Z M 595.68,354.75 L 607.68,354.75 L 607.68,355.65 L 595.68,355.65 Z M 614.68,354.75 L 626.68,354.75 L 626.68,355.65 L 614.68,355.65 Z M 633.68,354.75 L 645.68,354.75 L 645.68,355.65 L 633.68,355.65 Z M 652.68,354.75 L 664.68,354.75 L 664.68,355.65 L 652.68,355.65 Z M 671.68,354.75 L 683.68,354.75 L 683.68,355.65 L 671.68,355.65 Z M 690.68,354.75 L 702.68,354.75 L 702.68,355.65 L 690.68,355.65 Z M 709.68,354.75 L 721.68,354.75 L 721.68,355.65 L 709.68,355.65 Z M 728.68,354.75 L 740.68,354.75 L 740.68,355.65 L 728.68,355.65 Z M 747.68,354.75 L 759.68,354.75 L 759.68,355.65 L 747.68,355.65 Z M 766.68,354.75 L 778.68,354.75 L 778.68,355.65 L 766.68,355.65 Z M 785.68,354.75 L 797.68,354.75 L 797.68,355.65 L 785.68,355.65 Z M 804.68,354.75 L 816.68,354.75 L 816.68,355.65 L 804.68,355.65 Z M 823.68,354.75 L 826.00,354.75 L 826.00,355.65 L 823.68,355.65 Z M 584.96,255.59 L 596.96,255.59 L 596.96,256.49 L 584.96,256.49 Z M 603.96,255.59 L 615.96,255.59 L 615.96,256.49 L 603.96,256.49 Z M 622.96,255.59 L 634.96,255.59 L 634.96,256.49 L 622.96,256.49 Z M 641.96,255.59 L 653.96,255.59 L 653.96,256.49 L 641.96,256.49 Z M 660.96,255.59 L 672.96,255.59 L 672.96,256.49 L 660.96,256.49 Z M 679.96,255.59 L 691.96,255.59 L 691.96,256.49 L 679.96,256.49 Z M 698.96,255.59 L 710.96,255.59 L 710.96,256.49 L 698.96,256.49 Z M 717.96,255.59 L 729.96,255.59 L 729.96,256.49 L 717.96,256.49 Z M 736.96,255.59 L 748.96,255.59 L 748.96,256.49 L 736.96,256.49 Z M 755.96,255.59 L 767.96,255.59 L 767.96,256.49 L 755.96,256.49 Z M 774.96,255.59 L 786.96,255.59 L 786.96,256.49 L 774.96,256.49 Z M 793.96,255.59 L 805.96,255.59 L 805.96,256.49 L 793.96,256.49 Z M 812.96,255.59 L 824.96,255.59 L 824.96,256.49 L 812.96,256.49 Z M 416.12,207.35 L 428.12,207.35 L 428.12,208.25 L 416.12,208.25 Z M 435.12,207.35 L 447.12,207.35 L 447.12,208.25 L 435.12,208.25 Z M 454.12,207.35 L 466.12,207.35 L 466.12,208.25 L 454.12,208.25 Z M 473.12,207.35 L 485.12,207.35 L 485.12,208.25 L 473.12,208.25 Z M 492.12,207.35 L 504.12,207.35 L 504.12,208.25 L 492.12,208.25 Z M 511.12,207.35 L 523.12,207.35 L 523.12,208.25 L 511.12,208.25 Z M 530.12,207.35 L 542.12,207.35 L 542.12,208.25 L 530.12,208.25 Z M 549.12,207.35 L 561.12,207.35 L 561.12,208.25 L 549.12,208.25 Z M 568.12,207.35 L 580.12,207.35 L 580.12,208.25 L 568.12,208.25 Z M 587.12,207.35 L 599.12,207.35 L 599.12,208.25 L 587.12,208.25 Z M 606.12,207.35 L 618.12,207.35 L 618.12,208.25 L 606.12,208.25 Z M 625.12,207.35 L 637.12,207.35 L 637.12,208.25 L 625.12,208.25 Z M 644.12,207.35 L 656.12,207.35 L 656.12,208.25 L 644.12,208.25 Z M 663.12,207.35 L 675.12,207.35 L 675.12,208.25 L 663.12,208.25 Z M 682.12,207.35 L 694.12,207.35 L 694.12,208.25 L 682.12,208.25 Z M 701.12,207.35 L 713.12,207.35 L 713.12,208.25 L 701.12,208.25 Z M 720.12,207.35 L 732.12,207.35 L 732.12,208.25 L 720.12,208.25 Z M 739.12,207.35 L 751.12,207.35 L 751.12,208.25 L 739.12,208.25 Z M 758.12,207.35 L 770.12,207.35 L 770.12,208.25 L 758.12,208.25 Z M 777.12,207.35 L 789.12,207.35 L 789.12,208.25 L 777.12,208.25 Z M 796.12,207.35 L 808.12,207.35 L 808.12,208.25 L 796.12,208.25 Z M 815.12,207.35 L 826.00,207.35 L 826.00,208.25 L 815.12,208.25 Z" fill="url(#patronos)" fill-rule="nonzero" stroke="none"/>
    <text x="386.00" y="1068.00" font-family="Inter, 'Helvetica Neue', Helvetica, Arial, sans-serif" font-size="21" font-weight="500" letter-spacing="0.06em" text-anchor="middle" fill="url(#patronos)" stroke="none">Ø 920</text>
    <text x="146.72" y="570.94" font-family="Inter, 'Helvetica Neue', Helvetica, Arial, sans-serif" font-size="21" font-weight="500" letter-spacing="0.06em" text-anchor="end" fill="url(#patronos)" stroke="none">3 090</text>
    <text x="834.00" y="910.60" font-family="Inter, 'Helvetica Neue', Helvetica, Arial, sans-serif" font-size="16" font-weight="500" letter-spacing="0.06em" text-anchor="start" fill="url(#patronos)" stroke="none">TUBEIRA</text>
    <text x="834.00" y="575.60" font-family="Inter, 'Helvetica Neue', Helvetica, Arial, sans-serif" font-size="16" font-weight="500" letter-spacing="0.06em" text-anchor="start" fill="url(#patronos)" stroke="none">GARGANTA Ø 230</text>
    <text x="834.00" y="406.76" font-family="Inter, 'Helvetica Neue', Helvetica, Arial, sans-serif" font-size="16" font-weight="500" letter-spacing="0.06em" text-anchor="start" fill="url(#patronos)" stroke="none">CÂMARA</text>
    <text x="834.00" y="315.64" font-family="Inter, 'Helvetica Neue', Helvetica, Arial, sans-serif" font-size="16" font-weight="500" letter-spacing="0.06em" text-anchor="start" fill="url(#patronos)" stroke="none">INJETOR</text>
    <text x="834.00" y="361.20" font-family="Inter, 'Helvetica Neue', Helvetica, Arial, sans-serif" font-size="16" font-weight="500" letter-spacing="0.06em" text-anchor="start" fill="url(#patronos)" stroke="none">TURBOBOMBA</text>
    <text x="834.00" y="262.04" font-family="Inter, 'Helvetica Neue', Helvetica, Arial, sans-serif" font-size="16" font-weight="500" letter-spacing="0.06em" text-anchor="start" fill="url(#patronos)" stroke="none">GERADOR DE GÁS</text>
    <text x="834.00" y="213.80" font-family="Inter, 'Helvetica Neue', Helvetica, Arial, sans-serif" font-size="16" font-weight="500" letter-spacing="0.06em" text-anchor="start" fill="url(#patronos)" stroke="none">JUNTA CARDÃ</text>
</svg>
