<svg xmlns="http://www.w3.org/2000/svg" xmlns:xlink="http://www.w3.org/1999/xlink" width="158" zoomAndPan="magnify" viewBox="0 0 118.5 36.000001" height="48" preserveAspectRatio="xMidYMid meet" version="1.0"><path fill="#051c2c" d="M 11.375 4.34375 C 11.375 4.101562 10.714844 3.476562 10.507812 3.476562 L 9.941406 3.476562 L 9.941406 2.921875 L 13.234375 2.921875 L 16.628906 11.449219 L 16.699219 11.449219 L 20.269531 2.921875 L 23.210938 2.921875 L 23.210938 3.476562 L 22.683594 3.476562 C 22.476562 3.476562 21.816406 4.101562 21.816406 4.34375 L 21.816406 12.839844 C 21.816406 13.082031 22.476562 13.707031 22.683594 13.707031 L 23.210938 13.707031 L 23.210938 14.265625 L 18.859375 14.265625 L 18.859375 13.707031 L 19.414062 13.707031 C 19.621094 13.707031 20.28125 13.082031 20.28125 12.839844 L 20.28125 4.589844 L 16.15625 14.429688 L 12.054688 4.414062 L 12.054688 12.800781 C 12.054688 13.046875 12.714844 13.667969 12.921875 13.667969 L 13.476562 13.667969 L 13.476562 14.222656 L 9.941406 14.222656 L 9.941406 13.667969 L 10.46875 13.667969 C 10.675781 13.667969 11.335938 13.046875 11.335938 12.800781 Z M 11.375 4.34375 " fill-opacity="1" fill-rule="nonzero"/><path fill="#051c2c" d="M 27.972656 9.402344 C 28.179688 8.261719 27.972656 7.257812 26.71875 7.257812 C 25.269531 7.257812 24.539062 8.4375 24.539062 10.132812 C 24.539062 11.828125 25.59375 13.113281 27.242188 13.113281 C 27.730469 13.164062 28.1875 13.070312 28.613281 12.828125 C 29.039062 12.585938 29.355469 12.242188 29.5625 11.796875 L 30.015625 11.796875 C 29.53125 13.382812 28.558594 14.398438 26.71875 14.398438 C 24.679688 14.398438 23.359375 12.679688 23.359375 10.566406 C 23.359375 8.207031 24.917969 6.648438 26.863281 6.648438 C 27.351562 6.625 27.824219 6.707031 28.28125 6.890625 C 28.734375 7.074219 29.128906 7.347656 29.460938 7.707031 L 28.40625 9.371094 Z M 27.972656 9.402344 " fill-opacity="1" fill-rule="nonzero"/><path fill="#051c2c" d="M 42.765625 5.175781 C 42.890625 5.175781 43.011719 5.152344 43.128906 5.105469 C 43.246094 5.058594 43.347656 4.988281 43.4375 4.898438 C 43.523438 4.808594 43.59375 4.707031 43.636719 4.589844 C 43.683594 4.472656 43.703125 4.347656 43.699219 4.222656 C 43.707031 4.097656 43.6875 3.976562 43.644531 3.855469 C 43.597656 3.738281 43.53125 3.636719 43.441406 3.546875 C 43.351562 3.457031 43.25 3.390625 43.128906 3.34375 C 43.011719 3.300781 42.890625 3.28125 42.765625 3.289062 C 42.632812 3.277344 42.503906 3.292969 42.378906 3.339844 C 42.253906 3.382812 42.140625 3.449219 42.042969 3.539062 C 41.945312 3.632812 41.871094 3.738281 41.816406 3.859375 C 41.765625 3.980469 41.738281 4.109375 41.738281 4.242188 C 41.738281 4.375 41.765625 4.503906 41.816406 4.625 C 41.871094 4.746094 41.945312 4.851562 42.042969 4.941406 C 42.140625 5.035156 42.253906 5.101562 42.378906 5.144531 C 42.503906 5.1875 42.632812 5.207031 42.765625 5.195312 Z M 42.765625 5.175781 " fill-opacity="1" fill-rule="nonzero"/><path fill="#051c2c" d="M 53.160156 13.667969 C 52.957031 13.667969 52.363281 13.140625 52.363281 12.910156 L 52.363281 8.816406 C 52.375 8.539062 52.332031 8.273438 52.234375 8.015625 C 52.136719 7.753906 51.988281 7.527344 51.796875 7.328125 C 51.601562 7.132812 51.375 6.980469 51.117188 6.878906 C 50.863281 6.773438 50.597656 6.726562 50.320312 6.734375 C 49.003906 6.734375 48.3125 7.5 47.445312 8.398438 L 47.164062 6.867188 L 44.847656 6.867188 L 44.847656 7.394531 L 45.296875 7.394531 C 45.5 7.394531 46.09375 7.949219 46.09375 8.160156 L 46.09375 12.839844 C 46.09375 13.082031 45.5 13.601562 45.296875 13.601562 L 44.398438 13.601562 C 44.1875 13.601562 43.597656 13.070312 43.597656 12.839844 L 43.597656 6.867188 L 40.957031 6.867188 L 40.957031 7.394531 L 41.40625 7.394531 C 41.617188 7.394531 42.203125 7.949219 42.203125 8.160156 L 42.203125 12.839844 C 42.203125 13.082031 41.617188 13.601562 41.40625 13.601562 L 40.582031 13.601562 C 40.070312 13.382812 39.621094 13.078125 39.230469 12.679688 L 35.300781 7.464844 L 38.035156 4.515625 C 38.460938 4.078125 38.945312 3.726562 39.488281 3.457031 L 40.019531 3.457031 L 40.019531 2.921875 L 35.929688 2.921875 L 35.929688 3.476562 L 36.484375 3.476562 C 36.6875 3.476562 37.351562 4.238281 37.175781 4.445312 L 33.132812 8.980469 L 33.132812 4.34375 C 33.132812 4.101562 33.789062 3.476562 34 3.476562 L 34.527344 3.476562 L 34.527344 2.921875 L 30.15625 2.921875 L 30.15625 3.476562 L 30.683594 3.476562 C 30.890625 3.476562 31.550781 4.101562 31.550781 4.34375 L 31.550781 12.839844 C 31.550781 13.082031 30.890625 13.707031 30.683594 13.707031 L 30.15625 13.707031 L 30.15625 14.265625 L 34.554688 14.265625 L 34.554688 13.707031 L 34.027344 13.707031 C 33.816406 13.707031 33.160156 13.082031 33.160156 12.839844 L 33.160156 9.859375 L 34.300781 8.605469 L 38.191406 14.265625 L 48.691406 14.265625 L 48.691406 13.707031 L 48.273438 13.707031 C 48.070312 13.707031 47.476562 13.179688 47.476562 12.941406 L 47.476562 9.160156 C 47.476562 8.679688 48.828125 7.636719 49.871094 7.636719 C 50.035156 7.628906 50.195312 7.65625 50.347656 7.71875 C 50.5 7.777344 50.632812 7.867188 50.746094 7.988281 C 50.859375 8.109375 50.945312 8.246094 50.996094 8.402344 C 51.050781 8.5625 51.066406 8.722656 51.046875 8.886719 L 51.046875 12.910156 C 51.046875 13.152344 50.457031 13.667969 50.25 13.667969 L 49.832031 13.667969 L 49.832031 14.222656 L 53.578125 14.222656 L 53.578125 13.667969 Z M 53.160156 13.667969 " fill-opacity="1" fill-rule="nonzero"/><path fill="#051c2c" d="M 54.515625 11.660156 C 54.515625 12.351562 55.515625 13.808594 57.074219 13.808594 C 57.980469 13.808594 58.496094 13.496094 58.496094 12.800781 C 58.496094 11.972656 57.769531 11.691406 57.113281 11.417969 C 56.585938 11.207031 56.179688 11.035156 55.585938 10.757812 C 54.6875 10.339844 54 9.753906 54 8.75 C 54 7.425781 54.800781 6.664062 56.21875 6.664062 C 57.019531 6.664062 57.46875 7.046875 58.023438 7.046875 C 58.226562 7.046875 58.363281 7.015625 58.433594 6.839844 L 58.851562 6.839844 L 58.851562 9.089844 L 58.402344 9.089844 C 58.351562 8.832031 58.257812 8.585938 58.125 8.355469 C 57.992188 8.128906 57.824219 7.925781 57.625 7.753906 C 57.421875 7.582031 57.199219 7.445312 56.953125 7.347656 C 56.703125 7.253906 56.449219 7.199219 56.183594 7.1875 C 55.316406 7.1875 54.9375 7.570312 54.9375 8.15625 C 54.9375 8.742188 55.386719 9.023438 56.113281 9.335938 C 56.667969 9.578125 57.085938 9.753906 57.699219 9.996094 C 58.496094 10.308594 59.394531 10.929688 59.394531 12.109375 C 59.394531 13.496094 58.421875 14.332031 57.039062 14.332031 C 56.105469 14.332031 55.550781 13.875 54.925781 13.875 C 54.695312 13.851562 54.507812 13.929688 54.371094 14.117188 L 54.023438 14.117188 L 54.023438 11.554688 L 54.476562 11.554688 Z M 54.515625 11.660156 " fill-opacity="1" fill-rule="nonzero"/><path fill="#051c2c" d="M 59.882812 10.566406 C 59.882812 8.382812 61.371094 6.679688 63.246094 6.71875 C 63.59375 6.707031 63.929688 6.761719 64.253906 6.886719 C 64.578125 7.011719 64.863281 7.195312 65.113281 7.433594 C 65.363281 7.675781 65.554688 7.957031 65.691406 8.28125 C 65.824219 8.601562 65.890625 8.933594 65.886719 9.28125 L 65.917969 9.8125 L 61.03125 10.195312 C 61.03125 11.6875 62.089844 13.140625 63.699219 13.140625 C 64.183594 13.1875 64.632812 13.089844 65.054688 12.847656 C 65.472656 12.605469 65.785156 12.265625 65.988281 11.824219 L 66.46875 11.824219 C 65.984375 13.410156 65.078125 14.425781 63.300781 14.425781 C 61.234375 14.398438 59.882812 12.628906 59.882812 10.566406 Z M 64.699219 9.386719 C 64.835938 8.332031 64.664062 7.304688 63.210938 7.304688 C 61.757812 7.304688 61.097656 8.550781 61.027344 9.699219 Z M 64.699219 9.386719 " fill-opacity="1" fill-rule="nonzero"/><path fill="#051c2c" d="M 67.230469 8.261719 C 66.996094 7.898438 66.683594 7.617188 66.292969 7.425781 L 65.984375 7.425781 L 65.984375 6.867188 L 69.859375 6.867188 L 69.859375 7.394531 L 69.410156 7.394531 C 69.207031 7.394531 68.75 7.921875 68.75 8.191406 L 70.453125 12.152344 L 72.117188 8.234375 C 72.046875 7.863281 71.839844 7.597656 71.492188 7.4375 L 71.039062 7.4375 L 71.039062 6.867188 L 73.988281 6.867188 L 73.988281 7.394531 L 73.636719 7.394531 C 73.464844 7.394531 72.945312 7.949219 72.769531 8.191406 L 70.277344 13.84375 L 68.4375 17.902344 L 67.785156 17.589844 L 69.722656 13.570312 Z M 67.230469 8.261719 " fill-opacity="1" fill-rule="nonzero"/><path fill="#051c2c" d="M 31.78125 20.082031 C 31.808594 20.550781 31.964844 20.96875 32.253906 21.339844 C 32.546875 21.710938 32.917969 21.960938 33.367188 22.09375 C 34.820312 23.65625 36.589844 25.320312 38.121094 26.703125 C 38.558594 25.964844 38.753906 25.167969 38.710938 24.308594 C 38.710938 23.253906 38.019531 22.644531 36.910156 22.609375 L 36.910156 22.078125 L 40.929688 22.078125 L 40.929688 22.609375 L 40.476562 22.609375 C 40 22.894531 39.664062 23.300781 39.472656 23.824219 C 39.464844 24.976562 39.140625 26.035156 38.507812 26.996094 C 39.234375 27.648438 39.996094 28.257812 40.789062 28.828125 L 41.484375 28.828125 L 41.484375 29.359375 L 40.234375 29.359375 C 39.132812 29.390625 38.191406 29.015625 37.414062 28.234375 C 36.917969 28.703125 36.347656 29.058594 35.703125 29.292969 C 35.0625 29.53125 34.398438 29.632812 33.714844 29.597656 C 33.257812 29.613281 32.816406 29.539062 32.386719 29.378906 C 31.957031 29.21875 31.578125 28.980469 31.242188 28.671875 C 30.910156 28.359375 30.648438 27.992188 30.457031 27.578125 C 30.269531 27.160156 30.164062 26.722656 30.148438 26.265625 C 30.148438 25.582031 30.304688 24.933594 30.625 24.328125 C 30.945312 23.71875 31.386719 23.222656 31.949219 22.835938 C 31.351562 22.160156 31.0625 21.371094 31.074219 20.46875 C 31.074219 18.832031 32.128906 17.933594 33.777344 17.933594 C 34.835938 17.933594 35.363281 18.277344 35.855469 18.277344 C 36.097656 18.277344 36.273438 18.277344 36.382812 18.074219 L 36.867188 18.074219 L 36.867188 20.714844 L 36.355469 20.714844 C 36.355469 19.953125 35.246094 18.425781 33.714844 18.425781 C 32.511719 18.453125 31.78125 19.023438 31.78125 20.082031 Z M 31.296875 25.496094 C 31.296875 27.121094 33.027344 28.664062 34.625 28.664062 C 35.53125 28.691406 36.351562 28.4375 37.085938 27.90625 C 35.363281 26.40625 33.734375 24.8125 32.199219 23.121094 C 31.539062 23.777344 31.238281 24.566406 31.296875 25.496094 Z M 31.296875 25.496094 " fill-opacity="1" fill-rule="nonzero"/><path fill="#051c2c" d="M 53.054688 22.058594 C 53.054688 20.878906 51.742188 18.523438 49.628906 18.523438 C 47.6875 18.523438 46.511719 19.578125 46.300781 22.164062 C 46.242188 23.125 46.253906 24.082031 46.335938 25.039062 C 46.355469 25.53125 46.464844 26.003906 46.671875 26.453125 C 46.875 26.902344 47.15625 27.296875 47.519531 27.632812 C 47.878906 27.972656 48.289062 28.226562 48.75 28.402344 C 49.210938 28.578125 49.6875 28.660156 50.183594 28.644531 C 52.121094 28.644531 53.09375 27.816406 53.820312 26.324219 L 54.40625 26.324219 C 54.257812 26.808594 54.03125 27.253906 53.734375 27.660156 C 53.433594 28.070312 53.078125 28.417969 52.664062 28.710938 C 52.25 29 51.804688 29.21875 51.316406 29.363281 C 50.832031 29.507812 50.339844 29.566406 49.832031 29.546875 C 46.578125 29.546875 44.496094 26.90625 44.496094 23.65625 C 44.496094 20.402344 46.40625 17.839844 49.558594 17.839844 C 50.769531 17.839844 51.535156 18.328125 52.402344 18.328125 C 52.6875 18.347656 52.917969 18.246094 53.09375 18.015625 L 53.511719 18.015625 L 53.511719 22.039062 L 53.054688 22.039062 Z M 53.054688 22.058594 " fill-opacity="1" fill-rule="nonzero"/><path fill="#051c2c" d="M 55.167969 25.699219 C 55.167969 23.304688 56.871094 21.816406 58.808594 21.816406 C 60.746094 21.816406 62.449219 23.304688 62.449219 25.699219 C 62.449219 28.09375 60.746094 29.597656 58.808594 29.597656 C 58.558594 29.59375 58.3125 29.5625 58.070312 29.511719 C 57.828125 29.457031 57.59375 29.378906 57.363281 29.28125 C 57.136719 29.179688 56.921875 29.058594 56.71875 28.914062 C 56.515625 28.769531 56.332031 28.605469 56.160156 28.421875 C 55.992188 28.242188 55.839844 28.042969 55.710938 27.832031 C 55.578125 27.621094 55.472656 27.398438 55.386719 27.164062 C 55.300781 26.929688 55.242188 26.6875 55.203125 26.441406 C 55.167969 26.195312 55.15625 25.949219 55.167969 25.699219 Z M 60.980469 26.917969 C 61.085938 26.082031 61.085938 25.25 60.980469 24.414062 C 60.84375 23.238281 60.183594 22.4375 58.835938 22.4375 C 57.488281 22.4375 56.859375 23.238281 56.683594 24.382812 C 56.578125 25.214844 56.578125 26.046875 56.683594 26.878906 C 56.859375 28.019531 57.484375 28.855469 58.835938 28.855469 C 60.1875 28.855469 60.851562 28.058594 60.992188 26.917969 Z M 60.980469 26.917969 " fill-opacity="1" fill-rule="nonzero"/><path fill="#051c2c" d="M 74.394531 28.011719 C 74.394531 28.253906 74.949219 28.777344 75.152344 28.777344 L 75.503906 28.777344 L 75.503906 29.304688 L 71.804688 29.304688 L 71.804688 28.777344 L 72.214844 28.777344 C 72.429688 28.777344 72.984375 28.25 72.984375 28.011719 L 72.984375 23.964844 C 73.007812 23.804688 72.996094 23.644531 72.949219 23.488281 C 72.898438 23.332031 72.820312 23.195312 72.707031 23.078125 C 72.59375 22.957031 72.460938 22.871094 72.308594 22.8125 C 72.15625 22.753906 72 22.734375 71.835938 22.75 C 70.871094 22.75 69.691406 23.691406 69.691406 24.171875 L 69.691406 28.011719 C 69.691406 28.253906 70.21875 28.777344 70.453125 28.777344 L 70.871094 28.777344 L 70.871094 29.304688 L 67.125 29.304688 L 67.125 28.777344 L 67.527344 28.777344 C 67.730469 28.777344 68.285156 28.25 68.285156 28.011719 L 68.285156 23.964844 C 68.304688 23.804688 68.289062 23.644531 68.238281 23.488281 C 68.183594 23.332031 68.101562 23.195312 67.988281 23.078125 C 67.871094 22.960938 67.738281 22.871094 67.585938 22.816406 C 67.429688 22.757812 67.273438 22.734375 67.109375 22.75 C 66.136719 22.75 64.957031 23.722656 64.957031 24.242188 L 64.957031 28.058594 C 64.957031 28.300781 65.511719 28.820312 65.722656 28.820312 L 66.136719 28.820312 L 66.136719 29.347656 L 62.394531 29.347656 L 62.394531 28.820312 L 62.8125 28.820312 C 63.019531 28.820312 63.574219 28.289062 63.574219 28.058594 L 63.574219 23.34375 C 63.574219 23.101562 63.019531 22.582031 62.8125 22.582031 L 62.394531 22.582031 L 62.394531 22.054688 L 64.644531 22.054688 L 64.957031 23.476562 C 65.792969 22.570312 66.347656 21.890625 67.632812 21.890625 C 67.863281 21.871094 68.09375 21.894531 68.316406 21.964844 C 68.539062 22.035156 68.738281 22.140625 68.921875 22.289062 C 69.101562 22.4375 69.25 22.613281 69.359375 22.820312 C 69.472656 23.023438 69.542969 23.242188 69.570312 23.476562 C 70.46875 22.570312 71.058594 21.949219 72.269531 21.949219 C 72.546875 21.9375 72.8125 21.984375 73.066406 22.089844 C 73.324219 22.191406 73.546875 22.34375 73.738281 22.539062 C 73.929688 22.738281 74.074219 22.96875 74.167969 23.226562 C 74.261719 23.488281 74.300781 23.753906 74.28125 24.03125 L 74.28125 28.011719 Z M 74.394531 28.011719 " fill-opacity="1" fill-rule="nonzero"/><path fill="#051c2c" d="M 77.65625 22.027344 L 77.902344 23.515625 C 78.125 22.984375 78.484375 22.5625 78.96875 22.25 C 79.457031 21.941406 79.992188 21.792969 80.570312 21.816406 C 82.371094 21.816406 83.441406 23.304688 83.441406 25.5625 C 83.441406 27.820312 82.195312 29.511719 80.429688 29.511719 C 79.902344 29.558594 79.410156 29.449219 78.953125 29.183594 C 78.496094 28.914062 78.15625 28.539062 77.9375 28.058594 L 77.9375 31.558594 C 77.9375 31.800781 78.523438 32.324219 78.699219 32.324219 L 79.183594 32.324219 L 79.183594 32.851562 L 75.300781 32.851562 L 75.300781 32.324219 L 75.789062 32.324219 C 75.992188 32.324219 76.546875 31.796875 76.546875 31.558594 L 76.546875 23.34375 C 76.546875 23.101562 75.992188 22.582031 75.789062 22.582031 L 75.300781 22.582031 L 75.300781 22.054688 Z M 77.902344 24.667969 L 77.902344 26.636719 C 77.902344 26.917969 77.953125 27.1875 78.0625 27.445312 C 78.167969 27.703125 78.320312 27.933594 78.519531 28.132812 C 78.71875 28.328125 78.945312 28.480469 79.207031 28.589844 C 79.464844 28.695312 79.734375 28.75 80.015625 28.75 C 81.261719 28.75 81.851562 27.953125 82.023438 26.808594 C 82.128906 26.082031 82.128906 25.355469 82.023438 24.628906 C 81.882812 23.449219 81.230469 22.71875 80.1875 22.71875 C 78.941406 22.683594 78.25 23.550781 77.902344 24.695312 Z M 77.902344 24.667969 " fill-opacity="1" fill-rule="nonzero"/><path fill="#051c2c" d="M 99.382812 28.820312 C 99.175781 28.820312 98.589844 28.289062 98.589844 28.058594 L 98.589844 23.964844 C 98.601562 23.691406 98.558594 23.421875 98.457031 23.164062 C 98.359375 22.90625 98.210938 22.679688 98.019531 22.480469 C 97.824219 22.285156 97.597656 22.132812 97.34375 22.03125 C 97.085938 21.925781 96.820312 21.878906 96.542969 21.882812 C 95.222656 21.882812 94.53125 22.652344 93.664062 23.550781 L 93.410156 22.058594 L 91.085938 22.058594 L 91.085938 22.585938 L 91.542969 22.585938 C 91.746094 22.585938 92.332031 23.140625 92.332031 23.351562 L 92.332031 28.011719 C 92.332031 28.253906 91.746094 28.777344 91.542969 28.777344 L 90.636719 28.777344 C 90.433594 28.777344 89.839844 28.25 89.839844 28.011719 L 89.839844 24.035156 C 89.839844 22.582031 88.664062 21.851562 87.105469 21.851562 C 86.554688 21.816406 86.019531 21.898438 85.507812 22.097656 C 84.992188 22.296875 84.542969 22.597656 84.160156 22.992188 L 85.128906 24.484375 L 85.65625 24.484375 C 85.101562 23.238281 85.511719 22.40625 86.761719 22.40625 C 88.007812 22.40625 88.492188 22.992188 88.492188 24.035156 L 88.492188 24.9375 L 86.589844 25.320312 C 85.535156 25.527344 84.199219 26.050781 84.199219 27.503906 C 84.1875 27.761719 84.222656 28.011719 84.3125 28.253906 C 84.402344 28.496094 84.535156 28.710938 84.710938 28.902344 C 84.886719 29.089844 85.09375 29.238281 85.328125 29.34375 C 85.5625 29.449219 85.808594 29.503906 86.066406 29.511719 C 87.125 29.511719 87.9375 28.644531 88.53125 27.882812 L 88.703125 29.375 L 94.9375 29.375 L 94.9375 28.84375 L 94.527344 28.84375 C 94.316406 28.84375 93.726562 28.316406 93.726562 28.085938 L 93.726562 24.277344 C 93.726562 23.792969 95.082031 22.75 96.117188 22.75 C 96.28125 22.742188 96.441406 22.769531 96.59375 22.832031 C 96.746094 22.894531 96.878906 22.984375 96.992188 23.105469 C 97.105469 23.226562 97.191406 23.363281 97.242188 23.523438 C 97.296875 23.679688 97.3125 23.839844 97.292969 24.003906 L 97.292969 28.011719 C 97.292969 28.253906 96.707031 28.777344 96.503906 28.777344 L 96.054688 28.777344 L 96.054688 29.304688 L 99.792969 29.304688 L 99.792969 28.777344 L 99.375 28.777344 Z M 88.464844 27.234375 C 88.15625 27.761719 87.410156 28.511719 86.664062 28.511719 C 86.507812 28.515625 86.355469 28.488281 86.207031 28.429688 C 86.0625 28.371094 85.933594 28.285156 85.824219 28.171875 C 85.710938 28.0625 85.625 27.933594 85.566406 27.785156 C 85.507812 27.640625 85.484375 27.488281 85.488281 27.328125 C 85.488281 26.597656 85.800781 26.117188 86.703125 25.875 L 88.464844 25.421875 Z M 88.464844 27.234375 " fill-opacity="1" fill-rule="nonzero"/><path fill="#051c2c" d="M 100.277344 23.410156 C 100.042969 23.046875 99.734375 22.769531 99.34375 22.582031 L 99.03125 22.582031 L 99.03125 22.054688 L 102.921875 22.054688 L 102.921875 22.582031 L 102.472656 22.582031 C 102.265625 22.582031 101.816406 23.109375 101.816406 23.378906 L 103.511719 27.296875 L 105.175781 23.378906 C 105.113281 23 104.90625 22.734375 104.554688 22.582031 L 104.097656 22.582031 L 104.097656 22.054688 L 107.046875 22.054688 L 107.046875 22.582031 L 106.699219 22.582031 C 106.527344 22.582031 106.007812 23.136719 105.832031 23.378906 L 103.339844 29.03125 L 101.503906 33.085938 L 100.839844 32.769531 L 102.777344 28.746094 Z M 100.277344 23.410156 " fill-opacity="1" fill-rule="nonzero"/></svg>