<svg xmlns="http://www.w3.org/2000/svg" xmlns:xlink="http://www.w3.org/1999/xlink" width="158" zoomAndPan="magnify" viewBox="0 0 118.5 36.000001" height="48" preserveAspectRatio="xMidYMid meet" version="1.0"><path fill="#00522e" d="M 94.199219 17.550781 C 94.199219 17.363281 94.199219 17.171875 94.199219 16.972656 C 94.199219 16.757812 94.179688 16.550781 94.140625 16.351562 C 94.113281 16.152344 94.09375 15.953125 94.082031 15.75 C 94.066406 15.550781 94.039062 15.363281 94 15.191406 L 82.914062 15.191406 L 79.550781 20.492188 L 88.070312 20.492188 C 87.816406 21.382812 87.453125 22.195312 86.976562 22.929688 C 86.511719 23.648438 85.953125 24.277344 85.304688 24.808594 L 85.304688 24.828125 C 84.625 25.363281 83.875 25.78125 83.054688 26.089844 C 82.246094 26.382812 81.382812 26.53125 80.464844 26.53125 C 80.441406 26.53125 80.414062 26.53125 80.386719 26.53125 C 80.375 26.53125 80.367188 26.53125 80.367188 26.53125 C 79.171875 26.53125 78.042969 26.289062 76.984375 25.808594 C 75.921875 25.328125 75.011719 24.691406 74.257812 23.890625 C 73.472656 23.050781 72.855469 22.089844 72.40625 21.011719 C 71.953125 19.929688 71.726562 18.777344 71.726562 17.550781 C 71.726562 17.539062 71.726562 17.53125 71.726562 17.53125 C 71.726562 17.519531 71.726562 17.496094 71.726562 17.472656 C 71.726562 16.257812 71.953125 15.117188 72.40625 14.050781 C 72.855469 12.972656 73.480469 12.03125 74.277344 11.234375 C 75.058594 10.433594 75.980469 9.792969 77.042969 9.3125 C 78.105469 8.832031 79.230469 8.59375 80.425781 8.59375 C 80.425781 8.59375 80.433594 8.59375 80.445312 8.59375 C 80.460938 8.59375 80.464844 8.59375 80.464844 8.59375 C 80.464844 8.59375 80.472656 8.59375 80.484375 8.59375 C 80.511719 8.59375 80.527344 8.59375 80.527344 8.59375 C 81.03125 8.59375 81.527344 8.640625 82.019531 8.734375 C 82.523438 8.8125 83.007812 8.933594 83.472656 9.09375 L 83.371094 9.054688 C 83.851562 9.226562 84.292969 9.425781 84.707031 9.652344 C 85.117188 9.878906 85.5 10.125 85.859375 10.394531 L 85.859375 10.371094 L 87.351562 7.992188 L 88.847656 5.59375 C 88.289062 5.207031 87.691406 4.859375 87.054688 4.554688 C 86.429688 4.246094 85.78125 3.988281 85.105469 3.773438 L 85.003906 3.734375 C 84.339844 3.546875 83.628906 3.402344 82.875 3.292969 C 82.117188 3.175781 81.355469 3.113281 80.585938 3.113281 C 80.558594 3.113281 80.539062 3.113281 80.527344 3.113281 C 80.527344 3.113281 80.511719 3.113281 80.484375 3.113281 C 80.472656 3.113281 80.453125 3.113281 80.425781 3.113281 C 80.414062 3.113281 80.394531 3.113281 80.367188 3.113281 C 79.34375 3.113281 78.351562 3.207031 77.382812 3.394531 C 76.425781 3.582031 75.496094 3.859375 74.59375 4.234375 L 74.714844 4.195312 C 73.839844 4.582031 73.023438 5.027344 72.265625 5.535156 C 71.507812 6.039062 70.820312 6.605469 70.195312 7.234375 C 69.453125 8.019531 68.820312 8.792969 68.304688 9.554688 C 67.800781 10.339844 67.382812 11.105469 67.050781 11.851562 C 66.71875 12.597656 66.445312 13.351562 66.234375 14.113281 C 66.035156 14.84375 65.855469 15.570312 65.699219 16.292969 C 65.390625 17.703125 65.074219 19.050781 64.742188 20.332031 C 64.410156 21.609375 63.726562 22.761719 62.691406 23.789062 C 62.292969 24.203125 61.855469 24.582031 61.378906 24.929688 C 60.914062 25.261719 60.429688 25.542969 59.925781 25.769531 L 59.867188 25.808594 C 59.359375 26.007812 58.832031 26.167969 58.273438 26.289062 C 57.730469 26.410156 57.152344 26.46875 56.542969 26.46875 C 56.542969 26.46875 56.527344 26.46875 56.5 26.46875 C 56.488281 26.46875 56.480469 26.46875 56.480469 26.46875 C 55.246094 26.46875 54.085938 26.230469 53 25.75 C 51.910156 25.269531 50.957031 24.617188 50.132812 23.789062 C 49.335938 23.003906 48.699219 22.0625 48.222656 20.96875 C 47.742188 19.863281 47.503906 18.691406 47.503906 17.449219 C 47.503906 16.25 47.738281 15.117188 48.203125 14.050781 C 48.667969 12.972656 49.304688 12.03125 50.113281 11.234375 C 50.921875 10.417969 51.871094 9.773438 52.957031 9.292969 C 54.046875 8.800781 55.207031 8.554688 56.441406 8.554688 C 56.960938 8.554688 57.464844 8.601562 57.953125 8.691406 C 58.445312 8.773438 58.929688 8.886719 59.40625 9.03125 L 59.328125 9.03125 C 59.804688 9.179688 60.242188 9.367188 60.640625 9.59375 C 61.039062 9.804688 61.425781 10.046875 61.796875 10.3125 L 61.757812 10.3125 L 63.269531 7.933594 L 64.800781 5.511719 C 64.257812 5.140625 63.667969 4.800781 63.03125 4.492188 C 62.40625 4.1875 61.75 3.925781 61.058594 3.714844 L 60.980469 3.714844 C 60.316406 3.5 59.605469 3.339844 58.851562 3.234375 C 58.105469 3.128906 57.34375 3.074219 56.5625 3.074219 C 56.546875 3.074219 56.527344 3.074219 56.5 3.074219 C 56.488281 3.074219 56.476562 3.074219 56.460938 3.074219 C 56.460938 3.074219 56.457031 3.074219 56.441406 3.074219 C 56.429688 3.074219 56.421875 3.074219 56.421875 3.074219 C 55.1875 3.074219 53.992188 3.226562 52.839844 3.535156 C 51.699219 3.828125 50.625 4.242188 49.613281 4.773438 L 49.675781 4.753906 C 48.679688 5.261719 47.765625 5.878906 46.929688 6.613281 C 46.09375 7.347656 45.347656 8.152344 44.699219 9.03125 L 44.660156 9.054688 C 44.394531 8.253906 44.007812 7.527344 43.503906 6.875 C 43 6.207031 42.402344 5.652344 41.714844 5.214844 L 41.691406 5.214844 C 40.964844 4.734375 40.160156 4.359375 39.285156 4.09375 C 38.410156 3.8125 37.492188 3.675781 36.539062 3.675781 C 36.5 3.675781 36.464844 3.675781 36.4375 3.675781 C 36.410156 3.675781 36.390625 3.675781 36.378906 3.675781 L 23.582031 3.675781 L 23.582031 31.386719 L 37.710938 31.386719 C 37.738281 31.386719 37.765625 31.386719 37.792969 31.386719 C 37.820312 31.386719 37.839844 31.386719 37.851562 31.386719 C 38.699219 31.386719 39.511719 31.28125 40.28125 31.070312 C 41.050781 30.867188 41.78125 30.582031 42.46875 30.207031 L 42.410156 30.230469 C 43.058594 29.867188 43.644531 29.441406 44.160156 28.949219 C 44.691406 28.441406 45.136719 27.882812 45.496094 27.269531 L 45.535156 27.210938 C 46.171875 27.941406 46.882812 28.59375 47.664062 29.167969 C 48.449219 29.742188 49.277344 30.242188 50.152344 30.667969 L 50.25 30.6875 C 51.128906 31.089844 52.070312 31.402344 53.078125 31.628906 C 54.085938 31.867188 55.136719 31.988281 56.222656 31.988281 C 56.222656 31.988281 56.230469 31.988281 56.242188 31.988281 C 56.257812 31.988281 56.269531 31.988281 56.28125 31.988281 C 56.308594 31.988281 56.328125 31.988281 56.34375 31.988281 C 56.355469 31.988281 56.375 31.988281 56.402344 31.988281 C 57.636719 31.988281 58.835938 31.835938 60.003906 31.527344 C 61.171875 31.234375 62.261719 30.808594 63.269531 30.25 L 63.210938 30.308594 C 64.246094 29.761719 65.179688 29.117188 66.015625 28.367188 C 66.851562 27.609375 67.59375 26.769531 68.246094 25.847656 L 68.265625 25.789062 C 68.902344 26.722656 69.632812 27.570312 70.453125 28.328125 C 71.289062 29.074219 72.191406 29.714844 73.160156 30.25 L 73.222656 30.289062 C 74.230469 30.820312 75.316406 31.234375 76.484375 31.527344 C 77.652344 31.835938 78.867188 31.988281 80.128906 31.988281 C 80.128906 31.988281 80.132812 31.988281 80.148438 31.988281 C 80.160156 31.988281 80.179688 31.988281 80.207031 31.988281 C 80.21875 31.988281 80.234375 31.988281 80.246094 31.988281 C 80.261719 31.988281 80.265625 31.988281 80.265625 31.988281 C 81.234375 31.988281 82.179688 31.886719 83.09375 31.6875 C 84.007812 31.488281 84.886719 31.203125 85.722656 30.828125 C 86.570312 30.46875 87.367188 30.027344 88.109375 29.507812 C 88.851562 28.976562 89.535156 28.382812 90.160156 27.730469 C 90.796875 27.089844 91.359375 26.382812 91.851562 25.609375 C 92.34375 24.851562 92.761719 24.042969 93.105469 23.191406 C 93.449219 22.335938 93.714844 21.445312 93.902344 20.511719 C 94.101562 19.589844 94.199219 18.632812 94.199219 17.632812 C 94.199219 17.617188 94.199219 17.605469 94.199219 17.589844 C 94.199219 17.578125 94.199219 17.566406 94.199219 17.550781 Z M 29.53125 14.933594 L 29.53125 8.792969 L 36.320312 8.792969 C 36.332031 8.792969 36.339844 8.792969 36.339844 8.792969 C 36.765625 8.792969 37.15625 8.875 37.511719 9.03125 C 37.871094 9.179688 38.195312 9.394531 38.488281 9.671875 L 38.46875 9.671875 C 38.746094 9.953125 38.960938 10.273438 39.105469 10.632812 C 39.265625 10.992188 39.34375 11.378906 39.34375 11.792969 C 39.34375 11.792969 39.34375 11.800781 39.34375 11.8125 C 39.34375 11.824219 39.34375 11.832031 39.34375 11.832031 C 39.34375 11.859375 39.34375 11.871094 39.34375 11.871094 C 39.34375 11.871094 39.34375 11.886719 39.34375 11.914062 C 39.34375 12.3125 39.265625 12.699219 39.105469 13.074219 C 38.960938 13.433594 38.753906 13.753906 38.488281 14.03125 L 38.46875 14.03125 C 38.191406 14.3125 37.871094 14.53125 37.511719 14.691406 C 37.15625 14.851562 36.765625 14.933594 36.339844 14.933594 C 36.339844 14.933594 36.332031 14.933594 36.320312 14.933594 Z M 29.53125 26.269531 L 29.53125 19.972656 L 37.632812 19.972656 C 37.644531 19.972656 37.652344 19.972656 37.652344 19.972656 C 38.089844 19.972656 38.503906 20.050781 38.886719 20.210938 C 39.285156 20.371094 39.636719 20.585938 39.941406 20.851562 C 40.234375 21.128906 40.464844 21.464844 40.636719 21.851562 C 40.8125 22.238281 40.898438 22.644531 40.898438 23.070312 C 40.898438 23.070312 40.898438 23.078125 40.898438 23.089844 C 40.898438 23.542969 40.8125 23.964844 40.636719 24.351562 C 40.464844 24.738281 40.226562 25.078125 39.921875 25.371094 C 39.628906 25.664062 39.285156 25.890625 38.886719 26.050781 C 38.503906 26.210938 38.085938 26.289062 37.632812 26.289062 L 29.53125 26.289062 Z M 29.53125 26.269531 " fill-opacity="1" fill-rule="nonzero"/></svg>